<svg width="500" height="502" viewBox="0 0 500 502" fill="none" xmlns="http://www.w3.org/2000/svg">
<path d="M477.458 340.601C427.21 458.906 294.572 509.72 190.647 501.056C162.272 498.691 105.179 493.931 60.6014 451.468C-25.0079 369.92 -11.8233 199.462 70.1294 99.1066C80.6832 86.183 153.735 -0.404896 267.573 0.754082C350.919 1.60264 409.418 49.0266 416.531 54.9346C425.517 62.3981 445.337 80.1339 463.199 108.27C505.169 174.381 508.858 266.673 477.458 340.601Z" fill="url(#paint0_linear_5_610)"/>
<path d="M151.755 61.6317L170.329 390.383H479.395L492.723 61.6317H151.755Z" fill="url(#paint1_linear_5_610)"/>
<path d="M493.897 68.2955H150.126C148.454 68.2955 146.977 67.2045 146.485 65.606L144.387 58.7875C143.633 56.3376 145.465 53.8571 148.028 53.8571H494.946C497.281 53.8571 499.067 55.9384 498.712 58.2463L497.663 65.0649C497.377 66.9235 495.778 68.2955 493.897 68.2955Z" fill="#7D97F4"/>
<path d="M493.897 170.475H150.126C148.454 170.475 146.977 169.384 146.485 167.785L144.387 160.967C143.633 158.517 145.465 156.036 148.028 156.036H494.946C497.281 156.036 499.067 158.118 498.712 160.426L497.663 167.244C497.377 169.103 495.778 170.475 493.897 170.475Z" fill="url(#paint2_linear_5_610)"/>
<path d="M489.751 134.934L491.642 88.287H153.261L155.896 134.934H489.751Z" fill="url(#paint3_linear_5_610)"/>
<path d="M198.402 88.287H190.627V134.934H198.402V88.287Z" fill="url(#paint4_linear_5_610)"/>
<path d="M251.713 88.287H243.938V134.934H251.713V88.287Z" fill="url(#paint5_linear_5_610)"/>
<path d="M305.024 88.287H297.25V134.934H305.024V88.287Z" fill="url(#paint6_linear_5_610)"/>
<path d="M358.335 88.287H350.561V134.934H358.335V88.287Z" fill="url(#paint7_linear_5_610)"/>
<path d="M411.646 88.287H403.872V134.934H411.646V88.287Z" fill="url(#paint8_linear_5_610)"/>
<path d="M464.957 88.287H457.183V134.934H464.957V88.287Z" fill="url(#paint9_linear_5_610)"/>
<path d="M208.29 397.352L200.926 217.734L442.46 211.788L435.29 397.352H208.29Z" fill="url(#paint10_linear_5_610)"/>
<mask id="mask0_5_610" style="mask-type:luminance" maskUnits="userSpaceOnUse" x="208" y="226" width="228" height="165">
<path d="M216.69 390.617L208.893 226.968H435.893L427.476 390.836L216.69 390.617Z" fill="white"/>
</mask>
<g mask="url(#mask0_5_610)">
<path d="M440.681 240.815H204.069V246.836H440.681V240.815Z" fill="url(#paint11_linear_5_610)"/>
<path d="M440.681 254.061H204.069V260.081H440.681V254.061Z" fill="url(#paint12_linear_5_610)"/>
<path d="M440.681 267.306H204.069V273.327H440.681V267.306Z" fill="url(#paint13_linear_5_610)"/>
<path d="M440.681 280.551H204.069V286.572H440.681V280.551Z" fill="url(#paint14_linear_5_610)"/>
<path d="M440.681 294.399H204.069V301.022H440.681V294.399Z" fill="url(#paint15_linear_5_610)"/>
<path d="M440.681 307.644H204.069V314.267H440.681V307.644Z" fill="url(#paint16_linear_5_610)"/>
<path d="M440.681 320.89H204.069V327.512H440.681V320.89Z" fill="url(#paint17_linear_5_610)"/>
<path d="M440.681 334.135H204.069V340.758H440.681V334.135Z" fill="url(#paint18_linear_5_610)"/>
<path d="M440.681 347.983H204.069V354.605H440.681V347.983Z" fill="url(#paint19_linear_5_610)"/>
<path d="M440.681 361.228H204.069V367.851H440.681V361.228Z" fill="url(#paint20_linear_5_610)"/>
<path d="M440.681 374.474H204.069V381.096H440.681V374.474Z" fill="url(#paint21_linear_5_610)"/>
</g>
<path d="M453.323 195.653C453.323 192.997 451.17 190.844 448.514 190.844H198.643C195.987 190.844 193.833 192.997 193.833 195.653V228.179C193.833 230.835 195.987 232.988 198.643 232.988H448.514C451.17 232.988 453.323 230.835 453.323 228.179V195.653Z" fill="url(#paint22_linear_5_610)"/>
<path d="M486.437 389.809C486.437 386.992 484.153 384.709 481.336 384.709H168.229C165.412 384.709 163.128 386.992 163.128 389.809V391.649C163.128 394.466 165.412 396.75 168.229 396.75H481.336C484.153 396.75 486.437 394.466 486.437 391.649L486.437 389.809Z" fill="url(#paint23_linear_5_610)"/>
<path d="M4.57335 118.707C4.24699 118.707 3.979 118.446 3.9713 118.119C3.9525 117.313 3.94248 116.507 3.94141 115.699C3.94087 115.367 4.21011 115.097 4.54291 115.096H4.54345C4.87572 115.096 5.14496 115.365 5.1455 115.697C5.14675 116.496 5.1566 117.294 5.17558 118.091C5.18327 118.423 4.91975 118.699 4.58767 118.707C4.58266 118.707 4.578 118.707 4.57335 118.707Z" fill="#BDD0FB"/>
<path d="M4.82751 108.295C4.81283 108.295 4.79869 108.295 4.78347 108.294C4.45193 108.27 4.20255 107.982 4.22672 107.65C4.34433 106.01 4.50187 104.35 4.6936 102.716C4.73245 102.386 5.03339 102.147 5.36153 102.188C5.692 102.227 5.92831 102.526 5.88946 102.857C5.69952 104.472 5.54431 106.114 5.42723 107.737C5.40485 108.054 5.14026 108.295 4.82751 108.295ZM6.51603 95.4732C6.47844 95.4732 6.44012 95.4697 6.40199 95.4623C6.0751 95.3997 5.86171 95.0839 5.92401 94.7577C6.23497 93.1394 6.58603 91.5092 6.96824 89.9123C7.04593 89.589 7.37336 89.3901 7.6938 89.4666C8.01711 89.5439 8.21655 89.8687 8.13957 90.1921C7.76148 91.7716 7.414 93.3841 7.10716 94.9845C7.05113 95.2731 6.79889 95.4732 6.51603 95.4732ZM9.69329 82.9379C9.63332 82.9379 9.57209 82.9287 9.51158 82.9096C9.19472 82.809 9.01892 82.4706 9.11935 82.1538C9.40166 81.261 9.69615 80.3691 10.0025 79.4785C10.2346 78.8029 10.4727 78.131 10.7167 77.4627C10.8315 77.1502 11.1754 76.9912 11.4887 77.1038C11.8014 77.2182 11.962 77.5635 11.848 77.8761C11.6063 78.5372 11.3705 79.2017 11.1407 79.8702C10.8379 80.7513 10.5469 81.6337 10.267 82.5172C10.1861 82.7739 9.94911 82.9379 9.69329 82.9379ZM14.2977 70.8542C14.2153 70.8542 14.1319 70.8372 14.0519 70.801C13.7485 70.665 13.6128 70.3085 13.7492 70.0053C14.4212 68.5083 15.1378 67.0029 15.8788 65.5316C16.0281 65.2344 16.3892 65.1144 16.6878 65.2646C16.9848 65.4143 17.104 65.7761 16.9547 66.0731C16.2209 67.5289 15.5125 69.0178 14.8475 70.4987C14.7474 70.7217 14.5276 70.8542 14.2977 70.8542ZM20.2766 59.3885C20.1713 59.3885 20.065 59.3609 19.968 59.3029C19.6828 59.1321 19.5899 58.7623 19.7605 58.4771C20.6006 57.0744 21.4884 55.6638 22.401 54.2837C22.5838 54.0062 22.9573 53.9303 23.2353 54.1133C23.5122 54.2968 23.5887 54.6704 23.4052 54.9475C22.5033 56.3127 21.6243 57.7082 20.794 59.0956C20.681 59.2841 20.4811 59.3885 20.2766 59.3885ZM27.5647 48.704C27.4365 48.704 27.3066 48.6632 27.1972 48.5785C26.9338 48.3751 26.8855 47.997 27.0891 47.7339C28.0962 46.4295 29.1469 45.1313 30.2112 43.8755C30.4251 43.6223 30.8039 43.5897 31.0595 43.8051C31.313 44.0203 31.3447 44.4002 31.1295 44.6538C30.0771 45.8959 29.0382 47.18 28.0416 48.47C27.9235 48.6234 27.7453 48.704 27.5647 48.704ZM36.0673 38.9478C35.9149 38.9478 35.7628 38.8905 35.6457 38.7755C35.4081 38.5426 35.4045 38.1615 35.6375 37.9241C36.7898 36.749 37.9851 35.5843 39.1905 34.4617C39.4332 34.2352 39.8149 34.2485 40.0412 34.4919C40.2682 34.7354 40.2546 35.1163 40.0113 35.343C38.8195 36.4531 37.6371 37.6051 36.4971 38.7673C36.3788 38.8874 36.223 38.9478 36.0673 38.9478ZM191.99 37.2782C191.838 37.2782 191.686 37.2211 191.568 37.1062C190.404 35.9667 189.2 34.8392 187.988 33.7554C187.741 33.5338 187.72 33.153 187.941 32.9053C188.162 32.6575 188.543 32.6362 188.792 32.8582C190.016 33.9538 191.233 35.0936 192.41 36.2456C192.648 36.4785 192.652 36.8595 192.42 37.0972C192.302 37.2177 192.146 37.2782 191.99 37.2782ZM45.6567 30.2619C45.4803 30.2619 45.3056 30.1851 45.1869 30.037C44.9787 29.778 45.0199 29.3992 45.2786 29.1906C46.5609 28.1596 47.8839 27.1433 49.2115 26.17C49.4784 25.9736 49.8552 26.0316 50.0529 26.2996C50.2493 26.5678 50.1916 26.9446 49.9235 27.1412C48.61 28.1036 47.3017 29.109 46.0335 30.1288C45.9225 30.2184 45.789 30.2619 45.6567 30.2619ZM182.229 28.7896C182.101 28.7896 181.971 28.7488 181.862 28.6643C180.575 27.6716 179.246 26.6938 177.912 25.7586C177.64 25.5676 177.574 25.1922 177.765 24.9199C177.956 24.648 178.331 24.5812 178.604 24.7726C179.952 25.7183 181.296 26.7069 182.597 27.7105C182.86 27.9137 182.909 28.2917 182.706 28.5551C182.588 28.7092 182.409 28.7896 182.229 28.7896ZM56.194 22.7588C55.9935 22.7588 55.7977 22.6589 55.6836 22.4766C55.5066 22.195 55.592 21.8234 55.8736 21.6467C57.2635 20.7747 58.6951 19.9202 60.1298 19.1067C60.4185 18.942 60.7866 19.0444 60.9506 19.3334C61.1146 19.6223 61.0129 19.9899 60.7236 20.1538C59.3048 20.9587 57.8884 21.8042 56.5132 22.6667C56.414 22.729 56.3034 22.7588 56.194 22.7588ZM171.535 21.5108C171.43 21.5108 171.324 21.4834 171.227 21.4256C169.832 20.5922 168.397 19.7779 166.962 19.0056C166.669 18.8482 166.559 18.4832 166.716 18.1903C166.874 17.8973 167.239 17.7875 167.532 17.9451C168.983 18.726 170.434 19.5489 171.844 20.3919C172.13 20.5624 172.223 20.932 172.053 21.2174C171.94 21.4063 171.741 21.5108 171.535 21.5108ZM67.5321 16.5362C67.3069 16.5362 67.0906 16.4094 66.9877 16.1925C66.8448 15.8922 66.973 15.5331 67.2729 15.3903C68.7621 14.6826 70.2838 14.0007 71.7947 13.3632C72.1016 13.2338 72.4544 13.3774 72.5839 13.684C72.7126 13.9903 72.5692 14.3437 72.2629 14.4728C70.7677 15.1033 69.2632 15.778 67.7904 16.478C67.7068 16.5176 67.6185 16.5362 67.5321 16.5362ZM160.057 15.5405C159.976 15.5405 159.892 15.5235 159.812 15.4875C158.329 14.8233 156.808 14.1826 155.292 13.5825C154.983 13.4603 154.832 13.1105 154.954 12.8015C155.076 12.4916 155.427 12.341 155.735 12.4631C157.268 13.0696 158.805 13.7172 160.304 14.3887C160.608 14.5245 160.743 14.8808 160.608 15.1842C160.507 15.4076 160.288 15.5405 160.057 15.5405ZM79.5146 11.6761C79.2636 11.6761 79.0295 11.5181 78.9443 11.2673C78.8379 10.9522 79.0066 10.6106 79.3211 10.5036C80.8827 9.97437 82.4726 9.47437 84.0465 9.01787C84.3629 8.92496 84.6998 9.10863 84.792 9.42818C84.8849 9.74774 84.7009 10.0818 84.3817 10.1743C82.8247 10.6258 81.2526 11.1203 79.708 11.6443C79.6439 11.6656 79.5787 11.6761 79.5146 11.6761ZM147.963 10.9461C147.903 10.9461 147.841 10.937 147.781 10.9178C146.234 10.4294 144.65 9.96847 143.075 9.54795C142.754 9.46202 142.563 9.1319 142.649 8.81074C142.735 8.4894 143.068 8.30089 143.386 8.38449C144.978 8.8102 146.579 9.27619 148.144 9.76975C148.461 9.86965 148.637 10.2078 148.537 10.525C148.456 10.7818 148.218 10.9461 147.963 10.9461ZM91.9804 8.24593C91.7023 8.24593 91.4524 8.05224 91.3917 7.76938C91.323 7.44392 91.5305 7.12437 91.8556 7.05509C93.4648 6.71226 95.1018 6.40167 96.7203 6.1317C97.0472 6.07818 97.3581 6.29837 97.4129 6.62652C97.4675 6.95466 97.2459 7.26472 96.9179 7.31951C95.3169 7.58642 93.6982 7.89398 92.106 8.23287C92.064 8.24182 92.0222 8.24593 91.9804 8.24593ZM135.425 7.78156C135.387 7.78156 135.35 7.77797 135.311 7.77099C133.709 7.46522 132.083 7.19222 130.477 6.95931C130.147 6.91169 129.919 6.60628 129.967 6.27706C130.015 5.94785 130.315 5.7196 130.649 5.76758C132.273 6.00299 133.918 6.27904 135.537 6.58803C135.863 6.65033 136.078 6.96576 136.016 7.29247C135.96 7.5807 135.708 7.78156 135.425 7.78156ZM104.76 6.29927C104.452 6.29927 104.189 6.06493 104.16 5.75272C104.13 5.42135 104.374 5.12829 104.705 5.09768C106.34 4.94623 108.001 4.83023 109.641 4.75217C109.959 4.7357 110.255 4.99242 110.271 5.32522C110.287 5.65748 110.03 5.93926 109.698 5.95519C108.076 6.03199 106.433 6.14692 104.815 6.2964C104.797 6.29837 104.778 6.29927 104.76 6.29927ZM122.601 6.107C122.587 6.107 122.572 6.10646 122.558 6.10557C120.938 5.99064 119.291 5.91061 117.662 5.86854C117.329 5.85995 117.067 5.58372 117.075 5.2511C117.085 4.9192 117.345 4.65318 117.693 4.66499C119.34 4.70724 121.005 4.78779 122.643 4.90434C122.975 4.92779 123.225 5.21601 123.201 5.54756C123.178 5.86478 122.914 6.107 122.601 6.107Z" fill="#BDD0FB"/>
<path d="M199.106 44.9418C198.934 44.9418 198.764 44.8691 198.645 44.7281C198.131 44.1187 197.609 43.5145 197.082 42.916C196.862 42.6665 196.886 42.286 197.135 42.0662C197.384 41.8473 197.765 41.8698 197.985 42.1194C198.519 42.725 199.046 43.3356 199.566 43.9515C199.78 44.2057 199.748 44.5856 199.493 44.7998C199.381 44.8953 199.243 44.9418 199.106 44.9418Z" fill="#BDD0FB"/>
<path d="M224.799 125.328C224.782 125.328 224.765 125.328 224.748 125.326C224.416 125.298 224.17 125.007 224.198 124.676C224.265 123.879 224.323 123.083 224.373 122.288C224.394 121.955 224.674 121.697 225.012 121.724C225.343 121.745 225.595 122.031 225.575 122.363C225.525 123.167 225.466 123.972 225.398 124.777C225.372 125.091 225.109 125.328 224.799 125.328Z" fill="#BDD0FB"/>
<path d="M114.871 226.474C114.372 226.474 113.874 226.471 113.374 226.464C113.042 226.459 112.775 226.186 112.78 225.854C112.785 225.524 113.053 225.26 113.382 225.26H113.39C114.995 225.282 116.61 225.268 118.215 225.218C118.221 225.218 118.227 225.218 118.234 225.218C118.558 225.218 118.825 225.476 118.835 225.802C118.845 226.134 118.584 226.412 118.252 226.422C117.129 226.456 115.991 226.474 114.871 226.474ZM105.511 226.073C105.494 226.073 105.476 226.072 105.458 226.071C103.846 225.932 102.214 225.756 100.609 225.546C100.28 225.503 100.047 225.2 100.09 224.871C100.133 224.541 100.429 224.307 100.765 224.352C102.352 224.559 103.966 224.734 105.562 224.871C105.893 224.899 106.139 225.191 106.11 225.522C106.083 225.836 105.82 226.073 105.511 226.073ZM126.094 225.897C125.789 225.897 125.528 225.666 125.496 225.357C125.462 225.025 125.703 224.73 126.033 224.696C127.621 224.533 129.229 224.331 130.815 224.097C131.141 224.046 131.45 224.275 131.498 224.604C131.547 224.933 131.32 225.239 130.991 225.288C129.388 225.525 127.761 225.729 126.157 225.894C126.135 225.896 126.115 225.897 126.094 225.897ZM92.9138 224.25C92.8739 224.25 92.8332 224.246 92.7926 224.238C91.2104 223.914 89.61 223.551 88.0365 223.157C87.7143 223.076 87.5179 222.749 87.599 222.426C87.6796 222.103 88.0052 221.908 88.3292 221.988C89.8857 222.378 91.4684 222.738 93.0335 223.058C93.3594 223.125 93.5692 223.443 93.5028 223.768C93.4448 224.054 93.1936 224.25 92.9138 224.25ZM138.652 223.864C138.376 223.864 138.127 223.673 138.065 223.392C137.993 223.067 138.198 222.746 138.522 222.674C140.082 222.328 141.657 221.942 143.204 221.527C143.525 221.441 143.856 221.631 143.942 221.952C144.029 222.273 143.838 222.603 143.517 222.689C141.953 223.109 140.36 223.5 138.783 223.849C138.739 223.859 138.695 223.864 138.652 223.864ZM80.6103 220.99C80.5485 220.99 80.4857 220.98 80.4234 220.96C79.879 220.782 79.3351 220.6 78.7912 220.413C77.8 220.072 76.7998 219.712 75.8191 219.343C75.5082 219.227 75.3504 218.88 75.467 218.568C75.5841 218.256 75.9316 218.1 76.2425 218.216C77.2132 218.581 78.2022 218.936 79.1829 219.274C79.7209 219.459 80.2588 219.639 80.7975 219.815C81.1138 219.919 81.286 220.259 81.1826 220.575C81.0993 220.829 80.8636 220.99 80.6103 220.99ZM150.895 220.398C150.646 220.398 150.412 220.241 150.326 219.992C150.217 219.678 150.383 219.335 150.698 219.226C152.209 218.703 153.73 218.138 155.22 217.548C155.528 217.427 155.879 217.577 156.001 217.886C156.123 218.195 155.972 218.545 155.663 218.668C154.157 219.264 152.619 219.835 151.092 220.364C151.026 220.387 150.96 220.398 150.895 220.398ZM68.7518 216.351C68.6676 216.351 68.5824 216.333 68.5013 216.296C67.0237 215.618 65.5468 214.9 64.111 214.164C63.8153 214.012 63.6989 213.649 63.8505 213.353C64.0022 213.058 64.365 212.94 64.6613 213.092C66.0806 213.821 67.5418 214.531 69.0033 215.201C69.3055 215.34 69.4383 215.697 69.2996 215.999C69.1981 216.22 68.98 216.351 68.7518 216.351ZM162.663 215.548C162.439 215.548 162.224 215.423 162.119 215.207C161.975 214.907 162.101 214.548 162.401 214.404C163.844 213.71 165.291 212.974 166.702 212.218C166.996 212.06 167.36 212.171 167.518 212.464C167.675 212.757 167.564 213.122 167.272 213.279C165.845 214.044 164.381 214.787 162.923 215.489C162.839 215.529 162.75 215.548 162.663 215.548ZM57.5053 210.383C57.399 210.383 57.2907 210.354 57.1931 210.295C55.8043 209.451 54.4203 208.568 53.0798 207.67C52.8034 207.485 52.73 207.111 52.9145 206.835C53.0996 206.558 53.4743 206.484 53.75 206.67C55.0759 207.558 56.4446 208.432 57.8186 209.266C58.1025 209.439 58.1931 209.809 58.0204 210.093C57.9071 210.28 57.7089 210.383 57.5053 210.383ZM173.799 209.382C173.599 209.382 173.404 209.283 173.289 209.101C173.112 208.82 173.196 208.449 173.477 208.271C174.83 207.417 176.184 206.521 177.501 205.606C177.774 205.417 178.149 205.484 178.339 205.757C178.529 206.03 178.461 206.405 178.188 206.595C176.856 207.519 175.488 208.426 174.12 209.289C174.02 209.352 173.909 209.382 173.799 209.382ZM47.0264 203.152C46.897 203.152 46.7665 203.11 46.6565 203.024C45.3812 202.03 44.1094 200.992 42.876 199.94C42.6232 199.724 42.5931 199.344 42.809 199.091C43.026 198.838 43.4059 198.809 43.6579 199.024C44.8774 200.065 46.1356 201.091 47.3973 202.075C47.6596 202.279 47.7059 202.657 47.502 202.919C47.3832 203.072 47.2056 203.152 47.0264 203.152ZM184.155 201.979C183.978 201.979 183.804 201.902 183.686 201.755C183.477 201.496 183.517 201.117 183.777 200.908C185.022 199.904 186.264 198.858 187.468 197.797C187.718 197.578 188.099 197.601 188.318 197.85C188.538 198.1 188.514 198.48 188.265 198.7C187.048 199.773 185.792 200.831 184.532 201.846C184.421 201.935 184.287 201.979 184.155 201.979ZM37.4585 194.754C37.3056 194.754 37.1534 194.696 37.0358 194.58C35.8834 193.444 34.7404 192.265 33.6385 191.079C33.4122 190.835 33.4262 190.454 33.6697 190.228C33.9124 190.002 34.2941 190.015 34.5211 190.26C35.6106 191.434 36.7411 192.599 37.8813 193.723C38.1183 193.956 38.1207 194.338 37.8872 194.574C37.7696 194.694 37.6139 194.754 37.4585 194.754ZM193.591 193.43C193.439 193.43 193.286 193.372 193.169 193.257C192.932 193.024 192.928 192.643 193.162 192.405C194.284 191.264 195.397 190.08 196.471 188.887C196.693 188.64 197.074 188.62 197.321 188.842C197.568 189.064 197.588 189.445 197.366 189.692C196.28 190.899 195.155 192.096 194.02 193.25C193.902 193.37 193.747 193.43 193.591 193.43ZM201.976 183.844C201.847 183.844 201.716 183.803 201.607 183.718C201.344 183.514 201.297 183.135 201.501 182.873C202.483 181.609 203.452 180.303 204.381 178.992C204.573 178.721 204.948 178.656 205.22 178.848C205.491 179.04 205.556 179.416 205.364 179.687C204.425 181.013 203.445 182.334 202.452 183.612C202.333 183.764 202.156 183.844 201.976 183.844ZM209.19 173.349C209.084 173.349 208.977 173.321 208.879 173.262C208.595 173.09 208.504 172.72 208.676 172.435C209.505 171.066 210.314 169.659 211.081 168.254C211.241 167.962 211.607 167.854 211.899 168.014C212.19 168.173 212.298 168.539 212.138 168.831C211.362 170.252 210.544 171.674 209.706 173.059C209.593 173.245 209.394 173.349 209.19 173.349ZM215.137 162.097C215.053 162.097 214.968 162.08 214.887 162.043C214.585 161.904 214.452 161.547 214.59 161.245C215.253 159.793 215.895 158.302 216.498 156.814C216.622 156.506 216.975 156.357 217.282 156.482C217.59 156.607 217.738 156.958 217.614 157.266C217.005 158.77 216.356 160.278 215.685 161.745C215.584 161.966 215.366 162.097 215.137 162.097ZM219.755 150.238C219.694 150.238 219.631 150.229 219.569 150.209C219.253 150.106 219.08 149.766 219.183 149.45C219.68 147.921 220.149 146.367 220.576 144.83C220.665 144.509 220.997 144.323 221.317 144.411C221.637 144.5 221.825 144.832 221.736 145.152C221.304 146.706 220.83 148.278 220.328 149.822C220.245 150.077 220.009 150.238 219.755 150.238ZM222.997 137.928C222.957 137.928 222.917 137.924 222.877 137.916C222.551 137.85 222.34 137.533 222.406 137.207C222.725 135.632 223.012 134.034 223.26 132.457C223.312 132.129 223.619 131.903 223.949 131.956C224.277 132.008 224.501 132.316 224.45 132.644C224.199 134.238 223.909 135.854 223.586 137.445C223.528 137.731 223.277 137.928 222.997 137.928Z" fill="#BDD0FB"/>
<path d="M28.9033 185.275C28.727 185.275 28.5523 185.198 28.4331 185.05C27.9286 184.421 27.4306 183.786 26.9397 183.147C26.7368 182.883 26.7868 182.505 27.0501 182.303C27.3153 182.099 27.6921 182.15 27.8944 182.413C28.3806 183.046 28.8727 183.674 29.3726 184.296C29.5808 184.556 29.5389 184.935 29.2796 185.143C29.1685 185.232 29.0349 185.275 28.9033 185.275Z" fill="#BDD0FB"/>
<path d="M41.7191 158.313C41.9504 158.828 42.4833 159.14 43.0456 159.089L59.0914 157.639C63.6582 163.618 69.2114 168.912 75.6311 173.241L75.1296 189.334C75.1117 189.899 75.4546 190.412 75.9823 190.613L94.0465 197.479C94.5747 197.68 95.1717 197.523 95.5333 197.09L105.847 184.726C113.522 185.754 121.19 185.485 128.575 184.048L139.607 195.79C139.994 196.201 140.599 196.322 141.114 196.091L158.743 188.173C159.258 187.941 159.569 187.408 159.518 186.846L158.068 170.8C164.048 166.233 169.342 160.68 173.671 154.26L189.764 154.762C190.329 154.779 190.842 154.437 191.043 153.909L197.909 135.844C198.109 135.316 197.953 134.719 197.519 134.358L185.156 124.043C186.183 116.369 185.915 108.701 184.478 101.316L196.22 90.2838C196.631 89.8973 196.752 89.2919 196.52 88.777L188.602 71.1487C188.371 70.6333 187.838 70.322 187.275 70.3726L171.23 71.8229C166.663 65.8432 161.109 60.5491 154.69 56.22L155.191 40.1268C155.209 39.5623 154.867 39.0491 154.339 38.8482L136.274 31.9824C135.746 31.7817 135.149 31.9382 134.787 32.372L124.473 44.7355C116.799 43.7075 109.131 43.9768 101.745 45.4138L90.7137 33.672C90.3272 33.2603 89.7216 33.1394 89.2065 33.3709L71.5782 41.2895C71.0632 41.521 70.7515 42.0536 70.8022 42.6161L72.2522 58.6617C66.2728 63.2285 60.9786 68.782 56.6495 75.2015L40.5563 74.6999C39.9922 74.6822 39.4784 75.0247 39.2779 75.5528L32.4122 93.617C32.2115 94.1449 32.3678 94.742 32.8013 95.1039L45.1648 105.418C44.1373 113.092 44.4065 120.76 45.843 128.146L34.1017 139.177C33.69 139.564 33.5693 140.169 33.8005 140.684L41.7191 158.313Z" fill="#91B3FA"/>
<path d="M115.174 132.794C114.479 132.794 113.778 132.754 113.071 132.672C108.279 132.114 103.99 129.723 100.997 125.939C98.0021 122.156 96.6611 117.433 97.2189 112.641C98.3713 102.748 107.352 95.6346 117.251 96.7888C122.042 97.3468 126.331 99.7376 129.325 103.521C132.319 107.304 133.66 112.027 133.102 116.82C132.032 126.006 124.207 132.794 115.174 132.794ZM113.28 130.878C122.188 131.912 130.271 125.514 131.308 116.611C131.811 112.298 130.603 108.047 127.908 104.642C125.214 101.237 121.354 99.0853 117.041 98.5829C108.135 97.5452 100.05 103.946 99.0134 112.85C98.5107 117.163 99.7184 121.413 102.413 124.819C105.108 128.224 108.967 130.376 113.28 130.878Z" fill="#BDD0FB"/>
<path d="M115.54 162.091C109.836 162.091 104.123 161.052 98.6323 158.965C97.1901 158.416 95.7747 157.799 94.3961 157.117C94.3884 157.113 94.3802 157.109 94.3727 157.105C94.3562 157.097 94.3392 157.089 94.3227 157.08C94.3098 157.074 94.2962 157.068 94.2833 157.061C94.2328 157.036 94.1822 157.011 94.131 156.985C94.1027 156.971 94.0739 156.956 94.0452 156.942C94.0424 156.94 94.0388 156.938 94.0352 156.937C93.2144 156.522 92.4067 156.084 91.6134 155.625C91.59 155.611 91.5663 155.597 91.5429 155.583C91.4811 155.547 91.4188 155.511 91.3571 155.475C91.353 155.472 91.3483 155.469 91.3435 155.467C90.7556 155.12 90.1757 154.762 89.6048 154.392L90.5878 152.876C93.2989 154.636 96.2216 156.116 99.2742 157.276C99.8192 157.484 100.367 157.68 100.916 157.866C100.919 157.867 100.922 157.868 100.925 157.869C100.939 157.874 100.953 157.878 100.968 157.883C100.969 157.884 100.972 157.885 100.972 157.885C100.983 157.888 100.99 157.891 100.999 157.894C108.031 160.256 115.396 160.864 122.572 159.733C122.574 159.732 122.575 159.732 122.575 159.732C122.588 159.73 122.6 159.728 122.61 159.727C122.64 159.722 122.67 159.717 122.7 159.712L122.702 159.712C122.724 159.708 122.746 159.705 122.768 159.701C122.771 159.701 122.773 159.7 122.776 159.7C126.341 159.121 129.86 158.112 133.265 156.676C133.292 156.665 133.319 156.654 133.345 156.642C133.467 156.59 133.59 156.538 133.713 156.485C133.895 156.406 134.076 156.326 134.258 156.244C145.399 151.239 153.925 142.195 158.265 130.778C160.29 125.449 161.25 119.973 161.251 114.584C161.251 96.1374 150.008 78.7196 131.767 71.7865C108.199 62.8282 81.7347 74.7156 72.776 98.2848C70.791 103.507 69.7851 109.017 69.7839 114.54C69.7833 117.213 70.0178 119.889 70.4912 122.536L68.7131 122.853C68.221 120.101 67.977 117.319 67.9775 114.541C67.9788 108.8 69.0246 103.071 71.0871 97.6433C80.3998 73.143 107.904 60.7859 132.408 70.098C151.37 77.3052 163.058 95.4111 163.057 114.586C163.056 120.188 162.058 125.88 159.954 131.419C155.443 143.287 146.58 152.689 134.998 157.892C128.774 160.688 122.164 162.091 115.54 162.091Z" fill="#BDD0FB"/>
<path d="M211.667 88.1039L220.564 86.5813C223.38 89.7181 226.717 92.4287 230.495 94.5615L230.93 103.572C230.945 103.888 231.159 104.16 231.463 104.249L241.857 107.281C242.161 107.37 242.487 107.256 242.67 106.998L247.882 99.6343C252.214 99.8673 256.484 99.3766 260.545 98.2461L267.228 104.314C267.463 104.527 267.806 104.568 268.083 104.416L277.578 99.2102C277.855 99.0578 278.006 98.7465 277.952 98.4346L276.43 89.5371C279.567 86.7208 282.277 83.384 284.41 79.6064L293.421 79.1719C293.737 79.1567 294.008 78.9425 294.097 78.6387L297.129 68.2443C297.218 67.9405 297.104 67.614 296.846 67.4312L289.482 62.2195C289.716 57.8874 289.225 53.6169 288.094 49.5556L294.162 42.8724C294.375 42.6383 294.416 42.2949 294.264 42.0174L289.058 32.5233C288.906 32.2456 288.594 32.0954 288.282 32.1488L279.385 33.6712C276.569 30.5342 273.232 27.824 269.454 25.6911L269.02 16.6803C269.004 16.3644 268.79 16.0928 268.487 16.0042L258.092 12.9717C257.788 12.8831 257.462 12.997 257.279 13.2551L252.068 20.6186C247.735 20.3853 243.465 20.8762 239.403 22.0067L232.721 15.9386C232.487 15.7258 232.143 15.6853 231.865 15.8373L222.371 21.0429C222.094 21.1949 221.943 21.5064 221.997 21.8182L223.519 30.7157C220.382 33.5319 217.672 36.8688 215.539 40.6465L206.528 41.0812C206.213 41.0962 205.941 41.3105 205.852 41.6141L202.82 52.0084C202.731 52.3122 202.845 52.6387 203.103 52.8217L210.466 58.0333C210.233 62.3653 210.724 66.636 211.854 70.6972L205.786 77.3802C205.574 77.6146 205.533 77.9577 205.685 78.2354L210.891 87.7296C211.043 88.0067 211.355 88.1571 211.667 88.1039Z" fill="#91B3FA"/>
<path d="M249.979 70.6438C249.85 70.6438 249.72 70.6415 249.59 70.6369C243.794 70.4245 239.253 65.5369 239.464 59.7415C239.567 56.9341 240.756 54.3347 242.815 52.4221C244.873 50.5094 247.572 49.5187 250.36 49.6158C256.155 49.8281 260.697 54.7157 260.485 60.5108C260.278 66.1757 255.602 70.6438 249.979 70.6438ZM249.656 68.8316C249.763 68.8354 249.871 68.8375 249.978 68.8375C254.636 68.8375 258.508 65.137 258.68 60.4445C258.856 55.6444 255.094 51.5964 250.294 51.4206C247.97 51.3309 245.75 52.1609 244.044 53.745C242.34 55.329 241.354 57.4821 241.269 59.8072C241.093 64.6075 244.856 68.6558 249.656 68.8316Z" fill="#BDD0FB"/>
<path d="M194.83 78.8663C194.578 78.8663 194.342 78.7055 194.258 78.4524C194.006 77.6837 193.766 76.9014 193.546 76.1264C193.456 75.8065 193.642 75.4737 193.962 75.3833C194.28 75.2923 194.614 75.478 194.705 75.7984C194.92 76.5569 195.154 77.323 195.402 78.0756C195.506 78.3915 195.334 78.7317 195.018 78.8359C194.956 78.8563 194.893 78.8663 194.83 78.8663Z" fill="#BDD0FB"/>
<path d="M192.477 68.6882C192.18 68.6882 191.922 68.4698 191.881 68.1682C191.654 66.521 191.497 64.8441 191.412 63.1841C191.395 62.8522 191.651 62.5692 191.983 62.5523C192.299 62.5344 192.598 62.7908 192.615 63.1229C192.698 64.7489 192.852 66.391 193.074 68.004C193.119 68.3336 192.889 68.6372 192.559 68.6825C192.531 68.6865 192.504 68.6882 192.477 68.6882ZM192.153 55.7103C192.136 55.7103 192.119 55.7098 192.102 55.7084C191.77 55.6799 191.524 55.3883 191.553 55.0569C191.695 53.3979 191.91 51.7282 192.192 50.0939C192.248 49.7661 192.56 49.5451 192.887 49.6031C193.215 49.6594 193.435 49.9708 193.378 50.2986C193.102 51.899 192.892 53.5347 192.753 55.1597C192.725 55.4733 192.463 55.7103 192.153 55.7103ZM194.697 42.9847C194.636 42.9847 194.574 42.9752 194.513 42.9555C194.196 42.854 194.022 42.5155 194.124 42.1984C194.631 40.6143 195.212 39.0341 195.853 37.5018C195.981 37.195 196.335 37.0512 196.641 37.1785C196.947 37.3067 197.092 37.6595 196.964 37.9664C196.337 39.4669 195.767 41.0144 195.27 42.566C195.188 42.8216 194.952 42.9847 194.697 42.9847ZM200.023 31.1448C199.918 31.1448 199.813 31.1178 199.716 31.0605C199.431 30.891 199.336 30.5216 199.506 30.2356C200.354 28.8063 201.274 27.3958 202.242 26.0431C202.435 25.7726 202.81 25.7103 203.082 25.9034C203.352 26.097 203.414 26.4729 203.221 26.7434C202.274 28.0683 201.372 29.45 200.542 30.85C200.429 31.0395 200.229 31.1448 200.023 31.1448ZM207.853 20.7888C207.704 20.7888 207.555 20.7341 207.439 20.6236C207.198 20.3948 207.188 20.0135 207.416 19.7725C208.56 18.5667 209.77 17.3952 211.012 16.2906C211.26 16.0695 211.641 16.0915 211.862 16.3404C212.083 16.5888 212.06 16.9694 211.812 17.1902C210.595 18.2723 209.411 19.4197 208.29 20.6009C208.172 20.726 208.012 20.7888 207.853 20.7888ZM217.777 12.423C217.582 12.423 217.392 12.3292 217.276 12.1556C217.091 11.879 217.165 11.505 217.442 11.3205C218.826 10.3956 220.265 9.52076 221.718 8.72018C222.01 8.55995 222.375 8.66522 222.536 8.9572C222.696 9.24829 222.59 9.61456 222.299 9.77496C220.876 10.5591 219.467 11.4157 218.111 12.3217C218.008 12.3903 217.892 12.423 217.777 12.423ZM272.236 7.09324C272.159 7.09324 272.081 7.07821 272.005 7.04706C270.5 6.4221 268.951 5.85585 267.4 5.36337C267.083 5.26276 266.908 4.92423 267.009 4.60719C267.109 4.2905 267.445 4.11595 267.765 4.21567C269.348 4.71836 270.93 5.29695 272.467 5.93462C272.774 6.06226 272.92 6.41439 272.792 6.72159C272.696 6.95342 272.472 7.09324 272.236 7.09324ZM229.302 6.46739C229.06 6.46739 228.831 6.31987 228.739 6.07963C228.621 5.7692 228.776 5.42119 229.087 5.30268C230.638 4.7103 232.235 4.17825 233.833 3.72103C234.152 3.62866 234.486 3.81448 234.577 4.13439C234.669 4.45394 234.483 4.78728 234.164 4.87876C232.6 5.32649 231.036 5.8478 229.516 6.42747C229.446 6.4545 229.374 6.46739 229.302 6.46739ZM259.762 3.49672C259.728 3.49672 259.695 3.49404 259.66 3.48813C258.061 3.21656 256.424 3.01015 254.796 2.87463C254.464 2.84706 254.218 2.55597 254.246 2.2246C254.273 1.89359 254.562 1.64601 254.896 1.67447C256.558 1.81286 258.229 2.02338 259.861 2.30086C260.19 2.35636 260.41 2.6675 260.355 2.99529C260.305 3.28924 260.05 3.49672 259.762 3.49672ZM241.868 3.23392C241.572 3.23392 241.314 3.01641 241.272 2.7153C241.226 2.38608 241.456 2.08174 241.785 2.03556C243.428 1.80569 245.103 1.64368 246.766 1.55435C247.093 1.53931 247.381 1.79066 247.4 2.12328C247.418 2.45518 247.163 2.73893 246.831 2.75683C245.202 2.84437 243.561 3.00298 241.952 3.22801C241.924 3.23231 241.895 3.23392 241.868 3.23392Z" fill="#BDD0FB"/>
<path d="M281.519 11.9787C281.406 11.9787 281.293 11.9476 281.192 11.8817C280.528 11.4514 279.847 11.0294 279.167 10.6282C278.881 10.4589 278.786 10.0899 278.955 9.80364C279.124 9.51757 279.493 9.42179 279.78 9.59132C280.474 10.0011 281.169 10.4322 281.847 10.8715C282.126 11.0523 282.205 11.4254 282.024 11.7043C281.909 11.8819 281.716 11.9787 281.519 11.9787Z" fill="#BDD0FB"/>
<path d="M306.975 49.6509C306.692 49.6509 306.44 49.4509 306.385 49.1632C306.233 48.383 306.065 47.5995 305.884 46.834C305.807 46.5107 306.006 46.1861 306.33 46.1093C306.651 46.0332 306.978 46.233 307.055 46.5565C307.24 47.3379 307.412 48.1378 307.566 48.9344C307.63 49.2608 307.416 49.5767 307.09 49.6399C307.051 49.6473 307.013 49.6509 306.975 49.6509Z" fill="#BDD0FB"/>
<path d="M250.02 118.765H249.918C249.585 118.765 249.316 118.495 249.316 118.163C249.316 117.83 249.585 117.561 249.918 117.561H250.02C251.591 117.561 253.179 117.496 254.738 117.369C255.083 117.341 255.361 117.588 255.388 117.919C255.415 118.251 255.168 118.542 254.837 118.569C253.245 118.699 251.624 118.765 250.02 118.765ZM242.018 118.22C241.991 118.22 241.963 118.218 241.935 118.214C240.31 117.991 238.679 117.697 237.088 117.34C236.763 117.267 236.559 116.945 236.632 116.621C236.705 116.296 237.029 116.091 237.351 116.165C238.91 116.514 240.508 116.803 242.099 117.021C242.429 117.066 242.659 117.37 242.614 117.7C242.572 118.001 242.314 118.22 242.018 118.22ZM262.612 117.387C262.336 117.387 262.087 117.197 262.025 116.916C261.953 116.591 262.157 116.27 262.482 116.198C264.045 115.85 265.613 115.432 267.141 114.953C267.46 114.855 267.796 115.031 267.896 115.348C267.995 115.666 267.819 116.003 267.501 116.103C265.94 116.591 264.339 117.019 262.743 117.373C262.699 117.383 262.655 117.387 262.612 117.387ZM229.63 115.096C229.56 115.096 229.488 115.084 229.418 115.058C227.887 114.485 226.361 113.839 224.882 113.138C224.581 112.996 224.453 112.637 224.596 112.336C224.739 112.036 225.097 111.908 225.398 112.05C226.846 112.736 228.341 113.369 229.841 113.93C230.152 114.047 230.31 114.394 230.193 114.705C230.103 114.947 229.874 115.096 229.63 115.096ZM274.697 113.253C274.471 113.253 274.254 113.125 274.152 112.908C274.01 112.607 274.139 112.248 274.439 112.107C275.886 111.424 277.324 110.671 278.711 109.868C278.999 109.701 279.367 109.8 279.533 110.088C279.7 110.376 279.601 110.744 279.314 110.911C277.898 111.73 276.431 112.499 274.953 113.196C274.87 113.235 274.783 113.253 274.697 113.253ZM285.577 106.571C285.397 106.571 285.219 106.491 285.101 106.338C284.897 106.076 284.944 105.698 285.207 105.493C286.47 104.512 287.709 103.464 288.889 102.377C289.134 102.153 289.514 102.168 289.739 102.413C289.965 102.657 289.949 103.038 289.705 103.263C288.499 104.372 287.235 105.442 285.945 106.444C285.836 106.53 285.706 106.571 285.577 106.571ZM294.744 97.6774C294.609 97.6774 294.473 97.6321 294.361 97.5392C294.105 97.3276 294.068 96.9481 294.28 96.6917C295.3 95.4579 296.281 94.1647 297.196 92.8483C297.386 92.5752 297.761 92.5082 298.034 92.6976C298.307 92.8875 298.375 93.2626 298.185 93.5358C297.251 94.8795 296.25 96.1994 295.208 97.4592C295.089 97.6029 294.917 97.6774 294.744 97.6774ZM301.754 86.9972C301.662 86.9972 301.569 86.9763 301.482 86.9317C301.185 86.781 301.067 86.4185 301.217 86.1222C301.944 84.6957 302.617 83.2188 303.221 81.7328C303.347 81.4242 303.699 81.2768 304.005 81.4012C304.313 81.5266 304.462 81.8774 304.337 82.1855C303.721 83.7033 303.032 85.2115 302.291 86.6684C302.185 86.8769 301.973 86.9972 301.754 86.9972ZM306.248 75.034C306.199 75.034 306.149 75.0277 306.099 75.0152C305.777 74.9338 305.581 74.6063 305.663 74.2837C306.056 72.7313 306.388 71.1428 306.65 69.5633C306.704 69.2355 307.005 69.0153 307.342 69.0674C307.67 69.1219 307.892 69.4317 307.837 69.7597C307.571 71.3725 307.232 72.9941 306.831 74.5795C306.761 74.8523 306.516 75.034 306.248 75.034ZM308.004 62.3852C307.998 62.3852 307.992 62.3852 307.987 62.3848C307.654 62.3757 307.393 62.0985 307.402 61.7663C307.417 61.2036 307.426 60.6428 307.426 60.0835C307.426 59.0375 307.397 57.9804 307.34 56.9408C307.323 56.6085 307.577 56.325 307.91 56.3071C308.225 56.2884 308.525 56.5432 308.543 56.8756C308.6 57.9367 308.63 59.016 308.63 60.0835C308.63 60.6538 308.622 61.2258 308.606 61.7998C308.596 62.1265 308.329 62.3852 308.004 62.3852Z" fill="#BDD0FB"/>
<path d="M218.206 109.305C218.093 109.305 217.979 109.273 217.876 109.206C217.196 108.76 216.522 108.298 215.871 107.832C215.601 107.638 215.539 107.262 215.733 106.991C215.926 106.722 216.303 106.659 216.572 106.853C217.21 107.31 217.871 107.763 218.537 108.199C218.815 108.382 218.892 108.755 218.71 109.033C218.595 109.209 218.402 109.305 218.206 109.305Z" fill="#BDD0FB"/>
<path d="M250.204 87.0416C247.662 87.0419 245.105 86.6794 242.596 85.9474C242.287 85.8572 241.98 85.7616 241.674 85.6604C241.67 85.6592 241.666 85.6581 241.663 85.6569C241.639 85.649 241.615 85.6409 241.591 85.6327C241.586 85.6309 241.58 85.6291 241.574 85.6273L241.573 85.6268C240.478 85.2601 239.408 84.8248 238.373 84.3248C238.327 84.3028 238.281 84.2804 238.235 84.2578C238.187 84.234 238.138 84.2098 238.09 84.186C238.073 84.1774 238.056 84.1692 238.04 84.1608C237.906 84.0938 237.773 84.0258 237.64 83.9567C237.517 83.8926 237.395 83.8276 237.274 83.7621L238.133 82.1735C239.703 83.0233 241.375 83.7095 243.102 84.2134C243.385 84.296 243.669 84.3736 243.954 84.4463L243.956 84.4467C243.969 84.4503 243.982 84.4535 243.995 84.4569C247.828 85.4274 251.762 85.4846 255.538 84.6565C257.87 84.145 260.142 83.2963 262.293 82.1166C268.201 78.8775 272.494 73.5315 274.38 67.0638C275.063 64.7235 275.402 62.3378 275.402 59.966C275.402 55.7827 274.351 51.6426 272.284 47.8723C269.045 41.9646 263.699 37.6719 257.231 35.7848C243.876 31.8876 229.847 39.5827 225.952 52.9343C225.277 55.2494 224.939 57.6355 224.939 60.0192C224.939 62.1554 225.211 64.2897 225.756 66.3688L224.009 66.8268C223.425 64.5978 223.134 62.3105 223.133 60.021C223.132 57.4663 223.494 54.9092 224.217 52.4287C228.393 38.1205 243.432 29.8772 257.737 34.051C264.667 36.0731 270.397 40.6735 273.867 47.0042C276.083 51.0443 277.209 55.4807 277.209 59.9637C277.209 62.5054 276.846 65.0618 276.114 67.5694C274.092 74.5005 269.492 80.2291 263.161 83.7002C259.123 85.915 254.686 87.0416 250.204 87.0416Z" fill="#BDD0FB"/>
<path d="M277.998 292.268C334.415 306.89 367.469 346.166 383.79 350.117C400.112 354.067 465.512 357.603 476.162 367.916C486.812 378.228 476.612 385.585 490.305 398.845C505.409 443.447 458.417 456.873 458.417 456.873L31.4349 453.925C31.4349 453.925 2.61712 456.671 2.01114 435.22C1.40498 413.768 8.42168 402.921 9.96412 383.6C11.5064 364.278 11.5417 363.306 15.6835 353.281C19.8255 343.257 59.9117 342.106 67.7297 330.951C75.5475 319.797 84.8616 302.012 117.969 295.902C163.697 287.462 245.274 283.785 277.998 292.268Z" fill="url(#paint24_linear_5_610)"/>
<path d="M0 431.213C0.830117 458.583 40.9183 453.896 41.093 453.879C41.093 453.879 72.8787 425.77 29.0197 426.676C15.8372 426.229 2.44542 418.097 2.44542 418.097L0 431.213Z" fill="url(#paint25_linear_5_610)"/>
<path d="M493.06 405.522C493.06 405.522 493.504 412.504 482.226 419.587C468.247 428.368 419.566 418.455 419.566 418.455L414.142 454.647L460 457.538C458.93 457.872 520.195 454.035 493.06 405.522Z" fill="url(#paint26_linear_5_610)"/>
<path d="M75.0294 359.911C75.0294 359.911 73.6538 349.17 84.9362 336.003C96.2188 322.835 102.805 314.15 111.481 311.914C120.157 309.677 183.661 300.891 187.832 307.65C192.002 314.408 197.375 355.902 197.375 355.902L75.0294 359.911Z" fill="url(#paint27_linear_5_610)"/>
<path d="M112.633 310.778C119.747 309.719 173.762 303.438 187.709 305.23L191.318 319.114L74.9752 359.905C74.9752 359.905 74.4202 351.065 80.2321 342.35C89.9968 327.708 105.195 311.714 112.633 310.778Z" fill="url(#paint28_linear_5_610)"/>
<path d="M206.827 307.64C208.586 315.659 215.067 354.753 215.067 354.753L352.381 354.119C352.381 354.119 309.096 314.342 275.822 308.046C242.547 301.75 205.703 303.401 206.827 307.64Z" fill="url(#paint29_linear_5_610)"/>
<path d="M271.127 305.095C244.022 301.333 234.085 302.047 205.674 304.534L208.41 315.899C208.41 315.899 250.695 307.605 290.095 312.4C290.095 312.4 279.975 306.323 271.127 305.095Z" fill="url(#paint30_linear_5_610)"/>
<path d="M473.101 362.956C473.101 362.956 450.854 355.824 445.427 373.412C440.253 390.178 490.454 394.691 490.454 394.691C490.454 394.691 486.753 369.818 473.101 362.956Z" fill="url(#paint31_linear_5_610)"/>
<path d="M67.4303 340.908C67.554 340.908 67.6788 340.891 67.8038 340.853C73.0278 339.275 77.4281 333.772 82.5235 327.4C89.9642 318.095 98.3987 307.547 112.152 304.923C138.53 299.888 178.512 296.4 178.913 296.365C179.624 296.303 180.15 295.677 180.089 294.967C180.028 294.255 179.426 293.723 178.691 293.791C178.288 293.825 138.173 297.326 111.668 302.385C96.9769 305.189 87.8433 316.61 80.5049 325.787C75.6794 331.822 71.5113 337.033 67.0569 338.38C66.3732 338.586 65.9871 339.308 66.194 339.99C66.3632 340.549 66.8754 340.908 67.4303 340.908Z" fill="white"/>
<path d="M26.5437 355.552C27.0194 355.552 27.4773 355.289 27.7018 354.834C29.8692 350.466 39.4631 348.485 48.7405 346.57C52.0597 345.885 55.491 345.177 58.6462 344.351C59.3374 344.169 59.75 343.464 59.5696 342.774C59.3879 342.083 58.6827 341.678 57.9928 341.851C54.902 342.66 51.5045 343.362 48.2184 344.039C37.8789 346.174 28.1132 348.19 25.3883 353.686C25.0704 354.326 25.3316 355.1 25.971 355.417C26.1551 355.509 26.3507 355.552 26.5437 355.552Z" fill="white"/>
<path d="M97.187 490.757C119.9 490.757 138.312 472.345 138.312 449.632C138.312 426.919 119.9 408.506 97.187 408.506C74.474 408.506 56.0615 426.919 56.0615 449.632C56.0615 472.345 74.474 490.757 97.187 490.757Z" fill="url(#paint32_linear_5_610)"/>
<path d="M122.973 449.842C122.599 464.329 110.552 475.769 96.0657 475.394C81.5794 475.02 70.1395 462.973 70.5138 448.487C70.888 434.001 82.9346 422.561 97.4209 422.935C111.907 423.31 123.347 435.356 122.973 449.842Z" fill="url(#paint33_linear_5_610)"/>
<path d="M390.63 488.221C413.343 488.221 431.756 469.809 431.756 447.096C431.756 424.383 413.343 405.97 390.63 405.97C367.917 405.97 349.505 424.383 349.505 447.096C349.505 469.809 367.917 488.221 390.63 488.221Z" fill="url(#paint34_linear_5_610)"/>
<path d="M416.416 447.307C416.042 461.793 403.995 473.233 389.509 472.858C375.023 472.484 363.583 460.438 363.957 445.951C364.332 431.465 376.378 420.025 390.864 420.4C405.351 420.774 416.791 432.821 416.416 447.307Z" fill="url(#paint35_linear_5_610)"/>
<path opacity="0.7" d="M215.208 444.313C215.251 444.313 215.293 444.313 215.336 444.313C216.086 444.313 216.686 443.645 216.676 442.895C216.669 442.351 216.343 441.866 215.879 441.655C213.206 437.353 209.736 390.848 208.158 362.182C208.117 361.433 207.476 360.85 206.727 360.896C205.978 360.937 205.404 361.575 205.445 362.325C205.457 362.526 206.575 382.781 208.178 402.731C211.439 443.335 213.449 444.313 215.208 444.313Z" fill="white"/>
<path d="M344.35 374.752C344.35 369.611 340.182 365.443 335.04 365.443H307.3C302.159 365.443 297.991 369.611 297.991 374.752V374.797C297.991 379.938 302.159 384.107 307.3 384.107H335.04C340.182 384.107 344.35 379.939 344.35 374.797V374.752Z" fill="url(#paint36_linear_5_610)"/>
<path d="M193.462 268.978L186.941 277.917C175.731 278.661 166.664 276.619 159.419 273.332C161.751 262.913 164.795 256.461 167.376 252.549C180.015 265.319 193.462 268.978 193.462 268.978Z" fill="url(#paint37_linear_5_610)"/>
<path d="M134.653 249.143L148.309 217.454C152.159 233.439 159.616 244.709 167.376 252.549C164.795 256.461 161.751 262.913 159.419 273.332C141.339 265.13 134.653 249.143 134.653 249.143Z" fill="url(#paint38_linear_5_610)"/>
<path d="M120.403 496.078C129.673 496.504 138.645 496.236 144.635 495.928C139.181 492.046 126.615 483.599 116.1 480.237L108.882 479.805C108.882 479.805 106.436 483.525 105.563 492.037C106.76 493.529 110.256 495.611 120.403 496.078Z" fill="url(#paint39_linear_5_610)"/>
<path d="M144.71 495.981C144.686 495.964 144.66 495.946 144.636 495.928C138.645 496.236 129.673 496.504 120.403 496.078C110.256 495.611 106.76 493.53 105.563 492.037C105.523 492.429 105.482 492.818 105.449 493.231C105.299 495.099 106.686 496.739 108.554 496.881C116.146 497.455 134.968 498.754 144.045 498.278C145.242 498.216 145.686 496.677 144.71 495.981Z" fill="#7D97F4"/>
<path d="M55.5166 493.597C54.8377 489.245 53.7493 482.954 52.9083 481.346C51.5887 478.823 47.072 481.346 47.072 481.346C47.072 481.346 43.9012 482.825 42.4418 485.289C41.5116 486.86 38.9389 491.33 37.1958 494.364C36.9951 494.713 36.9117 495.085 36.9223 495.445L55.0078 496.078C55.4502 495.368 55.6578 494.503 55.5166 493.597Z" fill="url(#paint40_linear_5_610)"/>
<path d="M36.9224 495.445C36.9526 496.478 37.7713 497.415 38.9267 497.447L51.8113 497.801C53.1728 497.839 54.3514 497.131 55.0081 496.078L36.9224 495.445Z" fill="#7D97F4"/>
<path d="M162.368 213.702C150.835 210.681 129.562 205.95 112.627 206.959C108.737 207.191 105.62 210.267 105.4 214.157C102.841 259.26 99.3455 299.284 92.7622 322.571C107.56 328.426 122.23 331.143 136.703 329.016C147.545 305.792 157.025 278.981 165.124 248.534C165.124 248.534 169.876 224.249 165.262 216.154C164.543 214.892 163.596 214.024 162.368 213.702Z" fill="url(#paint41_linear_5_610)"/>
<path d="M134.628 182.107C134.628 182.107 131.716 199.481 130.847 207.516C130.706 208.822 131.389 210.056 132.557 210.657C135.74 212.296 142.535 214.935 149.939 212.513C151.158 212.114 151.958 210.934 151.929 209.652L151.422 186.457L134.628 182.107Z" fill="url(#paint42_linear_5_610)"/>
<path d="M153.622 162.857C153.622 162.857 159.241 175.765 159.618 182.54C159.995 189.315 161.455 193.711 153.622 195.075C145.788 196.439 139.189 192.537 135.614 185.788C135.614 185.788 130.013 175.389 131.269 171.131C132.526 166.872 153.622 162.857 153.622 162.857Z" fill="url(#paint43_linear_5_610)"/>
<path d="M138.291 180.936H139.281C139.281 180.936 135.201 172.567 138.786 171.096C142.371 169.626 153.344 169.643 156.408 164.604C159.362 159.746 151.56 156.762 147.618 155.006C147.369 154.895 152.305 154.255 152.178 154.496L152.99 153.893C152.766 154.316 150.176 152.31 150.043 151.851C149.917 151.415 146.849 149.54 146.609 149.925C145.671 151.432 149.605 153.378 142.793 154.635C133.127 156.419 126.738 160.331 126.58 167.011C126.57 167.434 126.118 167.667 125.757 167.447C125.043 167.012 127.879 166.809 126.353 168.093C125.262 169.01 124.568 170.082 124.403 171.509C124.21 173.174 125.452 175.223 126.614 176.318C127.299 176.965 127.672 177.819 127.653 178.763C127.633 179.731 127.07 180.513 126.955 181.448C126.807 182.648 127.999 183.475 128.911 183.999C130.186 184.732 131.45 185.487 132.668 186.313C133.35 186.776 134.717 188.2 135.612 187.971C135.862 187.907 136.031 187.679 136.015 187.421L135.649 181.501C135.63 181.195 135.873 180.936 136.18 180.936H138.291V180.936Z" fill="url(#paint44_linear_5_610)"/>
<path d="M138.534 182.175C138.534 182.175 136.391 173.93 132.694 176.241C128.997 178.553 134.612 185.48 137.584 185.788L138.534 182.175Z" fill="url(#paint45_linear_5_610)"/>
<path d="M75.5559 273.773C69.8525 289.774 73.0645 306.929 73.0645 306.929L65.5467 308.934C65.5467 308.934 55.8345 297.382 58.0565 271.749C64.9957 270.69 71.4952 272.316 75.5559 273.773Z" fill="url(#paint46_linear_5_610)"/>
<path d="M58.0566 271.749C58.3062 268.867 58.6993 265.816 59.2819 262.574C64.3616 234.303 100.605 212.557 109.133 207.795C109.926 207.352 110.891 207.95 110.862 208.857L109.651 247.288C89.4661 250.001 79.9125 261.55 75.5561 273.773C71.4953 272.316 64.9958 270.69 58.0566 271.749Z" fill="url(#paint47_linear_5_610)"/>
<path d="M211.989 271.946C213.316 271.334 214.285 270.16 214.657 268.747C215.379 266.009 215.993 261.71 213.049 260.913C208.665 259.726 202.49 268.544 202.49 268.544L199.826 275.012L196.775 277.167C199.949 277.506 205.577 275.155 211.989 271.946Z" fill="url(#paint48_linear_5_610)"/>
<path d="M125.372 174.401C129.966 173.147 134.558 171.877 139.138 170.571C146.957 168.343 154.907 166.375 162.627 163.823C164.27 163.28 165.912 162.757 167.571 162.267C168.566 161.973 169.803 161.475 170.474 160.645C171.205 159.742 170.896 158.375 169.639 158.33C167.476 158.253 165.238 158.549 163.116 158.918C162.505 159.025 156.46 160.165 156.477 160.277C156.475 160.267 154.176 144.398 136.222 149.93C114.59 156.596 122.685 175.832 125.372 174.401Z" fill="url(#paint49_linear_5_610)"/>
<path d="M136.703 329.487C136.256 331.824 120.465 430.666 119.507 481.812C119.491 482.669 118.902 483.389 118.111 483.507C116.106 483.807 112.202 484.193 108.417 483.439C107.899 483.336 107.508 482.878 107.475 482.313C106.924 472.782 102.485 392.197 107.921 354.261C107.921 354.261 63.0223 455.668 56.2165 483.63C56.0509 484.31 55.4691 484.768 54.8148 484.731C52.8918 484.622 48.893 484.25 45.7177 482.996C44.5797 482.547 43.9314 481.263 44.2188 479.999C48.0212 463.265 74.6694 347.972 92.7626 322.57L136.703 329.487Z" fill="url(#paint50_linear_5_610)"/>
<path opacity="0.25" d="M107.921 352.69C107.772 352.69 107.624 352.635 107.509 352.522C107.276 352.295 107.272 351.922 107.5 351.689L113.512 345.541C113.739 345.308 114.113 345.304 114.345 345.532C114.578 345.759 114.582 346.133 114.354 346.365L108.342 352.513C108.227 352.631 108.074 352.69 107.921 352.69Z" fill="url(#paint51_linear_5_610)"/>
<path d="M136.06 330.54L152.48 291.652L155.2 247.772L121.647 244.736C114.287 257.839 106.675 269.882 98.4473 279.35C98.1022 279.747 97.8539 280.215 97.7225 280.724L87.2236 321.424L136.06 330.54Z" fill="url(#paint52_linear_5_610)"/>
<path d="M155.2 247.772C158.758 237.476 159.973 226.767 162.368 213.702C159.022 211.588 157.855 210.593 154.636 211.316C152.44 224.419 150.141 236.828 147.26 248.257L155.2 247.772Z" fill="url(#paint53_linear_5_610)"/>
<path d="M128.469 245.393C128.419 232.695 128.26 219.833 125.617 206.821C121.446 206.055 119.646 205.729 116.787 206.821C119.984 220.684 120.023 234.313 121.647 246.733L128.469 245.393Z" fill="url(#paint54_linear_5_610)"/>
<path d="M29.8518 331.87L233.325 219.854L245.514 239.896L52.4526 369.033C52.022 369.321 51.5847 369.6 51.142 369.869L44.4541 373.936C32.978 380.916 19.8603 380.301 15.1546 372.563L9.56 363.363C4.85427 355.626 10.3425 343.695 21.8186 336.716L28.5064 332.649C28.9492 332.38 29.3981 332.12 29.8518 331.87ZM24.7053 360.453C27.8274 365.587 37.3629 365.49 46.003 360.235C54.6431 354.981 59.1162 346.559 55.9941 341.425C52.8718 336.291 43.3367 336.389 34.6964 341.643C26.0564 346.898 21.5832 355.319 24.7053 360.453Z" fill="#91B3FA"/>
<path d="M294.936 168.543L256.13 192.143C253.367 193.823 251.541 196.69 251.186 199.905L249.368 216.381C248.849 221.084 251.563 225.547 255.977 227.249L271.443 233.214C274.461 234.378 277.847 234.075 280.61 232.395L319.415 208.795C325.268 205.236 332.702 210.2 331.498 216.944C328.618 233.077 318.857 248.143 303.417 257.533C275.51 274.505 243.079 264.419 226.755 237.577C210.431 210.734 216.395 177.3 244.301 160.328C259.741 150.938 277.609 149.202 293.259 154.066C299.801 156.1 300.789 164.983 294.936 168.543Z" fill="#91B3FA"/>
<path d="M297.16 172.2L258.355 195.8C255.592 197.48 253.765 200.347 253.41 203.562L251.592 220.038C251.073 224.741 253.787 229.204 258.202 230.906L273.667 236.871C276.685 238.035 280.071 237.732 282.834 236.052L321.639 212.452C327.492 208.893 334.926 213.857 333.722 220.601C330.842 236.734 321.081 251.801 305.641 261.19C277.734 278.162 245.304 268.076 228.979 241.234C212.655 214.392 218.619 180.957 246.525 163.985C261.965 154.595 279.833 152.859 295.483 157.723C302.025 159.757 303.013 168.64 297.16 172.2Z" fill="#BDD0FB"/>
<path d="M31.6264 334.787L235.1 222.771L247.288 242.813L54.227 371.95C53.7964 372.238 53.3593 372.517 52.9164 372.786L46.2285 376.854C34.7524 383.833 21.6347 383.218 16.929 375.48L11.3344 366.281C6.62868 358.543 12.1169 346.613 23.5932 339.633L30.281 335.566C30.7238 335.297 31.1727 335.037 31.6264 334.787ZM26.4797 363.371C29.602 368.505 39.1372 368.407 47.7774 363.152C56.4177 357.898 60.8908 349.476 57.7685 344.342C54.6462 339.208 45.1111 339.306 36.4708 344.561C27.8308 349.815 23.3576 358.237 26.4797 363.371Z" fill="#BDD0FB"/>
<path d="M72.5629 303.17H81.8575C81.8575 303.17 74.3173 307.692 74.0669 312.448C73.8162 317.203 77.0603 327.054 78.5775 329.736C80.2368 332.668 57.5306 325.369 65.5466 303.17H72.5629Z" fill="#F97C08"/>
<defs>
<linearGradient id="paint0_linear_5_610" x1="529.488" y1="566.099" x2="162.368" y2="169.843" gradientUnits="userSpaceOnUse">
<stop stop-color="#DAE3FE"/>
<stop offset="1" stop-color="#E9EFFD"/>
</linearGradient>
<linearGradient id="paint1_linear_5_610" x1="151.755" y1="226.007" x2="492.723" y2="226.007" gradientUnits="userSpaceOnUse">
<stop stop-color="#4F52FF"/>
<stop offset="1" stop-color="#4042E2"/>
</linearGradient>
<linearGradient id="paint2_linear_5_610" x1="433.429" y1="-121.221" x2="387.374" y2="-4.72711" gradientUnits="userSpaceOnUse">
<stop stop-color="#09005D"/>
<stop offset="1" stop-color="#1A0F91"/>
</linearGradient>
<linearGradient id="paint3_linear_5_610" x1="391.223" y1="-92.4378" x2="354.197" y2="15.9285" gradientUnits="userSpaceOnUse">
<stop stop-color="#09005D"/>
<stop offset="1" stop-color="#1A0F91"/>
</linearGradient>
<linearGradient id="paint4_linear_5_610" x1="169.938" y1="415.161" x2="237.249" y2="-416.199" gradientUnits="userSpaceOnUse">
<stop stop-color="#4F52FF"/>
<stop offset="1" stop-color="#4042E2"/>
</linearGradient>
<linearGradient id="paint5_linear_5_610" x1="222.901" y1="419.45" x2="290.213" y2="-411.91" gradientUnits="userSpaceOnUse">
<stop stop-color="#4F52FF"/>
<stop offset="1" stop-color="#4042E2"/>
</linearGradient>
<linearGradient id="paint6_linear_5_610" x1="275.865" y1="423.738" x2="343.177" y2="-407.622" gradientUnits="userSpaceOnUse">
<stop stop-color="#4F52FF"/>
<stop offset="1" stop-color="#4042E2"/>
</linearGradient>
<linearGradient id="paint7_linear_5_610" x1="328.829" y1="428.026" x2="396.141" y2="-403.334" gradientUnits="userSpaceOnUse">
<stop stop-color="#4F52FF"/>
<stop offset="1" stop-color="#4042E2"/>
</linearGradient>
<linearGradient id="paint8_linear_5_610" x1="381.793" y1="432.314" x2="449.105" y2="-399.046" gradientUnits="userSpaceOnUse">
<stop stop-color="#4F52FF"/>
<stop offset="1" stop-color="#4042E2"/>
</linearGradient>
<linearGradient id="paint9_linear_5_610" x1="434.757" y1="436.602" x2="502.068" y2="-394.757" gradientUnits="userSpaceOnUse">
<stop stop-color="#4F52FF"/>
<stop offset="1" stop-color="#4042E2"/>
</linearGradient>
<linearGradient id="paint10_linear_5_610" x1="200.926" y1="304.57" x2="442.46" y2="304.57" gradientUnits="userSpaceOnUse">
<stop stop-color="#09005D"/>
<stop offset="1" stop-color="#1A0F91"/>
</linearGradient>
<linearGradient id="paint11_linear_5_610" x1="322.31" y1="234.401" x2="322.92" y2="323.357" gradientUnits="userSpaceOnUse">
<stop stop-color="#4F52FF"/>
<stop offset="1" stop-color="#4042E2"/>
</linearGradient>
<linearGradient id="paint12_linear_5_610" x1="322.31" y1="247.646" x2="322.92" y2="336.603" gradientUnits="userSpaceOnUse">
<stop stop-color="#4F52FF"/>
<stop offset="1" stop-color="#4042E2"/>
</linearGradient>
<linearGradient id="paint13_linear_5_610" x1="322.31" y1="260.892" x2="322.92" y2="349.848" gradientUnits="userSpaceOnUse">
<stop stop-color="#4F52FF"/>
<stop offset="1" stop-color="#4042E2"/>
</linearGradient>
<linearGradient id="paint14_linear_5_610" x1="322.31" y1="274.137" x2="322.92" y2="363.094" gradientUnits="userSpaceOnUse">
<stop stop-color="#4F52FF"/>
<stop offset="1" stop-color="#4042E2"/>
</linearGradient>
<linearGradient id="paint15_linear_5_610" x1="322.305" y1="287.543" x2="322.963" y2="383.508" gradientUnits="userSpaceOnUse">
<stop stop-color="#4F52FF"/>
<stop offset="1" stop-color="#4042E2"/>
</linearGradient>
<linearGradient id="paint16_linear_5_610" x1="322.305" y1="300.788" x2="322.963" y2="396.753" gradientUnits="userSpaceOnUse">
<stop stop-color="#4F52FF"/>
<stop offset="1" stop-color="#4042E2"/>
</linearGradient>
<linearGradient id="paint17_linear_5_610" x1="322.305" y1="314.034" x2="322.963" y2="409.999" gradientUnits="userSpaceOnUse">
<stop stop-color="#4F52FF"/>
<stop offset="1" stop-color="#4042E2"/>
</linearGradient>
<linearGradient id="paint18_linear_5_610" x1="322.305" y1="327.279" x2="322.963" y2="423.245" gradientUnits="userSpaceOnUse">
<stop stop-color="#4F52FF"/>
<stop offset="1" stop-color="#4042E2"/>
</linearGradient>
<linearGradient id="paint19_linear_5_610" x1="322.305" y1="341.127" x2="322.963" y2="437.092" gradientUnits="userSpaceOnUse">
<stop stop-color="#4F52FF"/>
<stop offset="1" stop-color="#4042E2"/>
</linearGradient>
<linearGradient id="paint20_linear_5_610" x1="322.305" y1="354.372" x2="322.963" y2="450.337" gradientUnits="userSpaceOnUse">
<stop stop-color="#4F52FF"/>
<stop offset="1" stop-color="#4042E2"/>
</linearGradient>
<linearGradient id="paint21_linear_5_610" x1="322.305" y1="367.618" x2="322.963" y2="463.583" gradientUnits="userSpaceOnUse">
<stop stop-color="#4F52FF"/>
<stop offset="1" stop-color="#4042E2"/>
</linearGradient>
<linearGradient id="paint22_linear_5_610" x1="471.643" y1="-1.29754" x2="403.915" y2="96.2321" gradientUnits="userSpaceOnUse">
<stop stop-color="#09005D"/>
<stop offset="1" stop-color="#1A0F91"/>
</linearGradient>
<linearGradient id="paint23_linear_5_610" x1="371.811" y1="299.613" x2="305.719" y2="427.666" gradientUnits="userSpaceOnUse">
<stop stop-color="#4F52FF"/>
<stop offset="1" stop-color="#4042E2"/>
</linearGradient>
<linearGradient id="paint24_linear_5_610" x1="321.154" y1="244.853" x2="102.571" y2="681.067" gradientUnits="userSpaceOnUse">
<stop stop-color="#FE7062"/>
<stop offset="1" stop-color="#FF928E"/>
</linearGradient>
<linearGradient id="paint25_linear_5_610" x1="38.9011" y1="258.482" x2="27.4818" y2="365.865" gradientUnits="userSpaceOnUse">
<stop stop-color="#E1473D"/>
<stop offset="1" stop-color="#E9605A"/>
</linearGradient>
<linearGradient id="paint26_linear_5_610" x1="467.241" y1="302.251" x2="455.823" y2="409.625" gradientUnits="userSpaceOnUse">
<stop stop-color="#E1473D"/>
<stop offset="1" stop-color="#E9605A"/>
</linearGradient>
<linearGradient id="paint27_linear_5_610" x1="136.176" y1="163.751" x2="136.176" y2="346.779" gradientUnits="userSpaceOnUse">
<stop stop-color="#E1473D"/>
<stop offset="1" stop-color="#E9605A"/>
</linearGradient>
<linearGradient id="paint28_linear_5_610" x1="211.12" y1="181.53" x2="289.685" y2="26.2053" gradientUnits="userSpaceOnUse">
<stop stop-color="#FEBBBA"/>
<stop offset="1" stop-color="#FF928E"/>
</linearGradient>
<linearGradient id="paint29_linear_5_610" x1="283.902" y1="104.469" x2="279.086" y2="357.336" gradientUnits="userSpaceOnUse">
<stop stop-color="#E1473D"/>
<stop offset="1" stop-color="#E9605A"/>
</linearGradient>
<linearGradient id="paint30_linear_5_610" x1="291.521" y1="222.198" x2="370.086" y2="66.873" gradientUnits="userSpaceOnUse">
<stop stop-color="#FEBBBA"/>
<stop offset="1" stop-color="#FF928E"/>
</linearGradient>
<linearGradient id="paint31_linear_5_610" x1="502.281" y1="354.182" x2="589.877" y2="282.841" gradientUnits="userSpaceOnUse">
<stop stop-color="#FEBBBA"/>
<stop offset="1" stop-color="#FF928E"/>
</linearGradient>
<linearGradient id="paint32_linear_5_610" x1="182.248" y1="304.561" x2="114.196" y2="420.624" gradientUnits="userSpaceOnUse">
<stop stop-color="#09005D"/>
<stop offset="1" stop-color="#1A0F91"/>
</linearGradient>
<linearGradient id="paint33_linear_5_610" x1="102.747" y1="386.126" x2="90.0738" y2="519.195" gradientUnits="userSpaceOnUse">
<stop stop-color="#4F52FF"/>
<stop offset="1" stop-color="#4042E2"/>
</linearGradient>
<linearGradient id="paint34_linear_5_610" x1="392.138" y1="317.42" x2="389.73" y2="524.53" gradientUnits="userSpaceOnUse">
<stop stop-color="#09005D"/>
<stop offset="1" stop-color="#1A0F91"/>
</linearGradient>
<linearGradient id="paint35_linear_5_610" x1="401.895" y1="383.509" x2="381.074" y2="495.758" gradientUnits="userSpaceOnUse">
<stop stop-color="#4F52FF"/>
<stop offset="1" stop-color="#4042E2"/>
</linearGradient>
<linearGradient id="paint36_linear_5_610" x1="473.104" y1="433.785" x2="355.766" y2="388.211" gradientUnits="userSpaceOnUse">
<stop stop-color="#FE7062"/>
<stop offset="1" stop-color="#FF928E"/>
</linearGradient>
<linearGradient id="paint37_linear_5_610" x1="180.197" y1="252.503" x2="157.777" y2="363.831" gradientUnits="userSpaceOnUse">
<stop stop-color="#FEBBBA"/>
<stop offset="1" stop-color="#FF928E"/>
</linearGradient>
<linearGradient id="paint38_linear_5_610" x1="119.17" y1="218.976" x2="179.778" y2="266.74" gradientUnits="userSpaceOnUse">
<stop stop-color="#CE1567"/>
<stop offset="1" stop-color="#7A1DBC"/>
</linearGradient>
<linearGradient id="paint39_linear_5_610" x1="105.438" y1="488.052" x2="145.244" y2="488.052" gradientUnits="userSpaceOnUse">
<stop stop-color="#020039"/>
<stop offset="1" stop-color="#090056"/>
</linearGradient>
<linearGradient id="paint40_linear_5_610" x1="36.9215" y1="488.151" x2="55.5605" y2="488.151" gradientUnits="userSpaceOnUse">
<stop stop-color="#020039"/>
<stop offset="1" stop-color="#090056"/>
</linearGradient>
<linearGradient id="paint41_linear_5_610" x1="-212.622" y1="-286.892" x2="-306.544" y2="-439.817" gradientUnits="userSpaceOnUse">
<stop stop-color="#FE7062"/>
<stop offset="1" stop-color="#FF928E"/>
</linearGradient>
<linearGradient id="paint42_linear_5_610" x1="138.761" y1="223.865" x2="143.727" y2="193.243" gradientUnits="userSpaceOnUse">
<stop stop-color="#FEBBBA"/>
<stop offset="1" stop-color="#FF928E"/>
</linearGradient>
<linearGradient id="paint43_linear_5_610" x1="154.799" y1="174.219" x2="122.677" y2="198.797" gradientUnits="userSpaceOnUse">
<stop stop-color="#FEBBBA"/>
<stop offset="1" stop-color="#FF928E"/>
</linearGradient>
<linearGradient id="paint44_linear_5_610" x1="130.639" y1="156.054" x2="159.726" y2="193.504" gradientUnits="userSpaceOnUse">
<stop stop-color="#09005D"/>
<stop offset="1" stop-color="#1A0F91"/>
</linearGradient>
<linearGradient id="paint45_linear_5_610" x1="150.815" y1="169.011" x2="118.693" y2="193.59" gradientUnits="userSpaceOnUse">
<stop stop-color="#FEBBBA"/>
<stop offset="1" stop-color="#FF928E"/>
</linearGradient>
<linearGradient id="paint46_linear_5_610" x1="159.673" y1="-131.401" x2="174.978" y2="-199.82" gradientUnits="userSpaceOnUse">
<stop stop-color="#FEBBBA"/>
<stop offset="1" stop-color="#FF928E"/>
</linearGradient>
<linearGradient id="paint47_linear_5_610" x1="-231.931" y1="-275.032" x2="-325.853" y2="-427.957" gradientUnits="userSpaceOnUse">
<stop stop-color="#FE7062"/>
<stop offset="1" stop-color="#FF928E"/>
</linearGradient>
<linearGradient id="paint48_linear_5_610" x1="210.347" y1="250.064" x2="187.926" y2="361.397" gradientUnits="userSpaceOnUse">
<stop stop-color="#FEBBBA"/>
<stop offset="1" stop-color="#FF928E"/>
</linearGradient>
<linearGradient id="paint49_linear_5_610" x1="148.465" y1="153.837" x2="201.446" y2="-41.2321" gradientUnits="userSpaceOnUse">
<stop stop-color="#FE7062"/>
<stop offset="1" stop-color="#FF928E"/>
</linearGradient>
<linearGradient id="paint50_linear_5_610" x1="112.761" y1="476.242" x2="40.6486" y2="247.027" gradientUnits="userSpaceOnUse">
<stop stop-color="#09005D"/>
<stop offset="1" stop-color="#1A0F91"/>
</linearGradient>
<linearGradient id="paint51_linear_5_610" x1="133.732" y1="319.544" x2="92.477" y2="372.88" gradientUnits="userSpaceOnUse">
<stop stop-color="#5AB6FF"/>
<stop offset="1" stop-color="#2F68E3"/>
</linearGradient>
<linearGradient id="paint52_linear_5_610" x1="97.4473" y1="174.601" x2="138.542" y2="364.812" gradientUnits="userSpaceOnUse">
<stop stop-color="#09005D"/>
<stop offset="1" stop-color="#1A0F91"/>
</linearGradient>
<linearGradient id="paint53_linear_5_610" x1="140.221" y1="163.435" x2="182.366" y2="358.504" gradientUnits="userSpaceOnUse">
<stop stop-color="#09005D"/>
<stop offset="1" stop-color="#1A0F91"/>
</linearGradient>
<linearGradient id="paint54_linear_5_610" x1="111.509" y1="170.662" x2="153.11" y2="363.218" gradientUnits="userSpaceOnUse">
<stop stop-color="#09005D"/>
<stop offset="1" stop-color="#1A0F91"/>
</linearGradient>
</defs>
</svg>
