<svg width="695" height="344" viewBox="0 0 695 344" fill="none" xmlns="http://www.w3.org/2000/svg">
<path d="M649.495 337.524V246.134H645.153V237.684H628.929V227.034H632.609V222.056H616.562V212.356H605.591V190.322H602.455V180.055H601.318V190.322H599.319V212.356H586.293V198.365H576.48V183.338H551.875V187.913H553.95V221.047H543.305V211.63H536.591V192.543H532.981V167.118H531.09V192.543H528.215V211.63H520.765V224.657H515.353V214.699H510.789V224.657H508.367V204.21H505.81V179.305H503.802V196.907L496.507 204.21H494.241V177.838H469.626V182.413H471.701V215.547H461.057V206.139H460.632V189.698H454.349V187.043H450.732V161.618H448.85V187.043H445.974V189.698H442.221V206.139H438.525V219.158H433.96V218.596H433.102V209.208H428.54V218.596H426.127V198.709H423.56V173.815H421.563V191.414L414.258 198.709H404.887V204.21H319.181V218.596H318.225V184.198H299.806V214.477H291.555V213.096H262.837V198.709H236.942V213.096H230.255V177.25H212.568V192.959H194.957V228.93H191.108V212.356H185.365V159.164H183.968V212.356H176.827V235.514H167.784V246.134H158.494V337.524H649.495Z" fill="#C4F1F7"/>
<path d="M657.805 337.524V283.867H648.155V272.838H638.764V248.788H631.347V193.543H629.896V248.788H623.93V266H619.934V228.64H601.645V212.327H583.276V249.555H576.332V234.613H549.434V249.555H519.61V250.99H511.043V219.541H491.912V255.268H490.918V240.327H464.392V234.613H454.661L447.075 227.038V208.758H445.001V234.613H442.334V255.268H439.829V245.517H435.089V255.268H434.199V255.849H429.457V242.329H425.619V225.254H421.721V222.498H418.736V196.092H416.78V222.498H413.023V225.254L406.498 235.281V252.358H406.058V262.128H395.004V227.714H397.161V222.964H311.427V250.354H309.073L301.497 242.768V234.517H299.413V250.354H296.757V271.59H294.241V261.247H289.501V271.59H283.878V258.059H276.141V238.239H273.157V221.86H271.193V238.239H267.444V258.059H260.469V267.842H249.416V233.428H251.572V228.677H226.015V244.283H215.824V258.815L202.295 248.788V225.903H200.22V215.241H199.036V225.903H195.781V248.788H184.387V258.861H167.72V264.031H171.543V275.091H154.695V283.867H150.183V337.524H657.805Z" fill="#B6E2EB"/>
<path d="M476.385 158.614C478.938 157.274 482.726 168.487 478.719 170.416C474.709 172.345 471.655 164.127 471.655 164.127C471.655 164.127 473.716 160.017 476.385 158.614Z" fill="#DC933F"/>
<path d="M489.774 163.608C488.754 163.352 485.499 163.736 485.499 163.736C482.983 164.487 481.589 164.889 480.121 164.626C478.658 164.37 475.454 166.814 475.454 166.814C475.454 166.814 473.811 163.45 474.444 159.812C474.444 159.812 476.427 159.141 476.809 158.598C477.577 157.522 477.245 155.505 479.048 153.831C480.86 152.153 482.305 149.171 482.305 149.171C482.305 149.171 483.66 149.112 483.467 150.382C483.27 151.663 481.887 153.12 481.975 153.714C481.995 153.835 482.021 153.95 482.065 154.058C482.065 154.058 482.069 154.066 482.069 154.087C482.216 154.499 482.505 154.85 482.859 154.971C482.876 154.984 482.907 155 482.941 155.004C484.362 155.347 487.358 154.056 488.633 153.358C490.406 152.382 492.926 151.175 493.068 152.488C493.213 153.801 491.695 153.312 488.165 156.197L488.324 156.635C488.081 156.858 491.158 156.231 493.777 155.112C495.582 154.348 495.525 155.817 495.104 156.346C494.687 156.885 492.759 157.389 491.461 157.957C490.599 158.324 489.698 158.701 489.163 158.922L489.143 159.537C493.047 159.72 493.994 158.486 494.573 159.466C495.147 160.438 492.419 161.385 491.173 161.342C490.636 161.326 489.648 161.553 488.698 161.813C491.656 162.534 492.626 161.788 492.915 162.667C493.211 163.575 490.793 163.864 489.774 163.608Z" fill="#FF8B66"/>
<path d="M481.122 158.373C482.468 156.925 482.12 154.396 482.069 154.086C482.216 154.498 482.505 154.849 482.859 154.97C482.995 157.553 481.122 158.373 481.122 158.373Z" fill="#EF6E4B"/>
<path d="M437.828 122.786C444.108 125.809 454.929 164.115 454.929 164.115C454.929 164.115 456.591 162.461 457.269 163.653C457.947 164.845 476.386 158.613 476.386 158.613C476.386 158.613 472.64 165.376 478.72 170.415C478.72 170.415 459.025 180.11 452.38 181.418C445.735 182.725 435.317 149.092 435.317 149.092L437.828 122.786Z" fill="#F4B71E"/>
<path d="M472.215 335.819C472.215 336.763 472.118 337.427 472.118 337.427H444.837C444.837 336.888 444.846 336.349 444.875 335.819C445.184 328.683 447.436 322.492 447.436 322.492L454.255 319.564C454.841 323.079 456.353 325.323 458.251 326.786C458.751 327.183 459.271 327.509 459.811 327.788C460.061 327.923 460.312 328.049 460.572 328.164C461.139 328.424 461.727 328.636 462.314 328.81C464.722 329.542 467.158 329.696 468.863 329.956C471.772 330.407 472.215 333.768 472.215 335.819Z" fill="#6D6E70"/>
<path d="M472.215 335.819C472.215 336.763 472.118 337.427 472.118 337.427H444.837C444.837 336.888 444.846 336.349 444.875 335.819H472.215Z" fill="#ADBEC4"/>
<path d="M459.812 327.788L456.027 329.002L455.228 327.615L458.252 326.786C458.752 327.182 459.272 327.508 459.812 327.788Z" fill="#ADBEC4"/>
<path d="M462.315 328.809L459.764 330.503L458.194 329.887L460.573 328.163C461.14 328.423 461.728 328.635 462.315 328.809Z" fill="#ADBEC4"/>
<path d="M423.788 335.819C423.721 336.744 423.48 337.427 423.48 337.427H405.309C405.077 336.898 404.914 336.368 404.797 335.819C403.007 327.124 415.082 316.482 415.082 316.482L418.914 321.595C418.914 321.595 418.472 329.781 421.717 331.485C423.663 332.507 423.914 334.432 423.788 335.819Z" fill="#6D6E70"/>
<path d="M404.797 335.819H423.787C423.72 336.744 423.479 337.427 423.479 337.427H405.308C405.077 336.898 404.914 336.368 404.797 335.819Z" fill="#ADBEC4"/>
<path d="M420.887 330.834C420.887 330.834 413.231 329.088 409.74 331.348V330.084C409.74 330.084 416.18 326.954 420.887 330.834Z" fill="#ADBEC4"/>
<path d="M419.37 328.892C419.37 328.892 414.482 326.657 409.741 328.892L410.282 327.617C410.282 327.617 415.946 325.476 419.37 328.892Z" fill="#ADBEC4"/>
<path d="M393.442 195.259C393.442 212.545 395.143 230.151 395.58 234.617C396.016 239.083 400.641 288.969 401.292 308.268C401.624 318.154 404.798 330.12 404.798 330.12C404.798 330.12 414.216 322.508 419.551 328.164L420.888 320.45L418.388 314.377C418.388 314.377 421.06 309.353 418.873 305.45C416.686 301.547 416.016 218.115 416.016 218.115L420.223 217.846L440.411 314.376V319.875C440.411 319.875 444.8 326.877 444.838 331.348L458.253 326.785L456.067 320.449L457.521 311.401L452.648 299.602C452.648 299.602 438.705 207.329 439.839 196.975L393.442 195.259Z" fill="#404041"/>
<path d="M388.729 139.31C388.759 140.44 388.799 141.63 388.849 142.87C388.859 143.13 388.879 143.39 388.889 143.66C388.999 145.9 389.119 148.269 389.279 150.72C389.349 151.88 389.429 153.05 389.5 154.25C389.68 156.76 389.859 159.33 390.069 161.891C390.149 163.061 390.25 164.231 390.349 165.391C390.539 167.77 390.739 170.161 390.939 172.47C391.039 173.641 391.139 174.79 391.239 175.92C391.51 178.82 391.769 181.58 392.01 184.14C392.12 185.361 392.239 186.54 392.35 187.651C392.57 189.94 392.77 191.991 392.96 193.72C393.1 195.16 393.22 196.39 393.33 197.33C393.479 198.769 393.559 199.58 393.559 199.58C393.559 199.58 396.539 203.769 404.269 205.91C408.619 207.12 414.489 207.67 422.168 206.46C425.238 205.97 427.879 205.23 430.108 204.4C436.708 201.929 439.778 198.629 439.778 198.629C439.778 198.629 439.848 197.359 439.958 195.159C440.018 194.119 440.078 192.859 440.148 191.429C440.238 189.429 440.358 187.07 440.458 184.469C440.509 183.329 440.568 182.129 440.618 180.889C440.728 178.03 440.848 174.949 440.958 171.759C440.988 170.609 441.018 169.439 441.059 168.259C441.149 165.529 441.219 162.73 441.269 159.959C441.289 158.799 441.309 157.629 441.329 156.48C441.359 154.209 441.39 151.949 441.39 149.769C441.4 148.589 441.4 147.419 441.39 146.269C441.38 143.839 441.34 141.499 441.28 139.319C441.27 138.899 441.25 138.499 441.24 138.099C441.23 137.869 441.23 137.639 441.22 137.409C441.199 136.698 441.169 136.019 441.14 135.359C441.119 135.099 441.11 134.849 441.09 134.599C440.94 131.899 440.72 129.599 440.43 127.849C440.159 126.159 439.81 124.969 439.39 124.409C439.3 124.299 439.209 124.198 439.13 124.089C435.94 120.279 429.93 118.629 422.169 118.209C419.159 118.059 415.88 118.079 412.399 118.249C409.829 118.369 407.379 118.789 405.109 119.419C396.17 121.919 391.589 123.329 389.509 126.379C389.238 126.769 389.039 127.609 388.908 128.799C388.778 129.799 388.719 131.059 388.679 132.519C388.629 134.46 388.649 136.75 388.729 139.31Z" fill="#F9D964"/>
<path d="M419.653 139.823C420.339 139.79 421.025 139.761 421.712 139.734C421.685 139.053 421.657 138.372 421.63 137.691C420.938 137.718 420.246 137.747 419.555 137.78C419.587 138.461 419.621 139.142 419.653 139.823Z" fill="#6D6E70"/>
<path d="M417.107 137.927C417.797 137.887 418.489 137.851 419.18 137.817C419.146 137.136 419.111 136.456 419.075 135.775C418.378 135.809 417.68 135.846 416.984 135.886C417.026 136.566 417.067 137.246 417.107 137.927Z" fill="#6D6E70"/>
<path d="M415.172 140.08C415.857 140.036 416.541 139.994 417.226 139.955C417.187 139.274 417.147 138.594 417.106 137.913C416.416 137.953 415.725 137.995 415.035 138.04C415.082 138.721 415.127 139.401 415.172 140.08Z" fill="#6D6E70"/>
<path d="M412.597 138.231C413.285 138.179 413.975 138.13 414.665 138.083C414.617 137.403 414.569 136.724 414.52 136.044C413.826 136.09 413.131 136.14 412.437 136.192C412.492 136.872 412.545 137.552 412.597 138.231Z" fill="#6D6E70"/>
<path d="M410.705 140.42C411.388 140.363 412.07 140.309 412.754 140.257C412.701 139.577 412.65 138.898 412.597 138.218C411.908 138.27 411.219 138.324 410.531 138.382C410.588 139.062 410.647 139.741 410.705 140.42Z" fill="#6D6E70"/>
<path d="M408.1 138.618C408.785 138.554 409.473 138.492 410.16 138.433C410.101 137.754 410.041 137.075 409.98 136.396C409.287 136.455 408.593 136.517 407.901 136.582C407.968 137.261 408.034 137.939 408.1 138.618Z" fill="#6D6E70"/>
<path d="M406.249 140.841C406.93 140.772 407.61 140.705 408.292 140.641C408.227 139.962 408.164 139.283 408.099 138.605C407.413 138.669 406.726 138.737 406.04 138.807C406.109 139.485 406.179 140.163 406.249 140.841Z" fill="#6D6E70"/>
<path d="M403.615 139.086C404.3 139.009 404.985 138.935 405.671 138.864C405.6 138.186 405.527 137.508 405.455 136.83C404.764 136.902 404.072 136.977 403.382 137.055C403.46 137.731 403.538 138.408 403.615 139.086Z" fill="#6D6E70"/>
<path d="M401.808 141.342C402.486 141.261 403.163 141.181 403.843 141.106C403.767 140.428 403.691 139.751 403.614 139.074C402.929 139.151 402.245 139.231 401.561 139.314C401.644 139.989 401.726 140.665 401.808 141.342Z" fill="#6D6E70"/>
<path d="M399.146 139.636C399.828 139.547 400.51 139.46 401.194 139.376C401.11 138.7 401.026 138.023 400.942 137.347C400.252 137.432 399.564 137.519 398.876 137.609C398.966 138.284 399.056 138.96 399.146 139.636Z" fill="#6D6E70"/>
<path d="M397.381 141.924C398.057 141.83 398.733 141.738 399.41 141.65C399.321 140.975 399.232 140.299 399.143 139.623C398.461 139.712 397.78 139.804 397.099 139.899C397.194 140.574 397.288 141.249 397.381 141.924Z" fill="#6D6E70"/>
<path d="M421.639 111.899L419.716 123.26C419.716 123.26 416.639 125.027 409.488 121.011C409.488 121.011 412.402 112.249 408.726 106.486C408.726 106.486 409.537 106.468 410.824 106.517C410.824 106.517 412.642 113.034 421.639 111.899Z" fill="#EF6E4B"/>
<path d="M425.655 91.718C425.655 91.718 428.936 89.037 425.969 88.165C425.969 88.165 427.222 84.884 425.786 84.348C424.351 83.812 422.885 85.131 422.089 83.725C421.292 82.319 419.556 80.067 416.486 82.273C413.417 84.479 411.71 80.857 410.391 82.028C409.072 83.199 409.877 85.092 407.725 85.375C405.573 85.658 403.559 86.159 404.047 88.314C404.535 90.47 402.166 90.611 402.055 91.925C401.944 93.239 402.954 93.622 403.045 94.742C403.135 95.862 401.542 96.339 402.113 98.022C402.685 99.705 404.315 99.465 404.186 100.672C404.057 101.878 402.987 104.547 404.531 104.926C406.075 105.305 406.654 108.023 408.457 107.636C410.258 107.251 425.655 91.718 425.655 91.718Z" fill="#6D6E70"/>
<path d="M406.452 101.063C406.061 111.833 421.438 116.466 424.325 111.333C425.249 109.689 426.168 105.124 426.506 101.973C426.585 101.258 426.642 100.536 426.675 99.812C426.892 94.904 426.019 90.024 423.198 88.942C413.388 85.172 406.93 87.853 406.452 101.063Z" fill="#FF8B66"/>
<path d="M416.86 97.831C416.851 98.565 417.174 99.165 417.583 99.17C417.991 99.175 418.329 98.583 418.339 97.848C418.347 97.113 418.025 96.513 417.615 96.509C417.207 96.505 416.869 97.096 416.86 97.831Z" fill="#1A4850"/>
<path d="M423.575 98.47C423.567 99.205 423.889 99.805 424.298 99.809C424.706 99.814 425.045 99.223 425.054 98.488C425.063 97.753 424.74 97.153 424.331 97.149C423.922 97.145 423.585 97.735 423.575 98.47Z" fill="#1A4850"/>
<path d="M413.982 100.092C413.793 100.665 414.223 101.321 414.94 101.557C415.657 101.793 416.391 101.518 416.579 100.945C416.769 100.372 416.339 99.715 415.622 99.48C414.905 99.245 414.17 99.518 413.982 100.092Z" fill="#DB614D"/>
<path d="M424.978 101.26C425.124 101.823 425.799 102.133 426.505 101.973C426.584 101.258 426.641 100.536 426.674 99.812C426.46 99.779 426.237 99.793 426.013 99.851C425.284 100.047 424.821 100.679 424.978 101.26Z" fill="#DB614D"/>
<path d="M416.121 94.1179C415.98 94.1299 415.837 94.072 415.744 93.953C415.597 93.764 415.63 93.4919 415.819 93.3449C417.007 92.4129 418.697 92.7019 418.768 92.7149C419.003 92.7569 419.16 92.9819 419.118 93.2169C419.077 93.4519 418.855 93.6099 418.617 93.5689C418.603 93.5669 417.232 93.339 416.352 94.029C416.284 94.082 416.202 94.1119 416.121 94.1179Z" fill="#8B383E"/>
<path d="M425.952 95.403C425.948 95.404 425.943 95.404 425.938 95.404C425.698 95.415 425.496 95.23 425.484 94.991C425.469 94.662 424.693 94.497 424.28 94.482C424.041 94.474 423.854 94.273 423.862 94.034C423.87 93.795 424.075 93.605 424.309 93.616C425.045 93.64 426.303 93.949 426.35 94.951C426.362 95.184 426.184 95.384 425.952 95.403Z" fill="#8B383E"/>
<path d="M423.256 103.736C422.934 103.762 422.568 103.75 422.16 103.699L422.24 103.054C423.15 103.167 423.812 103.064 424.108 102.764C424.239 102.633 424.274 102.487 424.283 102.402C422.244 99.827 422.025 96.545 422.015 96.404L422.665 96.364C422.666 96.397 422.889 99.659 424.858 102.08L424.917 102.151L424.929 102.242C424.937 102.298 424.989 102.798 424.57 103.221C424.278 103.517 423.838 103.689 423.256 103.736Z" fill="#EF6E4B"/>
<path d="M423.825 105.176C423.825 105.176 423.569 105.619 421.253 105.325C418.938 105.031 417.465 104.409 417.465 104.409C417.465 104.409 417.8 109.067 421.281 109.086C424.17 109.101 423.825 105.176 423.825 105.176Z" fill="#1A4850"/>
<path d="M409.532 101.233C409.532 101.233 409.302 97.331 411.665 95.072C414.028 92.813 411.976 89.491 411.976 89.491C411.976 89.491 421.441 87.889 425.656 91.718C425.656 91.718 428.808 86.173 419.803 83.909C410.797 81.645 396.167 88.641 408.459 107.637L406.453 101.062L409.532 101.233Z" fill="#8B383E"/>
<path d="M409.227 100.744C409.227 100.744 407.108 98.206 405.102 99.726C403.098 101.246 406.391 105.907 408.541 105.757C410.69 105.608 409.227 100.744 409.227 100.744Z" fill="#FF8B66"/>
<path d="M388.889 143.661C388.999 145.901 389.119 148.27 389.279 150.721C389.349 151.881 389.429 153.051 389.5 154.251C389.68 156.761 389.859 159.331 390.069 161.892C390.149 163.062 390.25 164.232 390.349 165.392C390.539 167.771 390.739 170.162 390.939 172.471C391.039 173.642 391.139 174.791 391.239 175.921C391.51 178.821 391.769 181.581 392.01 184.141C392.12 185.362 392.239 186.541 392.35 187.652C392.57 189.941 392.77 191.992 392.96 193.721C393.1 195.161 393.22 196.391 393.33 197.331C393.479 198.77 393.559 199.581 393.559 199.581C393.559 199.581 396.539 203.77 404.269 205.911C408.619 207.121 414.489 207.671 422.168 206.461C425.238 205.971 427.879 205.231 430.108 204.401C436.708 201.93 439.778 198.63 439.778 198.63C439.778 198.63 439.848 197.36 439.958 195.16C440.018 194.12 440.078 192.86 440.148 191.43C440.238 189.43 440.358 187.071 440.458 184.47C440.509 183.33 440.568 182.13 440.618 180.89C440.728 178.031 440.848 174.95 440.958 171.76C440.988 170.61 441.018 169.44 441.059 168.26C441.149 165.53 441.219 162.731 441.269 159.96C441.289 158.8 441.309 157.63 441.329 156.481C441.359 154.21 441.39 151.95 441.39 149.77C441.4 148.59 441.4 147.42 441.39 146.27C441.38 143.84 441.34 141.5 441.28 139.32C437.22 138.97 421.93 138.17 393.44 142.67C391.839 142.92 390.319 143.25 388.889 143.661Z" fill="#6D6E70"/>
<path d="M405.354 169.596C407.65 169.559 408.95 180.131 404.455 181.244C404.455 181.244 399.068 169.702 405.354 169.596Z" fill="#DC933F"/>
<path d="M439.269 137.35V137.36C439.918 137.38 440.569 137.39 441.219 137.41C441.198 136.699 441.168 136.02 441.139 135.36C440.529 135.35 439.909 135.33 439.299 135.32C439.289 136 439.279 136.67 439.269 137.35Z" fill="#6D6E70"/>
<path d="M437.173 139.363C437.859 139.371 438.545 139.382 439.231 139.396C439.244 138.714 439.256 138.032 439.267 137.351C438.576 137.338 437.884 137.327 437.193 137.319C437.187 138.001 437.18 138.682 437.173 139.363Z" fill="#6D6E70"/>
<path d="M434.748 137.322C435.438 137.323 436.13 137.327 436.821 137.333C436.825 136.652 436.83 135.971 436.834 135.289C436.138 135.282 435.441 135.278 434.745 135.277C434.747 135.959 434.748 136.641 434.748 137.322Z" fill="#6D6E70"/>
<path d="M432.693 139.36C433.377 139.356 434.062 139.354 434.748 139.355C434.748 138.673 434.748 137.992 434.748 137.311C434.057 137.31 433.366 137.311 432.675 137.316C432.681 137.997 432.687 138.678 432.693 139.36Z" fill="#6D6E70"/>
<path d="M430.234 137.363C430.923 137.352 431.613 137.343 432.303 137.337C432.295 136.656 432.287 135.974 432.28 135.292C431.584 135.298 430.888 135.307 430.192 135.318C430.207 136 430.219 136.682 430.234 137.363Z" fill="#6D6E70"/>
<path d="M428.217 139.438C428.901 139.421 429.585 139.407 430.27 139.396C430.257 138.714 430.246 138.033 430.233 137.351C429.544 137.363 428.854 137.377 428.164 137.395C428.182 138.076 428.2 138.757 428.217 139.438Z" fill="#6D6E70"/>
<path d="M425.726 137.486C426.414 137.462 427.103 137.441 427.792 137.422C427.772 136.741 427.753 136.059 427.732 135.378C427.037 135.397 426.342 135.419 425.648 135.443C425.674 136.124 425.701 136.805 425.726 137.486Z" fill="#6D6E70"/>
<path d="M423.752 139.598C424.435 139.568 425.116 139.541 425.8 139.518C425.776 138.836 425.751 138.155 425.727 137.474C425.038 137.499 424.349 137.526 423.661 137.556C423.692 138.236 423.721 138.917 423.752 139.598Z" fill="#6D6E70"/>
<path d="M421.228 137.692C421.914 137.655 422.602 137.621 423.289 137.59C423.257 136.909 423.226 136.228 423.193 135.548C422.499 135.579 421.806 135.614 421.113 135.651C421.152 136.331 421.19 137.012 421.228 137.692Z" fill="#6D6E70"/>
<path d="M410.548 115.065C410.548 115.065 414.538 119.06 417.464 119.17L419.222 122.786L420.481 118.742L420.81 116.796C420.81 116.796 424.331 119.42 424.327 125.045C424.327 125.045 423.17 123.566 421.639 123.232L419.222 124.67L416.575 123.647L415.024 125.67C415.024 125.67 406.833 123.131 407.096 120.751C407.389 118.109 410.548 115.065 410.548 115.065Z" fill="#F4B71E"/>
<path d="M418.636 123.753C418.636 123.753 418.864 124.698 419.169 126.35C419.324 127.177 419.538 128.175 419.71 129.339C419.897 130.5 420.107 131.81 420.337 133.239C420.541 134.672 420.719 136.231 420.931 137.877C421.146 139.523 421.365 141.26 421.496 143.067C421.653 144.872 421.816 146.736 421.981 148.631C422.162 150.526 422.181 152.461 422.291 154.391C422.379 156.323 422.467 158.253 422.554 160.155C422.557 162.058 422.559 163.93 422.562 165.743C422.562 167.558 422.563 169.309 422.564 170.972C422.601 172.636 422.438 174.202 422.394 175.652C422.11 181.45 421.92 185.315 421.92 185.315C421.92 185.315 422.172 181.453 422.549 175.66C422.617 174.211 422.806 172.643 422.795 170.978C422.821 169.315 422.849 167.561 422.878 165.746C422.904 163.931 422.933 162.056 422.96 160.149C422.904 158.244 422.848 156.308 422.791 154.372C422.713 152.437 422.724 150.496 422.573 148.596C422.438 146.694 422.306 144.821 422.177 143.009C422.075 141.194 421.883 139.448 421.695 137.793C421.509 136.137 421.355 134.569 421.174 133.126C420.966 131.686 420.776 130.365 420.608 129.195C420.454 128.024 420.253 127.006 420.11 126.167C419.826 124.483 419.615 123.543 419.615 123.543L418.636 123.753Z" fill="#F4B71E"/>
<path d="M414.649 142.005L404.879 143.338V152.121C404.879 152.121 409.991 155.903 415.024 152.121C415.024 152.121 415.742 143.505 414.649 142.005Z" fill="#F4B71E"/>
<path d="M405.252 179.134C406.236 179.531 413.131 181.979 414.494 181.792C414.545 181.786 414.596 181.78 414.648 181.767C415.976 181.508 417.466 180.206 418.398 179.872C419.366 179.52 419.699 178.598 420.543 177.972C421.395 177.346 421.919 175.438 421.919 175.438C421.919 175.438 424.793 172.862 423.592 172.518C422.09 172.096 420.393 173.602 420.393 173.602L416.676 174.239C416.676 174.239 412.211 172.474 412.399 171.579C412.596 170.684 414.436 171.419 416.053 171.286C417.121 171.204 417.2 170.036 417.2 170.036L414.448 169.344C414.448 169.344 410.43 168.691 409.569 169.048C408.709 169.398 405.533 171.405 405.533 171.405L399.584 171.274L398.434 179.045C398.434 179.045 404.269 178.729 405.252 179.134Z" fill="#FF8B66"/>
<path d="M414.649 181.767C415.977 181.508 417.467 180.206 418.399 179.872C419.367 179.52 419.7 178.598 420.544 177.972C421.396 177.346 421.92 175.438 421.92 175.438C421.189 176.045 417.677 176.684 417.409 176.975C417.141 177.266 417.559 177.56 417.434 178.155C417.31 178.75 416.066 178.763 416.139 179.398C416.212 180.035 416.159 180.644 415.27 180.937C414.887 181.064 414.741 181.406 414.649 181.767Z" fill="#EF6E4B"/>
<path d="M389.513 126.372C395.638 129.591 397.807 143 397.156 148.438L390.42 166.334C390.42 166.334 391.742 168.748 390.658 169.182L405.354 169.596C405.354 169.596 401.592 173.514 404.455 181.244C404.455 181.244 385.246 187 377.016 181.244C374.636 179.579 373.36 174.83 373.956 171.359C378.173 146.836 389.513 126.372 389.513 126.372Z" fill="#F4B71E"/>
<path d="M36.6589 11.459V325.978C36.6589 332.299 41.7869 337.427 48.1189 337.427H196.948C203.279 337.427 208.407 332.299 208.407 325.978V11.459C208.407 5.128 203.279 1.46231e-07 196.948 1.46231e-07H48.1189C41.7869 -0.000999854 36.6589 5.127 36.6589 11.459Z" fill="#5174CE"/>
<path d="M41.2209 11.459V325.978C41.2209 332.299 46.3489 337.427 52.6799 337.427H201.509C207.841 337.427 212.969 332.299 212.969 325.978V11.459C212.969 5.128 207.841 1.46231e-07 201.509 1.46231e-07H52.6799C46.3489 -0.000999854 41.2209 5.127 41.2209 11.459Z" fill="#25559F"/>
<path d="M47.687 22.779V317.578C47.687 320.477 49.406 322.991 51.869 324.094C52.765 324.53 53.792 324.761 54.845 324.761H199.345C203.295 324.761 206.502 321.554 206.502 317.578V22.779C206.502 18.803 203.295 15.596 199.345 15.596H182.491C180.824 15.596 179.284 16.16 178.054 17.135C176.823 18.111 175.899 19.495 175.515 21.112C174.744 24.344 171.872 26.601 168.537 26.601H85.653C82.319 26.601 79.445 24.344 78.674 21.112C77.906 17.879 75.007 15.596 71.697 15.596H54.844C50.894 15.596 47.687 18.803 47.687 22.779Z" fill="#F97C08"/>
<path d="M107.28 13.182C107.28 14.945 108.711 16.375 110.474 16.375C112.237 16.375 113.668 14.945 113.668 13.182C113.668 11.418 112.237 9.987 110.474 9.987C108.711 9.987 107.28 11.417 107.28 13.182Z" fill="#5174CE"/>
<path d="M120.206 14.779H144.749C145.631 14.779 146.347 14.064 146.347 13.182C146.347 12.3 145.631 11.584 144.749 11.584H120.206C119.324 11.584 118.608 12.3 118.608 13.182C118.608 14.063 119.324 14.779 120.206 14.779Z" fill="#5174CE"/>
<path d="M76.8789 80.912C76.7259 81.273 76.5769 81.623 76.4449 81.995C74.9139 85.792 73.8329 89.65 73.1699 93.531C70.8829 106.882 73.5209 120.382 80.1369 131.692C82.1339 135.123 84.4908 138.344 87.1818 141.296C91.5618 146.113 96.8378 150.223 102.895 153.373C104.218 154.064 105.575 154.704 106.966 155.293C109.277 156.273 111.622 157.085 113.967 157.744C128.335 161.742 143.271 159.805 155.813 153.114C159.379 151.226 162.739 148.943 165.842 146.316C169.185 143.494 172.211 140.254 174.865 136.649C177.194 133.474 179.216 130.015 180.879 126.275C181.054 125.923 181.203 125.572 181.357 125.211C188.436 108.516 186.905 90.329 178.768 75.595C176.541 71.55 173.802 67.764 170.613 64.345C166.955 60.415 162.691 56.967 157.892 54.143C155.788 52.916 153.576 51.796 151.263 50.815C149.871 50.226 148.469 49.695 147.053 49.225C134.706 45.089 121.789 45.466 110.219 49.556C104.091 51.726 98.3369 54.935 93.2539 59.087C86.3149 64.725 80.6139 72.104 76.8789 80.912Z" fill="white"/>
<path d="M101.369 105.486L94.3879 121.951L80.1379 131.691C82.1349 135.122 84.4919 138.343 87.1829 141.295L102.54 130.798C103.486 130.153 104.214 129.258 104.66 128.207L112.323 110.131L119.873 113.332L102.895 153.372C104.218 154.063 105.575 154.703 106.966 155.292C109.277 156.272 111.622 157.084 113.967 157.743L130.826 117.976L142.854 123.076L155.812 153.113C159.378 151.225 162.738 148.942 165.841 146.315L158.717 129.802L174.864 136.648C177.193 133.473 179.215 130.014 180.878 126.274L135.47 107.021L139.651 97.162L159.578 105.61C162.601 106.892 166.097 105.479 167.378 102.455L178.768 75.593C176.541 71.548 173.802 67.762 170.613 64.343L158.747 92.333L144.297 86.207L157.893 54.142C155.789 52.915 153.577 51.795 151.264 50.814C149.872 50.225 148.47 49.694 147.054 49.224L124.518 102.377L93.4149 89.191L110.22 49.556C104.092 51.726 98.3379 54.935 93.2549 59.087L82.4609 84.547L76.4459 81.997C74.9149 85.794 73.8339 89.652 73.1709 93.533L101.369 105.486Z" fill="#C4F1F7"/>
<path d="M94.719 88.293C94.719 81.357 100.344 75.733 107.279 75.733C114.215 75.733 119.84 81.357 119.84 88.293C119.84 91.535 118.601 94.481 116.584 96.711L107.278 106.081L97.977 96.711C95.959 94.481 94.719 91.535 94.719 88.293Z" fill="#DF302A"/>
<path d="M100.727 88.293C100.727 91.913 103.663 94.846 107.279 94.846C110.899 94.846 113.833 91.913 113.833 88.293C113.833 84.673 110.899 81.739 107.279 81.739C103.663 81.739 100.727 84.673 100.727 88.293Z" fill="white"/>
<path d="M398.839 206.011C398.839 206.011 411.551 205.068 412.345 206.011C413.139 206.954 418.294 212.508 412.345 216.077C406.396 219.646 400.446 219.25 400.446 219.25L398.839 206.011Z" fill="#A3A5A8"/>
<path d="M428.418 267.492C431.028 267.492 440.822 267.492 443.434 267.492C457.808 267.492 469.46 283.148 469.46 302.459C469.46 321.772 457.808 337.428 443.434 337.428C440.823 337.428 431.029 337.428 428.418 337.428C414.044 337.428 402.391 321.773 402.391 302.459C402.391 283.148 414.045 267.492 428.418 267.492Z" fill="#2D2D2D"/>
<path d="M402.391 302.458C402.391 321.771 414.044 337.427 428.418 337.427C442.792 337.427 454.444 321.772 454.444 302.458C454.444 283.147 442.792 267.491 428.418 267.491C414.045 267.492 402.391 283.148 402.391 302.458Z" fill="#2D2D2D"/>
<path d="M410.59 302.458C410.59 314.641 417.947 324.521 427.017 324.521C427.578 324.521 428.127 324.48 428.668 324.412H428.699C436.975 323.28 443.433 313.881 443.433 302.458C443.433 291.038 436.975 281.638 428.699 280.507H428.668C428.127 280.436 427.577 280.397 427.017 280.397C417.948 280.397 410.59 290.277 410.59 302.458Z" fill="#2D2D2D"/>
<path d="M413.934 302.458C413.934 313.881 420.391 323.28 428.668 324.411H428.699C436.975 323.28 443.433 313.881 443.433 302.458C443.433 291.037 436.975 281.637 428.699 280.507H428.668C420.391 281.637 413.934 291.038 413.934 302.458Z" fill="#2D2D2D"/>
<path d="M425.273 302.458C425.273 306.658 427.808 310.063 430.935 310.063C431.128 310.063 431.317 310.05 431.504 310.025H431.514C434.368 309.635 436.594 306.396 436.594 302.458C436.594 298.521 434.367 295.282 431.514 294.893H431.504C431.316 294.868 431.128 294.854 430.935 294.854C427.808 294.854 425.273 298.259 425.273 302.458Z" fill="#2D2D2D"/>
<path d="M419.409 289.68C419.409 289.68 425.273 294.396 424.48 298.949C423.603 303.997 415.78 303.945 415.78 303.945C415.78 303.945 414.804 295.348 419.409 289.68Z" fill="#2D2D2D"/>
<path d="M417.407 310.064C417.407 310.064 423.771 308.467 427.012 310.064C430.254 311.662 427.012 322.172 427.012 322.172C427.012 322.172 418.742 317.81 417.407 310.064Z" fill="#2D2D2D"/>
<path d="M434.091 320.838C434.091 320.838 432.256 312.971 435.091 310.064C437.928 307.157 441.098 311.162 441.098 311.162C441.098 311.162 439.483 317.264 434.091 320.838Z" fill="#2D2D2D"/>
<path d="M437.303 300.325C435.926 295.646 439.93 290.975 439.93 290.975C439.93 290.975 442.427 296.593 442.433 303.32C442.433 303.32 438.369 303.951 437.303 300.325Z" fill="#2D2D2D"/>
<path d="M435.926 286.051C435.926 286.051 434.28 292.476 430.933 292.809C427.583 293.143 424.581 284.174 424.581 284.174C424.581 284.174 430.959 279.033 435.926 286.051Z" fill="#2D2D2D"/>
<path d="M296.887 267.492C299.498 267.492 309.291 267.492 311.903 267.492C326.277 267.492 337.929 283.148 337.929 302.459C337.929 321.772 326.277 337.428 311.903 337.428C309.292 337.428 299.499 337.428 296.887 337.428C282.513 337.428 270.861 321.773 270.861 302.459C270.861 283.148 282.513 267.492 296.887 267.492Z" fill="#2D2D2D"/>
<path d="M270.861 302.458C270.861 321.771 282.513 337.427 296.887 337.427C311.261 337.427 322.913 321.772 322.913 302.458C322.913 283.147 311.261 267.491 296.887 267.491C282.513 267.492 270.861 283.148 270.861 302.458Z" fill="#2D2D2D"/>
<path d="M279.059 302.458C279.059 314.641 286.416 324.521 295.486 324.521C296.048 324.521 296.596 324.48 297.138 324.412H297.168C305.446 323.28 311.902 313.881 311.902 302.458C311.902 291.038 305.446 281.638 297.168 280.507H297.138C296.596 280.436 296.047 280.397 295.486 280.397C286.417 280.397 279.059 290.277 279.059 302.458Z" fill="#2D2D2D"/>
<path d="M282.403 302.458C282.403 313.881 288.86 323.28 297.138 324.411H297.168C305.446 323.28 311.902 313.881 311.902 302.458C311.902 291.037 305.446 281.637 297.168 280.507H297.138C288.86 281.637 282.403 291.038 282.403 302.458Z" fill="#2D2D2D"/>
<path d="M293.742 302.458C293.742 306.658 296.277 310.063 299.404 310.063C299.597 310.063 299.787 310.05 299.973 310.025H299.984C302.837 309.635 305.063 306.396 305.063 302.458C305.063 298.521 302.836 295.282 299.984 294.893H299.973C299.787 294.868 299.597 294.854 299.404 294.854C296.277 294.854 293.742 298.259 293.742 302.458Z" fill="#2D2D2D"/>
<path d="M287.878 289.68C287.878 289.68 293.741 294.396 292.95 298.949C292.071 303.997 284.249 303.945 284.249 303.945C284.249 303.945 283.274 295.348 287.878 289.68Z" fill="#2D2D2D"/>
<path d="M285.876 310.064C285.876 310.064 292.241 308.467 295.482 310.064C298.723 311.662 295.482 322.172 295.482 322.172C295.482 322.172 287.211 317.81 285.876 310.064Z" fill="#2D2D2D"/>
<path d="M302.56 320.838C302.56 320.838 300.725 312.971 303.562 310.064C306.397 307.157 309.567 311.162 309.567 311.162C309.567 311.162 307.953 317.264 302.56 320.838Z" fill="#2D2D2D"/>
<path d="M305.772 300.325C304.395 295.646 308.399 290.975 308.399 290.975C308.399 290.975 310.897 296.593 310.902 303.32C310.902 303.32 306.839 303.951 305.772 300.325Z" fill="#2D2D2D"/>
<path d="M304.395 286.051C304.395 286.051 302.75 292.476 299.402 292.809C296.054 293.143 293.05 284.174 293.05 284.174C293.05 284.174 299.427 279.033 304.395 286.051Z" fill="#2D2D2D"/>
<path d="M92.8582 249.395H485.225V309.354H220.935C217.23 312.31 211.174 314.244 204.311 314.244C197.45 314.244 191.392 312.31 187.688 309.354H92.8582V249.395Z" fill="#2D2D2D"/>
<path d="M261.833 267.492C264.444 267.492 274.237 267.492 276.849 267.492C291.223 267.492 302.875 283.148 302.875 302.459C302.875 321.772 291.223 337.428 276.849 337.428C274.238 337.428 264.445 337.428 261.833 337.428C247.459 337.428 235.807 321.773 235.807 302.459C235.806 283.148 247.459 267.492 261.833 267.492Z" fill="#404041"/>
<path d="M235.806 302.458C235.806 321.771 247.458 337.427 261.832 337.427C276.206 337.427 287.859 321.772 287.859 302.458C287.859 283.147 276.206 267.491 261.832 267.491C247.459 267.492 235.806 283.148 235.806 302.458Z" fill="#58595B"/>
<path d="M244.005 302.458C244.005 314.641 251.361 324.521 260.431 324.521C260.993 324.521 261.542 324.48 262.082 324.412H262.113C270.39 323.28 276.847 313.881 276.847 302.458C276.847 291.038 270.39 281.638 262.113 280.507H262.082C261.542 280.436 260.992 280.397 260.431 280.397C251.362 280.397 244.005 290.277 244.005 302.458Z" fill="#404041"/>
<path d="M247.348 302.458C247.348 313.881 253.805 323.28 262.082 324.411H262.113C270.39 323.28 276.847 313.881 276.847 302.458C276.847 291.037 270.39 281.637 262.113 280.507H262.082C253.805 281.637 247.348 291.038 247.348 302.458Z" fill="#6D6E70"/>
<path d="M258.687 302.458C258.687 306.658 261.223 310.063 264.35 310.063C264.542 310.063 264.732 310.05 264.919 310.025H264.928C267.782 309.635 270.008 306.396 270.008 302.458C270.008 298.521 267.782 295.282 264.928 294.893H264.919C264.731 294.868 264.542 294.854 264.35 294.854C261.223 294.854 258.687 298.259 258.687 302.458Z" fill="#404041"/>
<path d="M252.824 289.68C252.824 289.68 258.687 294.396 257.895 298.949C257.017 303.997 249.195 303.945 249.195 303.945C249.195 303.945 248.218 295.348 252.824 289.68Z" fill="#404041"/>
<path d="M250.822 310.064C250.822 310.064 257.186 308.467 260.426 310.064C263.668 311.662 260.426 322.172 260.426 322.172C260.426 322.172 252.157 317.81 250.822 310.064Z" fill="#404041"/>
<path d="M267.505 320.838C267.505 320.838 265.67 312.971 268.506 310.064C271.342 307.157 274.512 311.162 274.512 311.162C274.512 311.162 272.897 317.264 267.505 320.838Z" fill="#404041"/>
<path d="M270.717 300.325C269.34 295.646 273.345 290.975 273.345 290.975C273.345 290.975 275.842 296.593 275.848 303.32C275.848 303.32 271.783 303.951 270.717 300.325Z" fill="#404041"/>
<path d="M269.34 286.051C269.34 286.051 267.694 292.476 264.347 292.809C260.998 293.143 257.995 284.174 257.995 284.174C257.995 284.174 264.373 279.033 269.34 286.051Z" fill="#404041"/>
<path d="M130.301 267.492C132.912 267.492 142.705 267.492 145.317 267.492C159.691 267.492 171.343 283.148 171.343 302.459C171.343 321.772 159.691 337.428 145.317 337.428C142.706 337.428 132.913 337.428 130.301 337.428C115.927 337.428 104.275 321.773 104.275 302.459C104.275 283.148 115.927 267.492 130.301 267.492Z" fill="#404041"/>
<path d="M104.275 302.458C104.275 321.771 115.927 337.427 130.301 337.427C144.675 337.427 156.328 321.772 156.328 302.458C156.328 283.147 144.675 267.491 130.301 267.491C115.927 267.492 104.275 283.148 104.275 302.458Z" fill="#58595B"/>
<path d="M112.474 302.458C112.474 314.641 119.83 324.521 128.9 324.521C129.462 324.521 130.011 324.48 130.552 324.412H130.582C138.86 323.28 145.316 313.881 145.316 302.458C145.316 291.038 138.86 281.638 130.582 280.507H130.552C130.011 280.436 129.461 280.397 128.9 280.397C119.831 280.397 112.474 290.277 112.474 302.458Z" fill="#404041"/>
<path d="M115.817 302.458C115.817 313.881 122.274 323.28 130.552 324.411H130.582C138.86 323.28 145.316 313.881 145.316 302.458C145.316 291.037 138.86 281.637 130.582 280.507H130.552C122.274 281.637 115.817 291.038 115.817 302.458Z" fill="#6D6E70"/>
<path d="M127.156 302.458C127.156 306.658 129.692 310.063 132.819 310.063C133.011 310.063 133.201 310.05 133.388 310.025H133.398C136.251 309.635 138.477 306.396 138.477 302.458C138.477 298.521 136.25 295.282 133.398 294.893H133.388C133.2 294.868 133.011 294.854 132.819 294.854C129.692 294.854 127.156 298.259 127.156 302.458Z" fill="#404041"/>
<path d="M121.293 289.68C121.293 289.68 127.156 294.396 126.365 298.949C125.486 303.997 117.664 303.945 117.664 303.945C117.664 303.945 116.689 295.348 121.293 289.68Z" fill="#404041"/>
<path d="M119.291 310.064C119.291 310.064 125.655 308.467 128.898 310.064C132.138 311.662 128.898 322.172 128.898 322.172C128.898 322.172 120.626 317.81 119.291 310.064Z" fill="#404041"/>
<path d="M135.974 320.838C135.974 320.838 134.139 312.971 136.976 310.064C139.811 307.157 142.981 311.162 142.981 311.162C142.981 311.162 141.368 317.264 135.974 320.838Z" fill="#404041"/>
<path d="M139.186 300.325C137.809 295.646 141.814 290.975 141.814 290.975C141.814 290.975 144.312 296.593 144.317 303.32C144.317 303.32 140.252 303.951 139.186 300.325Z" fill="#404041"/>
<path d="M137.809 286.051C137.809 286.051 136.164 292.476 132.816 292.809C129.468 293.143 126.464 284.174 126.464 284.174C126.464 284.174 132.841 279.033 137.809 286.051Z" fill="#404041"/>
<path d="M84.8271 293.552H99.0462C104.044 274.942 117.787 261.543 133.91 261.543C150.033 261.543 163.776 274.941 168.773 293.552H229.934C234.932 274.942 248.675 261.543 264.798 261.543C280.921 261.543 294.664 274.941 299.661 293.552H507.143C507.143 293.552 504.074 254.856 493.257 247.407C474.671 234.615 411.154 219.944 411.154 219.944C411.154 219.944 367.568 169.028 363.557 168.492C323.101 163.127 203.516 160.746 177.136 168.492C176.233 168.756 175.233 169.242 174.161 169.909H174.149C160.787 178.155 143.033 214.458 143.033 214.458C143.033 214.458 111.299 217.897 100.982 220.955C90.6801 224.014 84.8271 293.552 84.8271 293.552Z" fill="#F9D964"/>
<path d="M84.8271 293.552H99.0462C100.105 289.601 101.557 285.889 103.365 282.485C103.806 281.606 104.294 280.748 104.806 279.916C106.257 277.501 107.899 275.275 109.697 273.264C111.064 271.706 112.541 270.289 114.087 269.017C119.812 264.281 126.617 261.544 133.911 261.544C143.192 261.544 151.688 265.983 158.161 273.3C160.005 275.36 161.672 277.644 163.147 280.13C165.549 284.152 167.466 288.673 168.774 293.553H229.935C231.089 289.234 232.719 285.2 234.754 281.546C236.444 278.488 238.407 275.692 240.62 273.23C241.691 272.003 242.845 270.862 244.035 269.814C246.796 267.376 249.83 265.4 253.065 264.008C256.754 262.413 260.693 261.544 264.798 261.544C272.032 261.544 278.779 264.233 284.479 268.897C286.074 270.195 287.585 271.646 289 273.241C293.819 278.642 297.531 285.628 299.661 293.552H348.685C348.685 293.552 348.09 265.458 338.487 256.629C328.885 247.788 267.177 223.835 267.177 223.835C267.177 223.835 262.001 175.085 258.61 171.266C254.195 166.304 195.617 165.59 174.163 169.91H174.151C160.789 178.156 141.607 208.938 141.607 208.938C141.607 208.938 111.3 217.898 100.984 220.956C96.9261 222.159 93.5591 233.652 90.9651 247.158C89.9181 252.631 89.0011 258.426 88.2161 264.008C87.7521 267.208 87.3481 270.337 86.9911 273.288C85.8121 282.808 85.0981 290.47 84.8831 292.814C84.8491 293.289 84.8271 293.552 84.8271 293.552Z" fill="#F4B71E"/>
<path d="M497.836 253.036C497.836 253.036 484.928 254.551 479.772 257.724C474.616 260.896 476.6 284.694 476.6 284.694H506.144C506.144 284.694 505.453 258.913 497.836 253.036Z" fill="#C4F1F7"/>
<path d="M333.274 253.036C333.274 253.036 374.463 254.551 379.619 257.724C384.774 260.896 387.154 284.694 387.154 284.694H326.97C326.97 284.694 325.659 258.913 333.274 253.036Z" fill="#C4F1F7"/>
<path d="M496.439 255.235C496.439 255.235 499.963 260.661 500.499 268.335C501.193 278.249 500.992 283.01 500.992 283.01H504.561C504.561 283.01 503.57 258.716 498.314 254.75L496.439 255.235Z" fill="#ED5A28"/>
<path d="M485.825 267.406C485.825 272.797 488.895 277.164 492.679 277.164C494.905 277.164 496.88 275.653 498.117 273.308C497.118 274.677 495.749 275.51 494.238 275.51C491.096 275.51 488.55 271.881 488.55 267.407C488.55 262.933 491.097 259.304 494.238 259.304C495.749 259.304 497.118 260.137 498.117 261.505C496.88 259.161 494.904 257.649 492.679 257.649C488.895 257.648 485.825 262.016 485.825 267.406Z" fill="white"/>
<path d="M478.983 278.054C478.983 280.79 480.543 283.009 482.463 283.009C483.594 283.009 484.596 282.242 485.225 281.051C484.717 281.746 484.023 282.169 483.255 282.169C481.66 282.169 480.366 280.325 480.366 278.054C480.366 275.781 481.66 273.939 483.255 273.939C484.022 273.939 484.717 274.363 485.225 275.056C484.596 273.867 483.594 273.098 482.463 273.098C480.543 273.098 478.983 275.317 478.983 278.054Z" fill="white"/>
<path d="M354.936 267.406C354.936 272.797 358.006 277.164 361.789 277.164C364.015 277.164 365.99 275.653 367.228 273.308C366.229 274.677 364.86 275.51 363.349 275.51C360.207 275.51 357.66 271.881 357.66 267.407C357.66 262.933 360.207 259.304 363.349 259.304C364.86 259.304 366.229 260.137 367.228 261.505C365.991 259.161 364.015 257.649 361.789 257.649C358.006 257.648 354.936 262.016 354.936 267.406Z" fill="white"/>
<path d="M371.892 278.054C371.892 280.79 373.452 283.009 375.372 283.009C376.503 283.009 377.506 282.242 378.134 281.051C377.626 281.746 376.932 282.169 376.164 282.169C374.569 282.169 373.275 280.325 373.275 278.054C373.275 275.781 374.569 273.939 376.164 273.939C376.932 273.939 377.626 274.363 378.134 275.056C377.506 273.867 376.503 273.098 375.372 273.098C373.452 273.098 371.892 275.317 371.892 278.054Z" fill="white"/>
<path d="M334.705 254.154C334.705 254.154 347.497 255.047 348.686 255.641C349.875 256.237 352.553 283.009 352.553 283.009H329.35C329.35 283.009 328.755 263.375 334.705 254.154Z" fill="#ED5A28"/>
<path d="M387.155 259.306L387.726 261.996L387.976 263.185L388.321 264.816L388.761 266.898L389.094 268.517L389.534 270.575L389.868 272.182L390.308 274.24L390.64 275.822L391.069 277.845L391.403 279.428L391.819 281.438L392.152 283.009L392.509 284.699H472.233V259.306C472.233 259.306 458.359 261.686 437.726 261.686C417.105 261.686 387.155 259.306 387.155 259.306Z" fill="#F4B71E"/>
<path d="M387.726 261.996L392.509 284.699H468.663V261.686C468.663 261.686 454.788 264.066 434.155 264.066C418.2 264.066 396.65 262.638 387.726 261.996Z" fill="#DC933F"/>
<path d="M387.976 263.185L388.321 264.816C416.224 267.445 444.342 267.422 472.233 264.756V263.149C444.222 266.065 415.986 266.077 387.976 263.185Z" fill="#F9D964"/>
<path d="M388.761 266.898L389.094 268.517C416.748 270.551 444.568 270.515 472.233 268.41V266.792C444.472 269.16 416.522 269.194 388.761 266.898Z" fill="#F9D964"/>
<path d="M389.535 270.575L389.869 272.182C417.284 273.669 444.818 273.621 472.233 272.05V270.445C444.71 272.264 417.057 272.3 389.535 270.575Z" fill="#F9D964"/>
<path d="M390.309 274.24L390.641 275.822C417.807 276.786 445.056 276.751 472.233 275.704V274.108C444.96 275.381 417.593 275.417 390.309 274.24Z" fill="#F9D964"/>
<path d="M391.07 277.845L391.404 279.428C418.331 279.891 445.305 279.88 472.233 279.356V277.761C445.199 278.499 418.104 278.535 391.07 277.845Z" fill="#F9D964"/>
<path d="M391.82 281.438L392.153 283.009H472.233V281.414C445.436 281.628 418.616 281.64 391.82 281.438Z" fill="#F9D964"/>
<path d="M383.193 253.036C383.193 253.036 318.01 223.902 286.81 221.457C286.81 221.457 343.354 236.437 376.351 253.036H383.193Z" fill="#F4B71E"/>
<path d="M472.233 256.237C472.233 256.237 436.797 231.299 398.839 221.458C398.839 221.458 437.772 229.464 476.224 254.75L472.233 256.237Z" fill="#F4B71E"/>
<path d="M299.305 289.458V309.484C299.305 312.113 301.435 314.243 304.065 314.243H508.132C510.761 314.243 512.891 312.113 512.891 309.484V289.458C512.891 286.828 510.761 284.698 508.132 284.698H304.065C301.435 284.699 299.305 286.828 299.305 289.458Z" fill="white"/>
<path d="M299.305 289.458V309.484C299.305 312.113 301.435 314.243 304.065 314.243H342.737C345.366 314.243 347.497 312.113 347.497 309.484V289.458C347.497 286.828 345.366 284.698 342.737 284.698H304.065C301.435 284.699 299.305 286.828 299.305 289.458Z" fill="#C4F1F7"/>
<path d="M464.106 287.471H406.396V311.864H464.106V287.471Z" fill="#8F9194"/>
<path d="M168.417 303.362H229.942L231.131 289.68H167.227C167.227 289.68 166.036 296.521 168.417 303.362Z" fill="#DC933F"/>
<path d="M84.885 292.814H93.001C94.547 254.94 99.795 251.774 97.617 249.395C96.296 247.955 93.203 247.383 90.966 247.158C87.385 265.887 85.278 288.482 84.885 292.814Z" fill="#ED5A28"/>
<path d="M79.1741 289.458V309.484C79.1741 312.113 81.3041 314.243 83.9341 314.243H92.8581C95.4881 314.243 97.6181 312.113 97.6181 309.484V289.458C97.6181 286.828 95.4881 284.698 92.8581 284.698H83.9341C81.3041 284.699 79.1741 286.828 79.1741 289.458Z" fill="#C4F1F7"/>
<path d="M261.833 223.83C261.833 223.83 261.563 224.326 261.183 225.242C260.781 226.151 260.287 227.476 259.74 229.089C259.502 229.905 259.244 230.788 258.97 231.724C258.677 232.656 258.435 233.653 258.22 234.694C257.995 235.733 257.763 236.808 257.527 237.899C257.36 239.002 257.19 240.122 257.021 241.242C256.876 242.367 256.68 243.485 256.586 244.595C256.506 245.707 256.427 246.802 256.35 247.862C256.27 248.921 256.223 249.946 256.173 250.917C256.147 251.889 256.177 252.81 256.176 253.658C256.179 255.355 256.256 256.769 256.275 257.756C256.32 258.743 256.345 259.307 256.345 259.307C256.345 259.307 256.404 258.743 256.507 257.759C256.583 256.774 256.742 255.37 256.844 253.686C256.907 252.844 256.943 251.932 257.039 250.97C257.158 250.011 257.29 249 257.394 247.952C257.502 246.906 257.614 245.824 257.727 244.724C257.834 243.625 258.043 242.521 258.197 241.41C258.351 240.299 258.507 239.188 258.658 238.095C258.857 237.01 259.054 235.941 259.243 234.907C259.432 233.872 259.586 232.865 259.808 231.928C260.012 230.985 260.204 230.092 260.381 229.269C260.586 228.451 260.773 227.701 260.938 227.038C261.09 226.366 261.256 225.795 261.397 225.323C261.659 224.371 261.833 223.83 261.833 223.83Z" fill="#DC933F"/>
<path d="M201.337 219.25C201.337 219.25 200.841 220.161 200.149 221.85C199.764 222.682 199.429 223.735 199.003 224.931C198.581 226.127 198.076 227.474 197.713 228.994C197.305 230.503 196.863 232.137 196.397 233.866C196.014 235.613 195.634 237.464 195.268 239.382C194.894 241.3 194.483 243.278 194.253 245.316C193.978 247.347 193.698 249.41 193.418 251.473C193.294 252.507 193.151 253.539 193.05 254.57C192.979 255.604 192.909 256.635 192.839 257.657C192.7 259.701 192.563 261.712 192.43 263.658C192.311 265.604 192.138 267.484 192.147 269.272C192.14 271.06 192.133 272.75 192.126 274.309C192.105 277.428 192.162 280.027 192.166 281.845C192.196 283.66 192.214 284.7 192.214 284.7C192.214 284.7 192.281 283.662 192.398 281.846C192.49 280.031 192.668 277.44 192.796 274.329C192.863 272.776 192.937 271.092 193.015 269.311C193.075 267.53 193.337 265.663 193.46 263.726C193.616 261.788 193.779 259.788 193.945 257.755C194.028 256.738 194.11 255.713 194.194 254.685C194.307 253.661 194.467 252.636 194.598 251.61C194.849 249.554 195.101 247.5 195.349 245.475C195.551 243.444 195.934 241.475 196.281 239.566C196.613 237.654 196.935 235.805 197.239 234.052C197.635 232.318 198.009 230.679 198.356 229.165C198.673 227.642 199.081 226.28 199.421 225.064C199.769 223.85 200.036 222.777 200.362 221.933C200.67 221.082 200.875 220.396 201.055 219.943C201.24 219.492 201.337 219.25 201.337 219.25Z" fill="#DC933F"/>
<path d="M144.317 214.921C144.317 214.921 143.993 215.519 143.536 216.621C143.292 217.167 143.022 217.84 142.748 218.623C142.472 219.405 142.115 220.279 141.831 221.261C141.548 222.244 141.242 223.309 140.918 224.436C140.566 225.557 140.323 226.769 140.053 228.019C139.797 229.271 139.479 230.557 139.253 231.88C139.058 233.209 138.86 234.558 138.66 235.906C138.498 237.261 138.237 238.603 138.166 239.946C138.07 241.283 137.976 242.599 137.884 243.875C137.807 245.15 137.732 246.381 137.662 247.55C137.663 248.72 137.663 249.826 137.664 250.849C137.661 252.891 137.73 254.592 137.746 255.781C137.786 256.97 137.809 257.648 137.809 257.648C137.809 257.648 137.871 256.97 137.977 255.784C138.058 254.598 138.224 252.905 138.333 250.876C138.394 249.861 138.458 248.763 138.527 247.601C138.654 246.444 138.788 245.224 138.926 243.962C139.05 242.698 139.178 241.395 139.307 240.068C139.39 238.738 139.663 237.41 139.837 236.07C140.02 234.73 140.203 233.39 140.383 232.072C140.617 230.763 140.85 229.475 141.074 228.229C141.319 226.987 141.472 225.764 141.756 224.638C142.01 223.504 142.25 222.431 142.471 221.441C142.708 220.455 142.97 219.562 143.166 218.759C143.361 217.955 143.563 217.265 143.749 216.702C144.087 215.565 144.317 214.921 144.317 214.921Z" fill="#DC933F"/>
<path d="M114.757 256.065C114.425 255.702 114.266 255.224 114.31 254.717L115.251 243.97C115.337 242.976 116.218 242.165 117.213 242.165H127.963C128.468 242.165 128.927 242.364 129.258 242.725C129.59 243.087 129.749 243.566 129.705 244.073L128.764 254.82C128.677 255.832 127.815 256.624 126.802 256.624H116.053C115.548 256.624 115.089 256.426 114.757 256.065ZM117.214 243.356C116.826 243.356 116.471 243.684 116.437 244.074L115.497 254.821C115.481 254.991 115.531 255.147 115.636 255.26C115.74 255.373 115.887 255.435 116.055 255.435H126.804C127.192 255.435 127.547 255.107 127.58 254.717L128.521 243.97C128.537 243.799 128.486 243.644 128.381 243.53C128.279 243.418 128.13 243.356 127.964 243.356H117.214Z" fill="#DC933F"/>
<path d="M205.601 231.347C205.601 231.347 216.011 230.951 217.796 232.141L216.756 236.285H204.509C204.509 236.285 204.312 232.735 205.601 231.347Z" fill="#DC933F"/>
<path d="M146.418 231.347C146.418 231.347 156.828 230.951 158.613 232.141L157.573 236.285H145.327C145.327 236.285 145.13 232.735 146.418 231.347Z" fill="#DC933F"/>
<path d="M265.965 191.851C266.333 194.433 266.762 197.123 267.214 199.788C269.022 210.39 271.236 220.444 271.236 220.444C271.236 220.444 282.659 221.29 298.997 222.145C302.162 222.301 305.505 222.467 308.979 222.622C308.991 222.622 308.991 222.622 308.991 222.622C320.14 223.134 332.706 223.574 345.117 223.753C354.624 223.883 364.048 223.86 372.686 223.599C377.422 223.456 381.908 223.23 386.049 222.92C387.262 222.836 388.44 222.73 389.582 222.622C396.674 221.968 402.505 221.004 406.396 219.647C406.396 219.647 396.758 207.569 386.346 195.838C386.333 195.826 386.333 195.826 386.333 195.826C378.825 187.342 370.912 179.059 365.938 175.621C365.938 175.621 362.749 175.503 357.514 175.324C349.506 175.062 336.691 174.681 323.125 174.408C321.233 174.372 319.318 174.337 317.402 174.3C313.01 174.23 308.585 174.17 304.29 174.134C293.08 174.039 282.669 174.111 275.41 174.491C270.758 174.729 267.403 175.097 265.986 175.621C264.298 176.252 264.775 183.414 265.965 191.851Z" fill="#6383EA"/>
<path d="M205.601 216.078L217.607 216.78L229.469 217.469L234.694 217.779L260.039 219.255C260.039 219.255 257.791 204.345 255.804 191.946C255.339 189.055 254.899 186.307 254.494 183.915V183.903C253.722 179.309 253.113 176.037 252.899 175.621C252.614 175.062 247.366 174.706 240.726 174.479C237.217 174.36 233.314 174.276 229.553 174.229C220.439 174.086 212.145 174.098 212.145 174.098C212.145 174.098 210.099 182.665 207.815 198.61C207.647 199.705 207.493 200.823 207.338 201.99C207.04 204.132 206.742 206.392 206.445 208.76C206.16 211.091 205.886 213.532 205.601 216.078Z" fill="#6383EA"/>
<path d="M148.581 213.305L186.978 215.364L200.247 216.078C200.247 216.078 200.89 211.747 201.961 205.571C202.306 203.584 202.697 201.394 203.126 199.098C203.34 198.015 203.555 196.896 203.769 195.765C205.209 188.401 206.97 180.368 208.874 174.098C208.874 174.098 185.991 174.348 175.164 176.061C173.735 176.287 172.522 176.537 171.594 176.811C171.321 176.895 171.047 177.001 170.761 177.156C169.5 177.822 168.084 179.168 166.61 180.94C163.681 184.462 160.493 189.71 157.625 194.968C152.627 204.131 148.581 213.305 148.581 213.305Z" fill="#6383EA"/>
<path d="M275.412 174.491C295.688 188.294 320.641 205.666 345.117 223.753C354.624 223.883 364.048 223.86 372.686 223.599C349.947 206.285 325.721 188.997 304.291 174.134C293.082 174.038 282.671 174.11 275.412 174.491Z" fill="#F97C08"/>
<path d="M357.515 175.324C366.831 181.832 376.553 188.733 386.333 195.826C378.825 187.342 370.912 179.059 365.938 175.621C365.938 175.621 362.751 175.502 357.515 175.324Z" fill="#F97C08"/>
<path d="M206.446 208.759C206.16 211.091 205.886 213.531 205.601 216.077L217.607 216.779C213.871 214.078 210.134 211.389 206.446 208.759Z" fill="#F97C08"/>
<path d="M157.624 194.968C166.764 201.227 176.687 208.105 186.978 215.363L200.247 216.077C200.247 216.077 200.89 211.746 201.961 205.57C189.526 196.741 177.508 188.4 166.609 180.939C163.68 184.461 160.492 189.709 157.624 194.968Z" fill="#F97C08"/>
<path d="M317.404 174.299C337.621 188.091 362.108 205.202 386.05 222.919C387.263 222.835 388.441 222.729 389.583 222.621C367.606 205.845 344.153 189.043 323.127 174.407C321.235 174.371 319.32 174.336 317.404 174.299Z" fill="#F97C08"/>
<path d="M207.815 198.61C207.647 199.705 207.493 200.823 207.338 201.99C214.43 206.904 221.866 212.093 229.469 217.469L234.694 217.779C225.591 211.175 216.548 204.738 207.815 198.61Z" fill="#F97C08"/>
<path d="M170.76 177.156C179.791 183.176 190.881 190.661 203.125 199.098C203.339 198.015 203.554 196.896 203.768 195.765C193.607 188.662 183.933 182.011 175.164 176.061C173.735 176.287 172.522 176.537 171.594 176.811C171.321 176.895 171.046 177.001 170.76 177.156Z" fill="#F97C08"/>
<path d="M308.979 222.621C294.379 211.876 279.683 201.43 265.965 191.85C266.333 194.432 266.762 197.122 267.214 199.787C277.28 206.748 288.037 214.292 298.996 222.144C302.162 222.301 305.504 222.467 308.979 222.621Z" fill="#F97C08"/>
<path d="M229.553 174.229C237.001 179.191 245.926 185.188 255.803 191.946C255.338 189.055 254.898 186.307 254.493 183.915V183.903C249.722 180.619 245.117 177.465 240.726 174.479C237.217 174.36 233.314 174.276 229.553 174.229Z" fill="#F97C08"/>
<path d="M261.833 223.83C261.833 223.83 261.139 213.771 260.039 212.903C258.939 212.035 251.918 207.748 250.822 206.557C249.726 205.367 231.576 206.159 231.132 208.539C230.688 210.919 229.003 218.06 232.82 219.249C236.637 220.438 250.822 221.456 250.822 221.456C250.822 221.456 256.488 223.826 261.833 223.83Z" fill="#A3A5A8"/>
<path d="M158.16 273.299C160.004 275.359 161.671 277.643 163.146 280.129V273.311L158.16 273.299Z" fill="#6D6E70"/>
<path d="M172.424 264.089H163.147V273.365H172.424V264.089Z" fill="#6D6E70"/>
<path d="M183.366 273.284H174.089V282.56H183.366V273.284Z" fill="#6D6E70"/>
<path d="M192.646 264.068H183.37V273.344H192.646V264.068Z" fill="#6D6E70"/>
<path d="M203.588 273.264H194.312V282.54H203.588V273.264Z" fill="#6D6E70"/>
<path d="M212.868 264.048H203.592V273.325H212.868V264.048Z" fill="#6D6E70"/>
<path d="M223.811 273.244H214.534V282.52H223.811V273.244Z" fill="#6D6E70"/>
<path d="M233.091 264.028H223.814V273.304H233.091V264.028Z" fill="#6D6E70"/>
<path d="M234.753 273.215V281.545C236.443 278.487 238.406 275.691 240.619 273.229L234.753 273.215Z" fill="#6D6E70"/>
<path d="M244.035 264.007V269.813C246.796 267.375 249.83 265.399 253.065 264.007H244.035Z" fill="#6D6E70"/>
<path d="M284.479 263.971V268.897C286.074 270.195 287.585 271.646 289 273.241H293.76V263.971H284.479Z" fill="#6D6E70"/>
<path d="M304.7 273.163H295.423V282.439H304.7V273.163Z" fill="#6D6E70"/>
<path d="M313.981 263.947H304.704V273.224H313.981V263.947Z" fill="#6D6E70"/>
<path d="M324.922 273.142H315.646V282.419H324.922V273.142Z" fill="#6D6E70"/>
<path d="M95.5361 273.204V282.473L103.365 282.485C103.806 281.606 104.294 280.748 104.806 279.916V273.205L95.5361 273.204Z" fill="#6D6E70"/>
<path d="M104.805 273.204V273.263H109.696C111.063 271.705 112.54 270.288 114.086 269.016V263.994L104.816 263.983L104.805 273.204Z" fill="#6D6E70"/>
<path d="M231.136 163.793L271.342 164.209L275.852 164.258H299.305L282.397 131.988H247.342L231.136 163.793Z" fill="#B6E2EB"/>
<path d="M271.342 164.209L275.852 164.258H299.305L282.397 131.988H276.852L271.342 164.209Z" fill="#C4F1F7"/>
<path d="M598.848 104.142C604.621 103.963 611.618 106.002 612.368 112.913C613.118 119.823 609.38 126.394 613.005 132.511C616.63 138.628 619.033 141.95 617.423 147.41C615.813 152.87 588.083 153.582 582.985 145.425C577.887 137.268 583.665 126.741 582.985 119.599C582.304 112.46 598.848 104.142 598.848 104.142Z" fill="#58595B"/>
<path d="M572.563 150.405C572.563 150.405 562.526 163.57 558.771 166.686C555.015 169.803 553.852 180.561 558.635 178.485C563.416 176.409 575.176 160.385 575.176 160.385L572.563 150.405Z" fill="#EF6E4B"/>
<path d="M565.104 161.48C565.539 166.22 568.565 173.036 572.78 174.25C572.789 174.25 572.807 174.259 572.816 174.259C573.777 174.531 574.756 173.853 575.708 172.51C575.88 172.275 576.052 172.011 576.225 171.732C576.65 171.025 577.068 170.201 577.484 169.275C577.611 168.995 577.738 168.695 577.856 168.397H577.865C578.291 167.373 578.717 166.24 579.125 165.052C579.216 164.781 579.315 164.499 579.406 164.218C579.415 164.2 579.415 164.191 579.424 164.173C579.932 162.642 580.557 161.009 581.255 159.351C581.373 159.08 581.49 158.798 581.609 158.518C581.872 157.902 582.143 157.285 582.424 156.668C582.551 156.388 582.678 156.107 582.795 155.835C583.267 154.819 583.747 153.814 584.228 152.835C584.364 152.554 584.499 152.273 584.635 152.001C584.962 151.331 585.287 150.679 585.613 150.044C585.749 149.771 585.886 149.5 586.021 149.237C588.623 144.198 590.842 140.401 590.842 140.401C590.842 140.401 590.751 140.383 590.579 140.346H590.57C588.848 139.992 579.333 138.162 576.94 139.857C576.922 139.867 576.912 139.875 576.894 139.893C576.649 140.075 576.369 140.364 576.07 140.727C575.516 141.407 574.891 142.35 574.22 143.464C574.012 143.809 573.804 144.171 573.586 144.552C572.987 145.585 572.371 146.699 571.746 147.842C571.583 148.132 571.42 148.431 571.265 148.72C570.74 149.681 570.214 150.642 569.706 151.548C569.534 151.865 569.361 152.164 569.181 152.464C568.464 153.733 567.777 154.874 567.16 155.763C566.97 156.034 566.789 156.288 566.616 156.505C566.381 156.786 566.173 157.022 565.972 157.204C565.719 157.43 565.519 157.756 565.374 158.145C565.184 158.643 565.084 159.26 565.057 159.958V159.968C565.041 160.438 565.058 160.946 565.104 161.48Z" fill="#CE364C"/>
<path d="M565.104 161.477C565.538 166.237 568.582 173.074 572.819 174.261C575.085 174.899 577.4 170.253 579.402 164.217C578.534 155.636 576.657 148.123 576.657 148.123C573.492 151.172 569.036 156.305 565.104 161.477Z" fill="#AF2243"/>
<path d="M538.899 337.372C540.596 336.001 544.95 330.129 545.846 327.179C547.111 323.008 548.608 317.277 550.138 311.031H556.657C554.519 317.844 553.15 323.542 552.537 326.108C552.559 326.54 552.657 326.898 552.777 327.312C552.962 327.938 553.323 337.426 553.323 337.426H538.724C538.781 337.408 538.827 337.396 538.855 337.389C538.881 337.381 538.89 337.38 538.899 337.372Z" fill="#EF6E4B"/>
<path d="M587.839 311.032H595.546C594.107 318.972 592.98 325.714 592.98 325.714V337.428H584.582C585.391 333.921 587.726 323.412 587.726 318.981C587.726 316.377 587.769 313.717 587.839 311.032Z" fill="#FF8B66"/>
<path d="M548.327 318.231C552.907 300.605 558.577 273.921 559.313 269.502C559.79 266.647 560.215 257.581 561.338 246.453C561.633 233.765 563.094 204.751 570.222 188.282L587 188.675C586.32 201.754 599.001 215.867 583.56 230.994C581.549 236.642 574.887 255.796 573.92 264.232C572.779 274.185 570.923 278.599 565.167 289.703C560.185 299.314 556.656 310.516 554.543 318.23L548.327 318.231Z" fill="#5174CE"/>
<path d="M605.194 245.663C604.118 251.235 602.593 254.963 601.754 259.651C600.532 266.476 604.009 276.366 600.502 287.36C598.843 292.563 595.742 309.747 594.088 319.249H587.722C587.724 319.159 587.727 319.064 587.727 318.979C587.727 295.85 590.917 268.274 590.444 257.789C590.245 253.371 589.49 247.103 588.698 241.399C588.694 241.37 586.23 224.812 583.827 223.423C573.985 217.734 570.223 188.281 570.223 188.281L595.335 189.45C595.335 189.45 609.964 201.604 606.123 223.242C606.123 223.242 606.138 223.463 606.158 223.852C606.769 234.039 606.168 240.614 605.194 245.663Z" fill="#6383EA"/>
<path d="M554.06 337.427C554.06 337.427 554.703 328.744 553.007 326.476C553.007 326.476 551.13 329.458 548.562 329.458C546.891 329.458 546.216 325.611 544.787 326.476C543.533 327.235 542.688 329.405 539.318 331.625C535.948 333.847 533.211 333.215 533.002 337.427H554.06Z" fill="#CE364C"/>
<path d="M594.18 328.371C594.18 328.371 594.076 325.486 590.072 325.824C586.071 326.159 586.359 329.061 586.359 329.061C586.359 329.061 585.755 328.595 585.229 329.061C584.702 329.529 585.148 333.53 584.135 334.373C583.122 335.216 583.439 337.427 583.439 337.427H595.127C595.127 337.427 595.758 334.584 594.6 333.531C593.444 332.478 596.391 328.688 594.18 328.371Z" fill="#CE364C"/>
<path d="M565.792 199.77C565.792 199.77 570.542 213.718 589.492 222.726C606.946 231.037 612.891 229.579 612.891 229.579C612.891 229.579 612.03 226.579 611.07 221.702C611.015 221.403 610.952 221.095 610.888 220.788C610.407 218.231 609.909 215.214 609.492 211.896C609.456 211.597 609.42 211.297 609.384 210.99C609.111 208.68 608.885 206.222 608.732 203.677C608.714 203.367 608.695 203.06 608.677 202.751C608.577 200.894 608.523 198.991 608.514 197.051C608.514 196.752 608.514 196.445 608.523 196.136C608.514 195.656 608.523 195.175 608.532 194.686C608.559 193.362 608.732 191.831 608.995 190.136C609.021 189.973 609.049 189.81 609.076 189.638V189.629C609.357 187.952 609.728 186.121 610.154 184.182C610.608 182.079 611.124 179.859 611.641 177.566C611.713 177.258 611.777 176.95 611.849 176.642C612.175 175.183 612.501 173.706 612.81 172.211H612.819C612.882 171.92 612.936 171.621 613.001 171.322C613.209 170.316 613.408 169.3 613.599 168.286C613.654 167.986 613.708 167.679 613.762 167.381C614.007 166.012 614.225 164.66 614.414 163.328C614.451 163.012 614.496 162.694 614.532 162.377C614.668 161.354 614.767 160.347 614.849 159.359C614.876 159.042 614.894 158.734 614.912 158.425C615.012 156.884 615.039 155.398 614.975 153.976C614.966 153.667 614.949 153.359 614.921 153.06C614.821 151.736 614.631 150.477 614.341 149.318C613.725 146.825 612.628 144.759 610.906 143.281C610.326 142.782 609.682 142.384 609.084 141.931C606.9 140.272 597.692 140.055 590.578 140.345H590.569C586.464 140.508 583.056 140.844 582.086 141.17C581.815 141.26 581.751 141.242 581.669 141.315C580.682 142.239 579.739 143.1 578.851 143.943C578.634 144.151 578.408 144.36 578.199 144.559C577.502 145.23 576.84 145.873 576.206 146.517C575.988 146.744 575.77 146.97 575.562 147.197C574.646 148.176 573.822 149.145 573.106 150.151C572.916 150.405 572.734 150.677 572.571 150.939C572 151.818 571.51 152.734 571.122 153.695C570.976 154.039 570.849 154.392 570.741 154.756C570.406 155.752 570.17 156.813 570.043 157.963C569.961 158.697 569.916 159.468 569.916 160.283C569.916 161.652 570.043 163.139 570.314 164.779C570.442 165.622 570.614 166.509 570.822 167.443C571.049 168.414 571.302 169.419 571.611 170.488V170.497C571.701 170.823 571.801 171.159 571.901 171.494C572.164 172.383 572.462 173.297 572.78 174.249C572.852 174.476 572.934 174.702 573.015 174.937C573.187 175.445 573.286 175.989 573.315 176.551V176.56C573.333 176.941 573.323 177.339 573.278 177.746V177.755C573.17 178.906 572.843 180.139 572.381 181.462C572.282 181.752 572.173 182.052 572.055 182.359C571.711 183.257 571.321 184.19 570.905 185.159C570.778 185.459 570.641 185.757 570.506 186.066C569.999 187.216 569.464 188.413 568.939 189.646C568.803 189.971 568.668 190.289 568.531 190.615C568.16 191.513 567.806 192.428 567.471 193.352C567.344 193.705 567.226 194.067 567.108 194.421C566.837 195.245 566.583 196.078 566.374 196.914C566.275 197.303 566.184 197.701 566.094 198.092C565.973 198.646 565.874 199.208 565.792 199.77Z" fill="#CE364C"/>
<path d="M585.558 108.796C580.567 108.664 580.239 119.604 586.227 125.421C592.215 131.238 593.704 109.01 585.558 108.796Z" fill="#8B383E"/>
<path d="M602.579 107.736C602.579 107.736 587.696 102.754 584.7 113.231C581.703 123.709 584.425 134.761 591.41 134.022C601.239 132.982 614.139 113.63 602.579 107.736Z" fill="#FF8B66"/>
<path d="M595.084 122.454C595.15 123.081 594.568 123.657 593.782 123.74C592.998 123.823 592.307 123.381 592.242 122.753C592.175 122.125 592.758 121.55 593.543 121.467C594.327 121.385 595.017 121.827 595.084 122.454Z" fill="#DB614D"/>
<path d="M593.928 116.03C593.832 116.024 593.74 115.974 593.686 115.887C593.066 114.919 591.867 115.033 591.854 115.034C591.684 115.053 591.532 114.93 591.514 114.76C591.496 114.59 591.62 114.438 591.789 114.42C591.853 114.413 593.383 114.268 594.206 115.555C594.298 115.698 594.256 115.89 594.112 115.982C594.055 116.017 593.991 116.033 593.928 116.03Z" fill="#58595B"/>
<path d="M587.069 114.439C587.006 114.436 586.943 114.412 586.891 114.369C586.011 113.64 584.931 114.096 584.885 114.116C584.729 114.184 584.547 114.112 584.479 113.955C584.411 113.799 584.482 113.618 584.637 113.549C584.697 113.523 586.109 112.918 587.285 113.893C587.416 114.002 587.433 114.197 587.325 114.329C587.261 114.407 587.164 114.444 587.069 114.439Z" fill="#58595B"/>
<path d="M585.558 125.421C585.558 125.421 587.804 126.868 591.73 125.6C591.73 125.6 590.549 130.253 588.054 129.663C585.558 129.071 585.558 125.421 585.558 125.421Z" fill="#1A4850"/>
<path d="M596.653 113.122C596.653 113.122 600.058 117.462 599.884 123.097C599.884 123.097 602.381 120.037 603.688 122.696C604.994 125.355 599.763 129.239 599.763 129.239C599.763 129.239 608.185 129.714 609.175 118.82C609.591 114.231 603.634 110.04 596.653 113.122Z" fill="#58595B"/>
<path d="M599.577 126.887C598.435 129.962 594.058 135.289 589.421 133.768C589.421 133.768 589.938 139.723 587.478 140.298C587.478 140.298 586.622 143.572 591.258 144.077C597.059 144.708 601.511 139.844 601.511 139.844C597.712 140.101 601.233 127.455 601.233 127.455C599.979 128.282 599.577 126.887 599.577 126.887Z" fill="#EF6E4B"/>
<path d="M586.297 123.865L586.573 123.243C586.46 123.192 585.477 122.716 585.871 121.756C585.991 121.466 586.157 121.281 586.363 121.207C586.729 121.076 587.143 121.299 587.148 121.302L587.476 120.706C587.449 120.691 586.796 120.335 586.143 120.563C585.743 120.703 585.44 121.017 585.243 121.497C584.72 122.771 585.705 123.603 586.297 123.865Z" fill="#DB614D"/>
<path d="M592.897 119.774C592.854 120.444 592.474 120.964 592.05 120.936C591.625 120.908 591.318 120.344 591.36 119.674C591.403 119.004 591.783 118.484 592.208 118.511C592.632 118.538 592.941 119.104 592.897 119.774Z" fill="#1A4850"/>
<path d="M593.3 119.6C593.3 119.6 592.945 118.059 592.399 118.023C591.853 117.987 590.94 119.013 590.94 119.013L589.937 118.283L590.903 118.662C590.903 118.662 591.738 117.489 592.497 117.728C593.255 117.966 593.3 119.6 593.3 119.6Z" fill="#1A4850"/>
<path d="M586.699 118.813C586.656 119.483 586.276 120.003 585.852 119.976C585.427 119.948 585.119 119.383 585.163 118.713C585.206 118.044 585.586 117.524 586.01 117.55C586.434 117.579 586.742 118.144 586.699 118.813Z" fill="#1A4850"/>
<path d="M587.101 118.64C587.101 118.64 586.747 117.099 586.201 117.063C585.655 117.027 584.741 118.053 584.741 118.053L583.739 117.322L584.705 117.701C584.705 117.701 585.539 116.527 586.298 116.767C587.057 117.006 587.101 118.64 587.101 118.64Z" fill="#1A4850"/>
<path d="M592.884 110.092C592.884 110.092 590.634 121.904 599.883 123.097C599.883 123.097 603.187 117.482 607.549 121.411C607.549 121.411 612.211 108.601 601.232 106.552C601.232 106.552 599.097 101.644 590.553 103.204C578.62 105.383 578.452 118.51 583.493 123.865C583.493 123.865 580.361 107.929 592.884 110.092Z" fill="#58595B"/>
<path d="M614.095 234.817C613.999 235.639 616.154 236.555 616.154 236.555C616.154 236.555 616.909 238.003 618.021 238.003C619.132 238.003 621.408 234.236 619.629 232.293C617.85 230.349 614.393 232.252 614.095 234.817Z" fill="#EF6E4B"/>
<path d="M612.225 243.581C612.386 243.581 612.53 243.467 612.559 243.302C612.574 243.223 614.046 235.411 620.202 233.991C621.495 233.694 622.412 233.848 622.922 234.45C624.213 235.975 622.905 240.155 622.292 241.636C622.221 241.811 622.303 242.009 622.476 242.081C622.649 242.153 622.847 242.07 622.92 241.896C623.017 241.664 625.263 236.163 623.44 234.01C622.752 233.195 621.61 232.966 620.048 233.328C613.45 234.849 611.903 243.097 611.888 243.181C611.855 243.366 611.978 243.542 612.163 243.576C612.185 243.579 612.206 243.581 612.225 243.581Z" fill="#0A4993"/>
<path d="M600.971 243.796L631.854 238.496L632.668 239.445L639.281 239.339L619.634 253.976L608.541 253.631L604.611 250.359L600.971 243.796Z" fill="#DC933F"/>
<path d="M639.472 257.051L646.756 281.23L612.924 289.989L602.203 286.668L603.214 259.707L600.968 243.796L607.303 244.293L608.157 245.783L639.281 239.339L639.472 257.051Z" fill="#F9D964"/>
<path d="M602.202 286.664L612.927 289.991L609.244 263.715L608.162 245.783L607.303 244.29L600.971 243.796L603.212 259.707L602.202 286.664Z" fill="#DC933F"/>
<path d="M602.202 286.664L608.837 282.271L606.725 262.224L607.303 244.29L600.971 243.796L603.212 259.707L602.202 286.664Z" fill="#F4B71E"/>
<path d="M608.837 282.271L612.927 289.991L602.202 286.664L608.837 282.271Z" fill="#F9D964"/>
<path d="M618.901 246.034C618.948 246.034 618.996 246.024 619.041 246.004C619.212 245.928 619.289 245.726 619.212 245.556C619.171 245.463 615.13 236.289 620.267 233.971C625.741 231.5 631.341 243.37 631.398 243.492C631.477 243.662 631.679 243.737 631.85 243.657C632.02 243.578 632.093 243.376 632.014 243.206C631.774 242.69 626.072 230.606 619.988 233.352C614.235 235.949 618.412 245.433 618.592 245.834C618.648 245.959 618.772 246.034 618.901 246.034Z" fill="#0A4993"/>
<path d="M620.127 226.542C620.127 226.542 624.241 232.042 623.817 233.288C623.394 234.535 620.127 235.975 620.127 235.975C620.127 235.975 619.502 238.222 618.021 238.003C618.021 238.003 618.675 236.672 618.201 235.289C617.726 233.907 615.493 233.502 615.493 233.502L614.095 234.816C614.095 234.816 614.003 228.86 614.912 227.122C615.823 225.385 620.127 226.542 620.127 226.542Z" fill="#FF8B66"/>
<path d="M582.086 141.171C590.026 153.351 610.471 150.088 610.471 150.088C610.471 150.088 616.199 145.701 612.745 141.052C611.976 140.028 609.764 139.095 607.58 139.04C607.072 139.031 606.574 139.058 606.094 139.149C596.225 140.952 589.572 140.236 583.891 140.236C583.809 140.236 583.737 140.236 583.664 140.245C582.086 140.319 582.086 141.171 582.086 141.171Z" fill="#FF8B66"/>
<path d="M558.543 178.219C561.033 173.444 560.418 150.746 561.822 145.468L556.476 144.834C556.476 144.834 556.275 148.104 554.689 154.317C553.103 160.53 549.931 175.535 553.103 178.228C556.275 180.921 558.543 178.219 558.543 178.219Z" fill="#FF8B66"/>
<path d="M583.664 140.246C584.561 142.222 588.649 142.965 588.649 142.965L589.174 144.759L592.237 142.892C599.776 142.438 605.486 139.285 607.58 139.04C607.072 139.031 606.574 139.058 606.094 139.149C596.225 140.952 589.572 140.236 583.891 140.236C583.809 140.237 583.737 140.237 583.664 140.246Z" fill="#EF6E4B"/>
<path d="M561.574 137.414C562.345 142.752 562.299 143.142 562.698 143.514C562.924 143.722 563.106 143.886 565.815 144.438C567.329 144.755 568.082 144.864 568.498 144.827C568.779 144.809 568.906 144.719 568.997 144.574C569.278 144.13 569.214 143.523 568.471 138.103C567.647 132.149 567.611 131.931 567.52 131.678C567.321 131.116 566.921 130.925 564.203 130.527C561.259 130.091 561.167 130.037 560.868 130.282C560.796 130.337 560.742 130.409 560.724 130.536C560.604 131.024 560.849 132.393 561.574 137.414Z" fill="#25559F"/>
<path d="M561.574 137.414C562.345 142.752 562.299 143.142 562.698 143.514C562.924 143.722 563.106 143.886 565.815 144.438C567.329 144.755 568.082 144.864 568.498 144.827C568.697 144.356 568.58 143.386 567.9 138.502C567.075 132.548 567.048 132.33 566.958 132.076C566.759 131.505 566.351 131.315 563.632 130.916C561.801 130.653 561.076 130.526 560.723 130.535C560.604 131.024 560.849 132.393 561.574 137.414Z" fill="#3C71BC"/>
<path d="M568.852 138.25C567.462 136.533 567.464 136.101 563.613 135.633C563.613 135.633 564.59 134.851 564.923 134.511C565.255 134.171 567.055 134.6 567.578 134.115C568.197 133.54 567.347 133.508 566.36 133.464C565.614 133.43 564.618 133.141 564.179 133.385C563.16 133.951 561.74 134.746 560.694 136.032C559.648 137.318 557.269 141.811 556.526 144.595C556.091 146.222 558.601 147.306 560.694 146.236C563.075 145.018 563.471 142.668 565.34 141.422L567.153 142.498C567.153 142.498 566.764 143.769 567.189 143.839C567.505 143.892 567.776 143.112 567.962 142.36C568.053 141.993 567.124 140.486 567.124 140.486L568.228 141.024C568.228 141.024 568.406 142.252 569.077 142.209C569.327 142.193 569.354 141.644 569.276 140.968C569.223 140.513 569.199 140.109 568.823 139.696C568.823 139.696 569.631 139.212 568.852 138.25Z" fill="#FF8B66"/>
<path d="M571.611 170.497C571.701 170.823 571.801 171.159 571.901 171.494C572.037 171.521 572.172 171.558 572.327 171.584C573.967 171.92 576.714 172.482 581.86 175.464C588.685 179.406 596.959 180.158 602.269 180.158C605.487 180.158 607.617 179.877 607.671 179.868L607.553 178.971C607.408 178.99 592.998 180.847 582.313 174.675C577.04 171.629 574.203 171.041 572.507 170.696C572.154 170.624 571.864 170.561 571.611 170.497Z" fill="#C4F1F7"/>
<path d="M573.278 177.747V177.756C577.801 181.59 589.075 184.11 606.874 185.278C607.654 185.333 608.324 185.379 608.441 185.396L608.623 184.507C608.47 184.481 608.016 184.452 606.937 184.38C584.489 182.902 576.169 179.469 573.315 176.56C573.333 176.942 573.323 177.34 573.278 177.747Z" fill="#C4F1F7"/>
<path d="M572.054 182.361C580.283 189.077 600.928 190.181 607.318 190.181C608.125 190.181 608.695 190.164 608.995 190.136C609.085 190.127 609.149 190.118 609.185 190.11L609.077 189.638V189.629L608.986 189.221C607.554 189.457 581.245 189.139 572.382 181.463C572.282 181.753 572.172 182.053 572.054 182.361Z" fill="#C4F1F7"/>
<path d="M570.504 186.068C577.483 193.281 599.515 195.983 608.514 197.051C608.514 196.752 608.514 196.445 608.523 196.136C599.433 195.057 577.23 192.321 570.904 185.16C570.777 185.46 570.64 185.758 570.504 186.068Z" fill="#C4F1F7"/>
<path d="M568.529 190.617C576.632 201.266 599.705 203.297 608.732 203.677C608.714 203.367 608.695 203.06 608.677 202.751C605.025 202.569 599.088 202.117 592.808 200.958C583.473 199.227 573.396 195.927 568.937 189.647C568.801 189.973 568.666 190.29 568.529 190.617Z" fill="#C4F1F7"/>
<path d="M567.106 194.423C577.646 209.151 600.022 211.561 609.493 211.896C609.457 211.597 609.421 211.297 609.385 210.99C599.868 210.637 577.556 208.181 567.47 193.354C567.342 193.707 567.224 194.069 567.106 194.423Z" fill="#C4F1F7"/>
<path d="M566.091 198.094C579.44 217.125 602.786 220.941 611.07 221.701C611.015 221.402 610.952 221.094 610.888 220.787C602.433 219.971 579.304 216.019 566.371 196.916C566.273 197.305 566.182 197.703 566.091 198.094Z" fill="#C4F1F7"/>
<path d="M612.745 141.057C609.724 137.828 604.905 143.087 604.617 152.368C604.501 156.061 605.983 175.795 606.949 188.283C608.118 203.395 614.913 227.123 614.913 227.123C614.913 227.123 617.957 228.467 620.127 226.543C620.127 226.543 617.059 192.696 615.523 185.686C615.523 185.686 618.441 147.145 612.745 141.057Z" fill="#FF8B66"/>
<path d="M595.092 149.472C595.092 149.472 595.409 150.823 595.961 152.979C596.034 153.288 596.125 153.614 596.215 153.958C596.433 154.836 596.687 155.815 596.968 156.867C597.058 157.203 597.149 157.537 597.239 157.89C597.429 158.587 597.629 159.322 597.828 160.065C597.919 160.382 598.01 160.708 598.101 161.035C598.382 162.042 598.671 163.084 598.98 164.125C599.071 164.435 599.162 164.742 599.243 165.041C599.732 166.709 600.249 168.395 600.774 170.026C600.875 170.342 600.974 170.66 601.083 170.968C601.428 172.037 601.79 173.079 602.144 174.075C602.244 174.366 602.352 174.647 602.452 174.928C603.041 176.532 603.63 177.991 604.202 179.204C604.355 179.521 604.501 179.82 604.645 180.102C605.307 181.389 605.941 182.314 606.521 182.721C607.527 183.428 608.805 183.909 610.155 184.18C614.452 185.051 619.408 183.827 618.022 181.416C617.361 180.273 617.415 179.269 617.768 178.153C617.895 177.782 618.048 177.391 618.221 176.975C618.728 175.751 619.4 174.347 619.798 172.497C619.87 172.171 619.934 171.817 619.979 171.456C620.051 170.992 620.097 170.503 620.125 169.978C620.17 169.072 620.098 167.984 619.943 166.789C619.898 166.453 619.853 166.099 619.799 165.746C619.599 164.459 619.327 163.082 619.019 161.685C618.947 161.387 618.875 161.078 618.802 160.78C618.63 160.01 618.43 159.23 618.239 158.468C618.158 158.169 618.086 157.88 618.012 157.589C617.623 156.14 617.224 154.753 616.87 153.547C616.78 153.239 616.698 152.949 616.607 152.677C615.955 150.484 615.465 149.034 615.465 149.034C615.102 149.134 614.722 149.233 614.341 149.315C608.532 150.686 600.847 150.424 595.092 149.472Z" fill="#CE364C"/>
<path d="M576.07 140.726C576.287 141.859 576.985 143.182 578.199 144.56C579.776 146.364 582.242 148.286 585.612 150.043C587.515 151.049 589.709 151.991 592.201 152.843C593.552 153.305 594.893 153.677 596.216 153.958C599.425 154.664 602.533 154.928 605.388 154.928C609.185 154.928 612.52 154.465 614.976 153.977C615.683 153.831 616.318 153.687 616.871 153.55C616.781 153.242 616.699 152.952 616.608 152.68C616.109 152.807 615.548 152.934 614.923 153.061C610.646 153.93 603.549 154.747 595.963 152.979C594.813 152.708 593.653 152.381 592.493 151.983C590.063 151.158 587.906 150.224 586.021 149.237C582.786 147.534 580.375 145.684 578.852 143.945C577.674 142.603 577.022 141.334 576.912 140.256C576.904 140.129 576.894 140.011 576.894 139.893C576.649 140.074 576.369 140.364 576.07 140.726Z" fill="#C4F1F7"/>
<path d="M573.586 144.551C573.912 145.358 574.574 146.254 575.562 147.197C577.366 148.955 580.256 150.894 584.226 152.834C587.561 154.483 591.666 156.133 596.515 157.674C596.759 157.755 596.995 157.828 597.24 157.891C601.518 159.188 605.641 159.84 609.448 159.84C611.333 159.84 613.137 159.676 614.849 159.36C616.027 159.142 617.16 158.852 618.238 158.471C618.157 158.172 618.085 157.883 618.011 157.592C617.024 157.946 615.99 158.217 614.912 158.426C609.7 159.449 603.511 158.924 596.968 156.867C596.905 156.849 596.85 156.83 596.786 156.812C591.911 155.262 587.868 153.613 584.633 151.999C580.663 150.042 577.882 148.13 576.205 146.517C574.927 145.293 574.283 144.242 574.22 143.462C574.012 143.808 573.804 144.17 573.586 144.551Z" fill="#C4F1F7"/>
<path d="M571.266 148.719C571.438 148.946 571.628 149.127 571.801 149.264C571.819 149.87 572.091 150.414 572.57 150.94C573.667 152.155 575.86 153.269 578.697 154.719C579.83 155.289 581.09 155.934 582.422 156.667C582.702 156.813 582.984 156.967 583.274 157.13C587.036 159.223 590.026 159.703 593.815 160.302C595.128 160.511 596.534 160.737 598.101 161.035C599.922 161.398 601.979 161.87 604.391 162.567C607.027 163.319 609.293 163.609 611.233 163.609C612.42 163.609 613.48 163.501 614.414 163.328C616.535 162.948 618.057 162.241 619.017 161.687C618.945 161.389 618.873 161.08 618.8 160.782C617.939 161.271 616.543 161.978 614.531 162.377C612.147 162.857 608.884 162.912 604.643 161.688C601.997 160.927 599.786 160.438 597.828 160.066C596.424 159.804 595.155 159.595 593.95 159.405C590.107 158.798 587.334 158.354 583.718 156.342C583.41 156.171 583.102 155.998 582.793 155.835C581.479 155.118 580.229 154.484 579.105 153.913C576.241 152.445 573.975 151.294 573.105 150.152C572.815 149.79 572.679 149.436 572.706 149.065L572.725 148.792L572.49 148.647C572.463 148.62 572.046 148.358 571.747 147.841C571.584 148.131 571.42 148.43 571.266 148.719Z" fill="#C4F1F7"/>
<path d="M569.182 152.463C569.752 153.432 570.378 154.221 570.586 154.475C570.632 154.575 570.677 154.664 570.74 154.756C571.782 156.504 574.755 157.383 578.47 158.498C579.358 158.761 580.291 159.042 581.252 159.35C582.593 159.776 583.988 160.257 585.385 160.837C586.808 161.425 587.994 161.96 589.046 162.439C592.481 164 594.556 164.941 599.241 165.041C599.938 165.059 600.7 165.059 601.525 165.033C605.757 164.905 606.455 165.459 607.334 166.156C608.123 166.781 609.11 167.551 612.292 168.113C612.744 168.195 613.18 168.25 613.597 168.286C613.995 168.322 614.367 168.341 614.73 168.341C617.159 168.341 618.844 167.598 619.941 166.791C619.896 166.455 619.851 166.101 619.797 165.748C618.736 166.654 616.86 167.634 613.761 167.381C613.344 167.353 612.908 167.298 612.447 167.217C609.493 166.7 608.65 166.029 607.898 165.44C606.765 164.544 605.84 164.001 601.5 164.126C600.575 164.154 599.742 164.154 598.981 164.126C594.676 163.991 592.665 163.085 589.419 161.617C588.368 161.135 587.172 160.592 585.731 159.995C584.335 159.423 582.949 158.942 581.608 158.517C580.611 158.19 579.641 157.901 578.726 157.628C575.01 156.524 572.082 155.643 571.394 154.049L571.321 153.94C571.258 153.868 571.195 153.786 571.123 153.696C570.724 153.188 570.162 152.391 569.709 151.548C569.536 151.865 569.363 152.163 569.182 152.463Z" fill="#C4F1F7"/>
<path d="M566.617 156.504C567.623 157.537 568.937 158.362 569.526 158.706C569.508 159.242 569.634 159.767 569.916 160.283C570.769 161.933 573.033 163.437 576.314 164.471C577.265 164.77 578.217 164.942 579.124 165.051C580.058 165.158 580.954 165.196 581.798 165.232C583.927 165.323 585.767 165.405 587.136 166.51C589.32 168.277 597.15 170.526 601.083 170.969C601.972 171.069 602.669 171.078 603.05 170.969C604.527 170.551 608.288 171.258 612.811 172.211H612.82C613.39 172.328 613.98 172.445 614.569 172.572L614.914 172.645C615.783 172.826 616.563 172.898 617.261 172.898C618.258 172.898 619.101 172.745 619.799 172.5C619.871 172.174 619.935 171.82 619.98 171.459C618.883 171.947 617.307 172.219 615.104 171.757L614.76 171.684C614.153 171.559 613.564 171.431 613.002 171.323C608.062 170.28 604.482 169.618 602.797 170.1C602.462 170.2 601.737 170.163 600.776 170.027C597.051 169.501 589.756 167.462 587.699 165.803C586.104 164.516 584.029 164.426 581.836 164.326C581.047 164.289 580.24 164.253 579.425 164.172C578.5 164.072 577.558 163.908 576.588 163.609C572.646 162.377 570.181 160.328 570.453 158.525L570.499 158.216L570.218 158.062C570.163 158.036 570.109 157.999 570.045 157.962C569.111 157.428 567.951 156.603 567.163 155.761C566.97 156.033 566.79 156.288 566.617 156.504Z" fill="#C4F1F7"/>
<path d="M565.058 159.957V159.967C565.964 161.96 567.306 163.194 568.465 164.253C569.435 165.132 570.269 165.894 570.531 166.872C570.586 167.08 570.685 167.271 570.821 167.443C571.746 168.631 574.401 168.965 577.482 169.273C577.691 169.291 577.899 169.319 578.108 169.336C581.289 169.654 584.886 170.017 586.128 171.305C588.801 174.069 598.987 175.681 602.449 174.93C602.712 174.883 602.929 174.811 603.111 174.729C605.014 173.852 608.303 175.519 611.639 177.566C611.802 177.667 611.965 177.766 612.128 177.866C613.07 178.455 614.058 178.673 615.027 178.673C616.006 178.673 616.949 178.446 617.764 178.156C617.891 177.785 618.044 177.394 618.217 176.978C616.722 177.657 614.474 178.264 612.607 177.104C612.354 176.95 612.1 176.788 611.846 176.642C608.575 174.649 605.039 172.827 602.729 173.905C602.584 173.977 602.384 174.032 602.14 174.077C599.113 174.64 589.28 173.263 586.779 170.68C585.301 169.148 581.695 168.786 578.196 168.432C578.078 168.423 577.979 168.406 577.861 168.397H577.852C574.915 168.106 571.716 167.744 571.409 166.628C571.209 165.921 570.81 165.332 570.311 164.78C569.94 164.382 569.523 163.991 569.079 163.583C567.674 162.306 566.106 160.864 565.372 158.145C565.185 158.643 565.086 159.26 565.058 159.957Z" fill="#C4F1F7"/>
<path d="M607.217 65.488C607.217 69.553 603.921 72.849 599.856 72.849H467.594C463.529 72.849 460.233 69.553 460.233 65.488V27.84C460.233 23.775 463.529 20.479 467.594 20.479H599.856C603.922 20.479 607.217 23.775 607.217 27.84V65.488Z" fill="#F97C08"/>
<path d="M534.993 69.285C534.993 69.285 540.393 88.785 565.443 101.785C565.443 101.785 547.993 89.285 547.993 69.285H534.993Z" fill="#F97C08"/>
<path d="M486.444 37.465L489.433 43.521L496.116 44.492L491.28 49.206L492.422 55.862L486.444 52.72L480.466 55.862L481.608 49.206L476.772 44.492L483.455 43.521L486.444 37.465Z" fill="white"/>
<path d="M510.085 37.465L513.074 43.521L519.756 44.492L514.92 49.206L516.062 55.862L510.085 52.72L504.107 55.862L505.249 49.206L500.413 44.492L507.095 43.521L510.085 37.465Z" fill="white"/>
<path d="M533.725 37.465L536.714 43.521L543.397 44.492L538.561 49.206L539.703 55.862L533.725 52.72L527.748 55.862L528.889 49.206L524.053 44.492L530.736 43.521L533.725 37.465Z" fill="white"/>
<path d="M557.366 37.465L560.355 43.521L567.038 44.492L562.202 49.206L563.343 55.862L557.366 52.72L551.388 55.862L552.53 49.206L547.694 44.492L554.377 43.521L557.366 37.465Z" fill="white"/>
<path d="M581.006 37.465L583.996 43.521L590.678 44.492L585.842 49.206L586.984 55.862L581.006 52.72L575.029 55.862L576.17 49.206L571.335 44.492L578.017 43.521L581.006 37.465Z" fill="white"/>
<path d="M694.464 340.524C694.464 342.181 693.12 343.525 691.463 343.525H3C1.343 343.525 0 342.181 0 340.524C0 338.868 1.343 337.524 3 337.524H691.464C693.121 337.524 694.464 338.867 694.464 340.524Z" fill="#6383EA"/>
</svg>
