<svg width="320" height="146" viewBox="0 0 320 146" fill="none" xmlns="http://www.w3.org/2000/svg">
<path d="M204.375 23.306L208.413 14.3614L194.896 6.89456L208.413 14.3614L204.375 23.306Z" fill="url(#paint0_linear_1_65)"/>
<path d="M90.089 70.8241C90.232 70.5973 90.4281 70.3954 90.6711 70.2365C91.3213 69.8116 91.9854 69.3934 92.6565 68.978C97.8586 37.787 126.162 13.8724 160.201 13.8724C189.387 13.8724 214.349 31.458 224.157 56.1316L225.502 56.3096C226.553 56.4436 227.609 56.5661 228.662 56.6924C228.126 55.2014 227.536 53.7294 226.894 52.2814L226.609 51.6392L227.194 51.2229L234.687 45.8912L227.709 34.3263L219.117 37.8769L218.449 38.1535L218.01 37.5975C213.956 32.4639 209.18 27.894 203.815 24.0151L203.234 23.595L203.523 22.9557L207.233 14.7346L195.147 8.05736L189.575 15.2256L189.14 15.7855L188.469 15.5127C182.329 13.0196 175.802 11.3563 169.07 10.5686L168.346 10.4844L168.262 9.79152L167.178 0.88623H153.222L152.138 9.79152L152.054 10.4844L151.33 10.5686C144.598 11.3563 138.071 13.0196 131.931 15.5127L131.26 15.7855L130.825 15.2256L125.253 8.05736L113.167 14.7346L116.877 22.9557L117.165 23.595L116.584 24.0151C111.219 27.894 106.443 32.4639 102.389 37.5975L101.95 38.1535L101.282 37.8769L92.6915 34.3263L85.7131 45.8912L93.2056 51.2229L93.7908 51.6392L93.5057 52.2814C90.9142 58.1251 89.1818 64.3363 88.3537 70.7438C88.4527 70.7476 88.5447 70.7505 88.6437 70.7552C89.1278 70.7753 89.6089 70.7993 90.089 70.8241Z" fill="url(#paint1_linear_1_65)"/>
<path d="M160.201 13.8724C126.162 13.8724 97.8586 37.787 92.6565 68.978C93.0036 68.7636 93.3597 68.5512 93.7127 68.3387C99.1678 37.9162 126.849 14.7595 160.201 14.7595C188.867 14.7595 213.342 31.8705 223.121 55.9948L224.156 56.1316C214.349 31.4571 189.387 13.8724 160.201 13.8724Z" fill="url(#paint2_linear_1_65)"/>
<path d="M160.201 13.8724C126.162 13.8724 97.8586 37.787 92.6565 68.978C93.0036 68.7636 93.3597 68.5512 93.7127 68.3387C99.1678 37.9162 126.849 14.7595 160.201 14.7595C188.867 14.7595 213.342 31.8705 223.121 55.9948L224.156 56.1316C214.349 31.4571 189.387 13.8724 160.201 13.8724Z" fill="url(#paint3_linear_1_65)"/>
<path d="M235.902 46.1305L228.099 33.198L218.75 37.0615C214.646 31.8648 209.805 27.2327 204.375 23.3059L208.413 14.3605L194.897 6.89359L188.833 14.6964C182.671 12.1937 176.072 10.494 169.184 9.68912L168.005 0H152.397L151.219 9.68912C144.331 10.495 137.733 12.1947 131.57 14.6964L125.505 6.89359L111.989 14.3605L116.027 23.3059C110.596 27.2327 105.755 31.8648 101.651 37.0615L92.3025 33.198L84.4989 46.1305L92.6535 51.9331C90.042 57.8208 88.2677 64.1258 87.4245 70.7064C87.7366 70.7189 88.0376 70.7284 88.3547 70.7418C89.1828 64.3344 90.9142 58.1232 93.5067 52.2795L93.7918 51.6373L93.2066 51.221L85.7141 45.8893L92.6925 34.3244L101.283 37.875L101.951 38.1516L102.39 37.5956C106.444 32.462 111.22 27.8921 116.585 24.0132L117.166 23.5931L116.878 22.9538L113.168 14.7327L125.254 8.05545L130.826 15.2237L131.261 15.7836L131.932 15.5108C138.072 13.0177 144.599 11.3544 151.331 10.5667L152.055 10.4825L152.139 9.78961L153.223 0.884305H167.179L168.263 9.78961L168.347 10.4825L169.071 10.5667C175.803 11.3544 182.33 13.0177 188.47 15.5108L189.141 15.7836L189.576 15.2237L195.148 8.05545L207.234 14.7327L203.524 22.9538L203.235 23.5931L203.816 24.0132C209.181 27.8921 213.957 32.462 218.011 37.5956L218.45 38.1516L219.118 37.875L227.71 34.3244L234.688 45.8893L227.195 51.221L226.61 51.6373L226.895 52.2795C227.538 53.7275 228.127 55.1994 228.663 56.6905C229.002 56.7317 229.341 56.7738 229.681 56.814C229.098 55.1592 228.457 53.5294 227.749 51.9331L235.902 46.1305Z" fill="url(#paint4_linear_1_65)"/>
<path d="M235.902 46.1305L228.099 33.198L218.75 37.0615C214.646 31.8648 209.805 27.2327 204.375 23.3059L208.413 14.3605L194.897 6.89359L188.833 14.6964C182.671 12.1937 176.072 10.494 169.184 9.68912L168.005 0H152.397L151.219 9.68912C144.331 10.495 137.733 12.1947 131.57 14.6964L125.505 6.89359L111.989 14.3605L116.027 23.3059C110.596 27.2327 105.755 31.8648 101.651 37.0615L92.3025 33.198L84.4989 46.1305L92.6535 51.9331C90.042 57.8208 88.2677 64.1258 87.4245 70.7064C87.7366 70.7189 88.0376 70.7284 88.3547 70.7418C89.1828 64.3344 90.9142 58.1232 93.5067 52.2795L93.7918 51.6373L93.2066 51.221L85.7141 45.8893L92.6925 34.3244L101.283 37.875L101.951 38.1516L102.39 37.5956C106.444 32.462 111.22 27.8921 116.585 24.0132L117.166 23.5931L116.878 22.9538L113.168 14.7327L125.254 8.05545L130.826 15.2237L131.261 15.7836L131.932 15.5108C138.072 13.0177 144.599 11.3544 151.331 10.5667L152.055 10.4825L152.139 9.78961L153.223 0.884305H167.179L168.263 9.78961L168.347 10.4825L169.071 10.5667C175.803 11.3544 182.33 13.0177 188.47 15.5108L189.141 15.7836L189.576 15.2237L195.148 8.05545L207.234 14.7327L203.524 22.9538L203.235 23.5931L203.816 24.0132C209.181 27.8921 213.957 32.462 218.011 37.5956L218.45 38.1516L219.118 37.875L227.71 34.3244L234.688 45.8893L227.195 51.221L226.61 51.6373L226.895 52.2795C227.538 53.7275 228.127 55.1994 228.663 56.6905C229.002 56.7317 229.341 56.7738 229.681 56.814C229.098 55.1592 228.457 53.5294 227.749 51.9331L235.902 46.1305Z" fill="url(#paint5_linear_1_65)"/>
<path d="M160.201 19.9295C131.194 19.9295 106.777 39.0666 99.999 64.8369C101.389 64.122 102.845 63.4147 104.347 62.7094C111.762 39.9413 133.996 23.3662 160.2 23.3662C183.181 23.3662 203.099 36.1189 212.655 54.6118L216.891 55.1717C207.199 34.4278 185.443 19.9295 160.201 19.9295Z" fill="url(#paint6_linear_1_65)"/>
<path d="M160.201 23.7959C134.352 23.7959 112.403 40.0542 104.917 62.4414C105.109 62.3524 105.291 62.2624 105.485 62.1734C113.042 40.1662 134.706 24.2257 160.201 24.2257C182.611 24.2257 202.056 36.5447 211.57 54.4692L212.113 54.541C202.578 36.3323 182.896 23.7959 160.201 23.7959Z" fill="#F97C08"/>
<path d="M160.201 19.0701C130.433 19.0701 105.507 38.8388 98.9348 65.3996C99.1138 65.3049 99.2899 65.2101 99.4709 65.1163C106.157 38.967 130.841 19.4998 160.201 19.4998C185.725 19.4998 207.713 34.2163 217.418 55.2416L217.965 55.3133C208.266 33.9875 186.059 19.0701 160.201 19.0701Z" fill="#F97C08"/>
<path d="M160.201 23.7959C182.896 23.7959 202.578 36.3323 212.113 54.541L212.657 54.6128C203.1 36.1198 183.182 23.3672 160.202 23.3672C133.998 23.3672 111.763 39.9423 104.349 62.7103C104.539 62.6204 104.726 62.5314 104.918 62.4424C112.403 40.0542 134.352 23.7959 160.201 23.7959Z" fill="#F97C08"/>
<path d="M160.201 19.9295C185.443 19.9295 207.199 34.4278 216.892 55.1717L217.418 55.2406C207.713 34.2162 185.725 19.4988 160.201 19.4988C130.841 19.4988 106.157 38.9661 99.4709 65.1154C99.6489 65.0226 99.82 64.9288 99.999 64.8359C106.778 39.0665 131.194 19.9295 160.201 19.9295Z" fill="#F97C08"/>
<path d="M7.47549 101.518C9.88898 99.2512 12.5575 97.0481 15.5531 94.8479C19.4809 91.9394 23.8048 89.253 28.4057 86.8642C33.3427 84.3319 37.9666 82.4073 42.5405 80.9813C44.4109 80.3085 46.3753 79.8309 48.2746 79.3677C48.8528 79.228 49.4309 79.0863 50.008 78.9408C52.4445 78.4614 55.053 77.9627 57.6475 77.6307C63.4667 76.8497 69.769 76.4698 76.9134 76.4698C80.3641 76.4698 84.1108 76.5578 88.3687 76.7387C92.4575 76.9243 96.5873 77.1684 100.582 77.4048C106.521 77.7551 112.663 78.1178 118.691 78.2891C123.062 78.4834 127.631 78.5829 132.264 78.5829C149.385 78.5829 166.263 77.2306 179.054 76.0534C197.03 74.4341 215.337 72.5248 234.871 70.2327C218.144 73.9795 199.973 77.1062 179.493 79.7629C168.842 81.1784 158.907 82.1833 149.12 82.837C143.015 83.2093 136.627 83.3968 130.135 83.3968C126.349 83.3968 122.433 83.3337 118.497 83.2073C111.36 82.9298 104.149 82.435 97.1744 81.9574C94.1418 81.7498 91.1182 81.5421 88.1036 81.3526C83.1966 81.0052 78.1336 80.8004 73.0576 80.7449C67.3005 80.7497 62.5455 80.9334 58.0886 81.3239C55.6691 81.5316 53.3237 81.8761 50.7281 82.2723C50.069 82.412 49.4229 82.5403 48.7768 82.6695C47.0254 83.0188 45.215 83.3806 43.4637 83.8888C39.1208 84.9626 34.5199 86.5666 29.4109 88.7879C25.076 90.6244 20.7391 92.8744 16.1542 95.6633C12.9426 97.6271 10.074 99.5613 7.47549 101.518Z" fill="url(#paint7_linear_1_65)"/>
<path d="M229.919 71.0586C214.561 74.3336 197.952 77.1148 179.455 79.516C168.8 80.9305 158.871 81.9364 149.104 82.5881C143 82.9595 136.615 83.148 130.131 83.148C126.347 83.148 122.435 83.0839 118.507 82.9576C111.372 82.681 104.163 82.1871 97.1904 81.7086C94.1578 81.5009 91.1332 81.2933 88.1226 81.1038C83.1976 80.7554 78.1296 80.5506 73.0526 80.4951C67.2995 80.4999 62.5365 80.6846 58.0646 81.0751C55.6341 81.2846 53.2847 81.6292 50.6551 82.0311C50.008 82.168 49.3589 82.2982 48.7098 82.4283C46.9574 82.7786 45.145 83.1404 43.4077 83.6447C39.0418 84.7252 34.4269 86.333 29.3059 88.5591C24.955 90.4024 20.6061 92.6582 16.0112 95.4537C14.3629 96.4615 12.8036 97.4625 11.3233 98.4636C12.7055 97.3171 14.1658 96.1801 15.7131 95.0441C19.6279 92.1452 23.9398 89.4664 28.5277 87.0843C33.4497 84.5587 38.0596 82.6389 42.6435 81.21C44.4859 80.5468 46.4403 80.0711 48.3297 79.6108C48.9118 79.4691 49.4939 79.3275 50.047 79.1868C52.4895 78.7064 55.092 78.2087 57.6855 77.8766C63.4927 77.0976 69.784 76.7186 76.9184 76.7186C80.3631 76.7186 84.1048 76.8066 88.3557 76.9875C92.4345 77.1732 96.5553 77.4172 100.54 77.6517C106.489 78.0029 112.642 78.3666 118.674 78.5379C123.055 78.7322 127.629 78.8308 132.268 78.8308C149.402 78.8308 166.284 77.4785 179.078 76.3013C195.529 74.8188 212.245 73.0952 229.919 71.0586ZM239.445 69.4403C219.297 71.8425 199.171 73.9901 179.028 75.8056C163.387 77.2459 147.843 78.3331 132.267 78.3331C127.748 78.3331 123.225 78.2412 118.697 78.0403C108.634 77.7551 98.5727 76.954 88.3787 76.4899C84.5779 76.3281 80.7532 76.2209 76.9164 76.2209C70.4811 76.2209 64.0178 76.5243 57.6115 77.3847C55.057 77.712 52.4765 78.201 49.941 78.7006C47.4285 79.3371 44.889 79.8711 42.4595 80.7458C37.5335 82.2819 32.8106 84.3233 28.2817 86.647C23.7618 88.9936 19.4389 91.6571 15.3951 94.6517C11.3423 97.6271 7.51851 100.89 4.12483 104.508C7.93359 101.298 12.0504 98.4693 16.2923 95.8757C20.5411 93.2908 24.943 90.9556 29.5169 89.0166C34.0648 87.0394 38.7318 85.3176 43.5377 84.129C45.9142 83.4399 48.3567 83.0303 50.7682 82.5192C53.2117 82.1469 55.6331 81.7861 58.1116 81.5727C63.0766 81.1382 68.0606 80.9985 73.0536 80.9947C78.0526 81.0492 83.0556 81.2464 88.0856 81.6024C98.1336 82.235 108.285 83.0609 118.488 83.4562C122.365 83.5806 126.248 83.6466 130.133 83.6466C136.472 83.6466 142.815 83.4705 149.139 83.0868C159.351 82.4044 169.467 81.3469 179.528 80.0108C199.667 77.3962 219.712 74.0647 239.445 69.4403Z" fill="#F97C08"/>
<path d="M149.432 85.8966C162.542 84.842 175.599 83.5959 188.592 81.9804C195.09 81.2023 201.569 80.3152 208.015 79.2806C214.475 78.3274 220.876 77.1033 227.245 75.8017L236.818 73.7116L241.667 72.6511C243.285 72.2999 244.93 72.0731 246.56 71.7812C253.083 70.6136 259.693 69.8671 266.321 69.4594L271.297 69.2182L276.282 69.1953C279.605 69.2154 282.927 69.3493 286.235 69.6451C292.832 70.2231 299.47 71.2146 305.671 73.4388C299.174 72.3899 292.633 72.2099 286.127 72.2425C279.618 72.3497 273.129 72.6942 266.671 73.4091C260.221 74.1365 253.783 74.9825 247.401 76.1788C240.998 77.2938 234.715 78.7083 228.181 80.0443C215.181 82.4991 202.06 84.0658 188.916 85.0181C175.766 85.9158 162.588 86.3321 149.432 85.8966Z" fill="url(#paint8_linear_1_65)" stroke="url(#paint9_linear_1_65)" stroke-width="0.75" stroke-miterlimit="10" stroke-linecap="round" stroke-linejoin="round"/>
<path d="M213.727 86.9733C222.649 84.8573 231.548 82.8896 240.466 80.9937C244.903 80.0022 249.406 79.1064 253.933 78.2767C258.466 77.4823 263.04 76.8602 267.641 76.3568C276.839 75.5117 286.254 75.1978 295.545 76.9827C300.158 77.8871 304.778 79.3849 308.745 82.0216C312.699 84.6362 315.647 88.7343 316.277 93.1261C314.597 88.9994 311.406 85.7923 307.521 83.9108C303.666 81.9527 299.31 81.0243 294.937 80.4645C290.537 79.9859 286.07 79.8022 281.589 79.961C277.109 80.0558 272.614 80.3687 268.128 80.8473C259.126 81.6828 250.21 83.1604 241.126 84.44C232.054 85.687 222.926 86.7015 213.727 86.9733Z" fill="url(#paint10_linear_1_65)" stroke="url(#paint11_linear_1_65)" stroke-width="0.75" stroke-miterlimit="10" stroke-linecap="round" stroke-linejoin="round"/>
<path d="M165.456 62.3361C148.944 60.8068 121.784 64.0904 100.357 74.6399C100.357 74.6399 133.325 77.0095 169.652 73.011C169.652 73.011 182.205 63.8885 165.456 62.3361Z" fill="url(#paint12_linear_1_65)"/>
<path d="M94.0568 74.9768C100.231 70.94 106.955 67.6975 113.841 64.8407C120.758 62.0452 127.923 59.7406 135.28 58.0993C142.623 56.3919 150.173 55.4397 157.769 55.1621C161.567 55.0406 165.381 55.1085 169.18 55.4282C172.933 55.7431 176.629 56.0771 180.351 56.4541C187.779 57.2198 195.185 58.1462 202.575 59.0774L224.68 61.9964C239.401 63.8655 254.202 65.0494 269.1 66.1069C254.199 66.9634 239.196 66.773 224.287 65.5413C209.369 64.3612 194.619 62.4117 179.845 60.9264C176.161 60.5178 172.443 60.1455 168.779 59.8028C165.157 59.4554 161.51 59.3961 157.864 59.3808C150.563 59.4334 143.256 60.2115 136.029 61.4853C121.587 64.1182 107.431 68.6718 94.0568 74.9768Z" fill="url(#paint13_linear_1_65)" stroke="url(#paint14_linear_1_65)" stroke-width="0.75" stroke-miterlimit="10" stroke-linecap="round" stroke-linejoin="round"/>
<path d="M26.3923 93.6927C28.6177 92.3988 31.0222 91.4331 33.3547 90.5766C36.5463 89.4444 40.083 88.5055 44.1618 87.7054C50.7241 86.445 57.8186 85.7674 66.4883 85.5712L67.3885 85.5693C73.7127 85.5693 80.7202 85.8689 88.8128 86.4823L110.96 87.9265C115.979 88.2596 121.084 88.5266 126.019 88.784C128.38 88.9075 130.741 89.031 133.102 89.1621C140.554 89.4808 147.853 89.7794 155.249 89.9181C157.931 89.9746 160.685 90.0043 163.437 90.0043C173.419 90.0043 183.835 89.6358 195.158 88.8788C182.368 91.1183 168.972 92.4285 155.266 92.7768C151.695 92.8764 147.969 92.9261 144.19 92.9261C134.248 92.9261 123.609 92.5921 110.708 91.8734C103.252 91.5059 95.7552 90.924 88.5047 90.3613C86.6093 90.2225 84.727 90.0713 82.8516 89.922C77.4865 89.4932 71.9384 89.0501 66.4603 88.9065C64.5189 88.8501 62.5985 88.8233 60.7522 88.8233C54.952 88.8233 49.6309 89.0874 44.4849 89.632C41.0972 90.0579 37.2645 90.5393 33.6357 91.4628C31.2413 92.0485 28.7588 92.7242 26.3923 93.6927Z" fill="url(#paint15_linear_1_65)"/>
<path d="M67.4005 85.8201C73.7148 85.8201 80.7121 86.1187 88.7978 86.7321L110.941 88.1754C115.965 88.5084 121.073 88.7754 126.012 89.0338C128.371 89.1573 130.728 89.2807 133.093 89.4109C140.559 89.7306 147.872 90.0282 155.242 90.1679C157.924 90.2244 160.677 90.2541 163.428 90.2541C171.956 90.2541 180.801 89.9851 190.256 89.4348C178.962 91.1853 167.229 92.2237 155.258 92.528C151.691 92.6275 147.97 92.6783 144.195 92.6783C134.262 92.6783 123.626 92.3433 110.721 91.6255C103.261 91.258 95.7702 90.6771 88.5247 90.1143C86.6383 89.9756 84.764 89.8253 82.8966 89.676C77.5205 89.2463 71.9604 88.8022 66.4683 88.6587C64.5249 88.6032 62.6025 88.5754 60.7542 88.5754C54.941 88.5754 49.6109 88.8405 44.4469 89.387C41.0602 89.8119 37.2225 90.2933 33.5757 91.2216C32.3935 91.5097 31.1902 91.8207 29.988 92.1777C31.1372 91.6781 32.2995 91.2312 33.4437 90.812C36.6233 89.6837 40.147 88.7477 44.2129 87.9505C50.7662 86.692 57.8466 86.0163 66.4853 85.822L67.4005 85.8201ZM67.4005 85.3215C67.0944 85.3215 66.7884 85.3224 66.4823 85.3234C58.9908 85.4918 51.4803 86.0459 44.1098 87.4614C40.4301 88.183 36.7864 89.0941 33.2617 90.344C29.77 91.6255 26.2773 93.1156 23.4127 95.4164C26.5973 93.5846 30.161 92.5682 33.7027 91.7049C37.2445 90.8034 40.8912 90.3354 44.5129 89.8808C49.905 89.3104 55.3271 89.0731 60.7532 89.0731C62.6525 89.0731 64.5529 89.1018 66.4523 89.1563C73.7958 89.3477 81.0512 90.0627 88.4837 90.611C95.8782 91.1853 103.278 91.7576 110.693 92.1232C121.837 92.7433 133.009 93.1769 144.194 93.1769C147.885 93.1769 151.579 93.13 155.272 93.0266C170.157 92.6476 185.029 91.1393 199.577 88.318C187.5 89.2138 175.463 89.7564 163.428 89.7564C160.703 89.7564 157.979 89.7287 155.254 89.6703C147.875 89.5315 140.495 89.23 133.117 88.9142C125.739 88.5055 118.357 88.1687 110.978 87.6796L88.8348 86.2364C81.7924 85.7005 74.5789 85.3215 67.4005 85.3215Z" fill="#F97C08"/>
<path d="M46.3993 102.481C48.1626 99.4044 51.0002 96.7026 54.5309 94.7665C58.3127 92.6562 62.7836 91.5164 67.4635 91.4686C72.1634 91.4781 76.6473 92.5701 80.4281 94.6287C83.9848 96.5246 86.8584 99.1976 88.6637 102.258C85.9792 99.8035 82.8926 97.8702 79.4679 96.5036C75.7011 95.0288 71.7734 94.2813 67.7906 94.2813L67.3545 94.2823C63.3457 94.2823 59.3609 95.069 55.5111 96.6203C52.1024 98.0253 49.0438 99.992 46.3993 102.481Z" fill="url(#paint16_linear_1_65)"/>
<path d="M67.4635 91.7183C72.1204 91.727 76.5593 92.8075 80.3051 94.846C83.2156 96.3983 85.6631 98.477 87.4305 100.861C85.07 98.9545 82.4365 97.4166 79.5669 96.272C75.7692 94.7857 71.8084 94.0315 67.7895 94.0315L67.4825 94.0334H67.3585C63.3127 94.0334 59.2939 94.8268 55.4081 96.3935C52.5585 97.5668 49.953 99.1307 47.6255 101.06C49.3599 98.6636 51.7763 96.5648 54.6639 94.9819C58.4037 92.8936 62.8296 91.7652 67.4635 91.7183ZM67.4615 91.2207C62.9046 91.2657 58.3267 92.3605 54.4019 94.5512C50.4811 96.7007 47.1754 99.9394 45.4391 103.794C48.3807 100.709 51.8484 98.4014 55.6131 96.85C59.3459 95.3455 63.3407 94.5311 67.3575 94.5311C67.3975 94.5311 67.4385 94.5311 67.4785 94.5311C67.5825 94.5301 67.6865 94.5292 67.7915 94.5292C71.7423 94.5292 75.6791 95.2881 79.3689 96.7323C83.1516 98.2416 86.6473 100.507 89.6379 103.55C87.8486 99.7173 84.5049 96.516 80.5581 94.4115C76.6063 92.261 72.0174 91.2283 67.4615 91.2207Z" fill="#F97C08"/>
<path d="M240.612 100.765C242.479 95.9456 246.165 91.6868 250.816 88.7486C255.455 85.7636 261.099 84.1644 266.743 84.1204C272.385 84.1108 278.052 85.6181 282.733 88.5486C287.425 91.4265 291.167 95.6413 293.099 100.439C289.687 96.4902 285.647 93.3472 281.142 91.2149C276.637 89.1094 271.712 87.9897 266.77 88.0529C261.825 88.0261 256.916 89.2281 252.438 91.3853C247.96 93.5731 243.963 96.7706 240.612 100.765Z" fill="url(#paint17_linear_1_65)" stroke="url(#paint18_linear_1_65)" stroke-width="0.75" stroke-miterlimit="10" stroke-linecap="round" stroke-linejoin="round"/>
<path d="M131.774 142.312L134.414 137.53C136.973 139.328 140.332 140.323 143.651 140.323C147.209 140.323 149.449 139.137 149.449 137.186C149.449 132.901 135.573 135.197 135.573 126.665C135.573 121.155 140.611 117.596 148.369 117.596C152.127 117.596 155.606 118.4 158.046 119.892L155.607 124.636C153.488 123.259 150.769 122.57 148.01 122.57C144.251 122.57 142.051 123.947 142.051 125.86C142.011 130.26 155.926 127.964 155.926 136.19C155.926 141.738 150.808 145.297 143.011 145.297C138.452 145.297 134.134 143.996 131.774 142.312Z" fill="url(#paint19_linear_1_65)"/>
<path d="M170.763 123.03L169.564 128.845H182.56L181.559 133.666H168.524L167.244 139.864H182.518L181.439 144.838H159.767L165.365 118.056H186.517L185.437 123.03H170.763Z" fill="url(#paint20_linear_1_65)"/>
<path d="M207.552 136.574L212.429 144.838H205.592L201.194 137.339H195.676L194.117 144.838H187.599L193.197 118.056H204.593C211.55 118.056 215.549 121.117 215.549 126.359C215.549 131.409 212.55 135.081 207.552 136.574ZM208.991 126.932C208.991 124.331 207.071 123.107 203.753 123.107H198.635L196.675 132.403H202.193C206.472 132.403 208.991 130.49 208.991 126.932Z" fill="url(#paint21_linear_1_65)"/>
<path d="M250.499 118.055L232.786 144.837H226.428L219.91 118.055H226.587L231.106 137.147L243.782 118.055H250.499Z" fill="url(#paint22_linear_1_65)"/>
<path d="M254.42 118.055H260.938L255.34 144.837H248.822L254.42 118.055Z" fill="url(#paint23_linear_1_65)"/>
<path d="M263.818 133.666C263.818 124.521 270.815 117.596 281.211 117.596C286.17 117.596 290.208 119.28 292.207 122.341L287.528 126.014C286.089 123.986 283.85 122.877 280.771 122.877C274.453 122.877 270.374 127.506 270.374 133.284C270.374 137.339 273.173 140.018 278.212 140.018C281.05 140.018 283.57 139.06 285.649 136.919L289.488 140.668C286.529 143.959 282.45 145.298 277.653 145.298C269.096 145.297 263.818 140.552 263.818 133.666Z" fill="url(#paint24_linear_1_65)"/>
<path d="M304.246 123.03L303.047 128.845H316.042L315.042 133.666H302.006L300.727 139.864H316.001L314.922 144.838H293.25L298.848 118.056H320L318.92 123.03H304.246Z" fill="url(#paint25_linear_1_65)"/>
<path d="M148.369 118.074C151.897 118.074 155.08 118.782 157.395 120.073L155.405 123.944C153.342 122.746 150.74 122.091 148.009 122.091C144.086 122.091 141.55 123.571 141.55 125.856C141.53 128.082 144.304 128.826 147.24 129.613C151.077 130.64 155.425 131.805 155.425 136.191C155.425 141.432 150.552 144.819 143.01 144.819C139.017 144.819 134.924 143.786 132.42 142.166L134.59 138.235C137.138 139.871 140.405 140.802 143.65 140.802C147.534 140.802 149.948 139.416 149.948 137.187C149.948 135.048 147.378 134.354 144.404 133.549C140.499 132.493 136.073 131.297 136.073 126.666C136.073 121.446 140.899 118.074 148.369 118.074ZM148.369 117.596C140.611 117.596 135.573 121.155 135.573 126.665C135.573 135.197 149.449 132.902 149.449 137.186C149.449 139.137 147.209 140.323 143.651 140.323C140.332 140.323 136.973 139.328 134.414 137.53L131.774 142.312C134.134 143.996 138.452 145.297 143.011 145.297C150.807 145.297 155.926 141.738 155.926 136.19C155.926 127.964 142.011 130.26 142.051 125.86C142.051 123.947 144.251 122.57 148.01 122.57C150.769 122.57 153.488 123.259 155.607 124.636L158.046 119.892C155.606 118.4 152.127 117.596 148.369 117.596Z" fill="#EEEEFA"/>
<path d="M185.903 118.534L185.031 122.55H170.763H170.352L170.272 122.936L169.073 128.751L168.955 129.323H169.563H181.949L181.148 133.186H168.524H168.113L168.033 133.572L166.753 139.771L166.635 140.342H167.243H181.903L181.032 144.359H160.376L165.774 118.534H185.903ZM186.517 118.055H165.365L159.767 144.837H181.439L182.518 139.863H167.244L168.524 133.665H181.559L182.56 128.844H169.563L170.762 123.029H185.437L186.517 118.055Z" fill="#EEEEFA"/>
<path d="M204.593 118.534C211.238 118.534 215.049 121.385 215.049 126.358C215.049 131.108 212.262 134.666 207.402 136.118L206.811 136.294L207.115 136.809L211.572 144.36H205.884L201.629 137.104L201.486 136.86H201.193H195.675H195.265L195.185 137.245L193.706 144.36H188.209L193.607 118.535H204.593M196.064 132.882H196.675H202.193C206.831 132.882 209.491 130.713 209.491 126.932C209.491 124.156 207.453 122.628 203.753 122.628H198.635H198.226L198.145 123.012L196.185 132.308L196.064 132.882ZM204.593 118.055H193.197L187.599 144.837H194.117L195.676 137.338H201.194L205.592 144.837H212.429L207.552 136.573C212.55 135.08 215.549 131.408 215.549 126.357C215.549 121.117 211.55 118.055 204.593 118.055ZM196.675 132.403L198.635 123.107H203.753C207.071 123.107 208.991 124.331 208.991 126.932C208.991 130.49 206.471 132.403 202.193 132.403H196.675Z" fill="#EEEEFA"/>
<path d="M249.591 118.534L232.509 144.359H226.824L220.539 118.534H226.187L230.617 137.254L230.882 138.375L231.526 137.405L244.055 118.535H249.591M250.499 118.055H243.782L231.106 137.147L226.587 118.055H219.91L226.428 144.837H232.786L250.499 118.055Z" fill="#EEEEFA"/>
<path d="M260.328 118.534L254.93 144.359H249.432L254.83 118.534H260.328ZM260.938 118.055H254.42L248.822 144.837H255.34L260.938 118.055Z" fill="#EEEEFA"/>
<path d="M281.211 118.074C285.854 118.074 289.587 119.588 291.541 122.245L287.622 125.322C286.046 123.381 283.745 122.398 280.771 122.398C274.457 122.398 269.874 126.976 269.874 133.284C269.874 137.732 273.069 140.496 278.212 140.496C281.119 140.496 283.619 139.524 285.65 137.604L288.803 140.684C286.127 143.465 282.473 144.819 277.651 144.819C269.55 144.819 264.316 140.441 264.316 133.667C264.318 124.486 271.265 118.074 281.211 118.074ZM281.211 117.596C270.815 117.596 263.818 124.521 263.818 133.666C263.818 140.552 269.096 145.297 277.653 145.297C282.45 145.297 286.529 143.958 289.488 140.667L285.649 136.918C283.57 139.059 281.051 140.017 278.212 140.017C273.173 140.017 270.374 137.338 270.374 133.283C270.374 127.505 274.453 122.876 280.771 122.876C283.85 122.876 286.089 123.985 287.528 126.013L292.207 122.34C290.208 119.28 286.17 117.596 281.211 117.596Z" fill="#EEEEFA"/>
<path d="M319.386 118.534L318.514 122.55H304.246H303.835L303.755 122.936L302.555 128.751L302.437 129.323H303.046H315.432L314.631 133.186H302.006H301.595L301.515 133.572L300.236 139.771L300.118 140.342H300.726H315.386L314.515 144.359H293.859L299.257 118.534H319.386ZM320 118.055H298.848L293.25 144.837H314.922L316.001 139.863H300.727L302.006 133.665H315.042L316.042 128.844H303.047L304.246 123.029H318.921L320 118.055Z" fill="#EEEEFA"/>
<path d="M23.4317 140.171H12.7555L9.95699 144.838H0L17.8336 118.056H27.1104L33.7477 144.838H24.3509L23.4317 140.171ZM22.1124 133.666L20.7532 126.817L16.6343 133.666H22.1124Z" fill="url(#paint26_linear_1_65)"/>
<path d="M38.2296 135.617C38.2296 134.699 38.3497 133.78 38.5497 132.786L41.6283 118.055H51.0652L48.0266 132.632C47.8666 133.359 47.7866 134.009 47.7866 134.583C47.7866 136.994 49.1458 138.142 51.5453 138.142C54.2639 138.142 55.7442 136.649 56.5833 132.632L59.6229 118.055H68.8998L65.7412 133.168C64.0618 141.203 58.9838 145.45 50.3861 145.45C42.7876 145.45 38.2296 141.623 38.2296 135.617Z" fill="url(#paint27_linear_1_65)"/>
<path d="M78.8188 125.057H70.6221L72.1014 118.056H97.9326L96.4533 125.057H88.2556L84.1368 144.838H74.6999L78.8188 125.057Z" fill="url(#paint28_linear_1_65)"/>
<path d="M97.3345 133.475C97.3345 124.024 104.692 117.444 114.968 117.444C123.685 117.444 129.163 122.379 129.163 129.419C129.163 138.87 121.805 145.451 111.529 145.451C102.813 145.45 97.3345 140.514 97.3345 133.475ZM119.647 129.954C119.647 126.855 117.608 124.751 114.169 124.751C109.531 124.751 106.851 128.539 106.851 132.938C106.851 136.037 108.891 138.143 112.329 138.143C116.967 138.143 119.647 134.355 119.647 129.954Z" fill="url(#paint29_linear_1_65)"/>
<path d="M26.7153 118.534L33.1156 144.359H24.766L23.9238 140.082L23.8468 139.692H23.4317H12.7556H12.4655L12.3215 139.932L9.66694 144.36H0.911185L18.1076 118.535H26.7153M15.7692 134.144H16.6343H22.1124H22.7165L22.6035 133.577L21.2443 126.728L20.9922 125.46L20.3191 126.579L16.2002 133.427L15.7692 134.144ZM27.1114 118.055H17.8346L0.00100708 144.837H9.958L12.7566 140.17H23.4327L24.3519 144.837H33.7488L27.1114 118.055ZM16.6343 133.666L20.7532 126.817L22.1124 133.666H16.6343Z" fill="#F97C08"/>
<path d="M68.2887 118.534L65.2491 133.074C63.5987 140.969 58.5977 144.971 50.3851 144.971C43.1956 144.971 38.7297 141.387 38.7297 135.617C38.7297 134.801 38.8288 133.93 39.0398 132.88L42.0384 118.534H50.4551L47.5365 132.533C47.3705 133.288 47.2865 133.978 47.2865 134.583C47.2865 137.187 48.7988 138.62 51.5453 138.62C54.5969 138.62 56.1993 136.913 57.0734 132.726L60.032 118.534H68.2887ZM68.8988 118.055H59.6219L56.5823 132.632C55.7431 136.649 54.2629 138.142 51.5443 138.142C49.1448 138.142 47.7856 136.994 47.7856 134.583C47.7856 134.009 47.8656 133.359 48.0256 132.632L51.0642 118.055H41.6273L38.5487 132.786C38.3487 133.78 38.2287 134.699 38.2287 135.617C38.2287 141.623 42.7866 145.45 50.3841 145.45C58.9808 145.45 64.0588 141.202 65.7392 133.168L68.8988 118.055Z" fill="#F97C08"/>
<path d="M97.3205 118.534L96.0432 124.577H88.2546H87.8446L87.7646 124.962L83.7257 144.359H75.3091L79.3089 125.15L79.4279 124.577H78.8188H71.2332L72.5105 118.534H97.3205ZM97.9316 118.055H72.1004L70.6211 125.056H78.8178L74.6989 144.837H84.1358L88.2546 125.056H96.4523L97.9316 118.055Z" fill="#F97C08"/>
<path d="M114.968 117.922C123.16 117.922 128.663 122.543 128.663 129.419C128.663 138.576 121.617 144.972 111.529 144.972C103.338 144.972 97.8346 140.351 97.8346 133.475C97.8346 124.317 104.88 117.922 114.968 117.922ZM112.329 138.621C116.932 138.621 120.147 135.057 120.147 129.954C120.147 126.503 117.801 124.272 114.169 124.272C109.566 124.272 106.351 127.835 106.351 132.938C106.351 136.39 108.698 138.621 112.329 138.621ZM114.968 117.444C104.692 117.444 97.3345 124.024 97.3345 133.475C97.3345 140.514 102.813 145.451 111.529 145.451C121.805 145.451 129.163 138.87 129.163 129.419C129.163 122.379 123.685 117.444 114.968 117.444ZM112.329 138.143C108.891 138.143 106.851 136.038 106.851 132.938C106.851 128.539 109.531 124.751 114.169 124.751C117.608 124.751 119.647 126.854 119.647 129.954C119.647 134.355 116.967 138.143 112.329 138.143Z" fill="#F97C08"/>
<defs>
<linearGradient id="paint0_linear_1_65" x1="200.165" y1="8.49365" x2="248.513" y2="96.0112" gradientUnits="userSpaceOnUse">
<stop stop-color="#898993"/>
<stop offset="0.0262" stop-color="#9696A1"/>
<stop offset="0.1268" stop-color="#C6C6D1"/>
<stop offset="0.2037" stop-color="#E3E3EF"/>
<stop offset="0.2472" stop-color="#EEEEFA"/>
<stop offset="0.3576" stop-color="#C3C3CF"/>
<stop offset="0.4589" stop-color="#A3A3AE"/>
<stop offset="0.5435" stop-color="#90909A"/>
<stop offset="0.6009" stop-color="#898993"/>
<stop offset="0.6094" stop-color="#9A9AA4"/>
<stop offset="0.6258" stop-color="#B4B4BF"/>
<stop offset="0.6446" stop-color="#C9C9D5"/>
<stop offset="0.6667" stop-color="#DADAE6"/>
<stop offset="0.6939" stop-color="#E6E6F1"/>
<stop offset="0.7321" stop-color="#ECECF8"/>
<stop offset="0.8382" stop-color="#EEEEFA"/>
<stop offset="0.8421" stop-color="#ECECF8"/>
<stop offset="0.9475" stop-color="#BFBFC8"/>
<stop offset="1" stop-color="#AEAEB6"/>
</linearGradient>
<linearGradient id="paint1_linear_1_65" x1="148.639" y1="36.9589" x2="196.987" y2="124.476" gradientUnits="userSpaceOnUse">
<stop stop-color="#898993"/>
<stop offset="0.0262" stop-color="#9696A1"/>
<stop offset="0.1268" stop-color="#C6C6D1"/>
<stop offset="0.2037" stop-color="#E3E3EF"/>
<stop offset="0.2472" stop-color="#EEEEFA"/>
<stop offset="0.3576" stop-color="#C3C3CF"/>
<stop offset="0.4589" stop-color="#A3A3AE"/>
<stop offset="0.5435" stop-color="#90909A"/>
<stop offset="0.6009" stop-color="#898993"/>
<stop offset="0.6094" stop-color="#9A9AA4"/>
<stop offset="0.6258" stop-color="#B4B4BF"/>
<stop offset="0.6446" stop-color="#C9C9D5"/>
<stop offset="0.6667" stop-color="#DADAE6"/>
<stop offset="0.6939" stop-color="#E6E6F1"/>
<stop offset="0.7321" stop-color="#ECECF8"/>
<stop offset="0.8382" stop-color="#EEEEFA"/>
<stop offset="0.8421" stop-color="#ECECF8"/>
<stop offset="0.9475" stop-color="#BFBFC8"/>
<stop offset="1" stop-color="#AEAEB6"/>
</linearGradient>
<linearGradient id="paint2_linear_1_65" x1="144.753" y1="39.1055" x2="193.101" y2="126.623" gradientUnits="userSpaceOnUse">
<stop stop-color="#898993"/>
<stop offset="0.0262" stop-color="#9696A1"/>
<stop offset="0.1268" stop-color="#C6C6D1"/>
<stop offset="0.2037" stop-color="#E3E3EF"/>
<stop offset="0.2472" stop-color="#EEEEFA"/>
<stop offset="0.3576" stop-color="#C3C3CF"/>
<stop offset="0.4589" stop-color="#A3A3AE"/>
<stop offset="0.5435" stop-color="#90909A"/>
<stop offset="0.6009" stop-color="#898993"/>
<stop offset="0.6094" stop-color="#9A9AA4"/>
<stop offset="0.6258" stop-color="#B4B4BF"/>
<stop offset="0.6446" stop-color="#C9C9D5"/>
<stop offset="0.6667" stop-color="#DADAE6"/>
<stop offset="0.6939" stop-color="#E6E6F1"/>
<stop offset="0.7321" stop-color="#ECECF8"/>
<stop offset="0.8382" stop-color="#EEEEFA"/>
<stop offset="0.8421" stop-color="#ECECF8"/>
<stop offset="0.9475" stop-color="#BFBFC8"/>
<stop offset="1" stop-color="#AEAEB6"/>
</linearGradient>
<linearGradient id="paint3_linear_1_65" x1="107.856" y1="142.011" x2="185.4" y2="1.6456" gradientUnits="userSpaceOnUse">
<stop stop-color="#EEEEFA"/>
<stop offset="0.0958" stop-color="#C3C3CF"/>
<stop offset="0.1837" stop-color="#A3A3AE"/>
<stop offset="0.257" stop-color="#90909A"/>
<stop offset="0.3068" stop-color="#898993"/>
<stop offset="0.3168" stop-color="#9A9AA4"/>
<stop offset="0.3363" stop-color="#B4B4BF"/>
<stop offset="0.3587" stop-color="#C9C9D5"/>
<stop offset="0.3849" stop-color="#DADAE6"/>
<stop offset="0.4173" stop-color="#E6E6F1"/>
<stop offset="0.4627" stop-color="#ECECF8"/>
<stop offset="0.5888" stop-color="#EEEEFA"/>
<stop offset="0.5991" stop-color="#EBEBF7"/>
<stop offset="0.6998" stop-color="#D0D0DA"/>
<stop offset="0.8006" stop-color="#BDBDC6"/>
<stop offset="0.9009" stop-color="#B2B2BA"/>
<stop offset="1" stop-color="#AEAEB6"/>
</linearGradient>
<linearGradient id="paint4_linear_1_65" x1="148.71" y1="36.9193" x2="197.058" y2="124.437" gradientUnits="userSpaceOnUse">
<stop stop-color="#898993"/>
<stop offset="0.0262" stop-color="#9696A1"/>
<stop offset="0.1268" stop-color="#C6C6D1"/>
<stop offset="0.2037" stop-color="#E3E3EF"/>
<stop offset="0.2472" stop-color="#EEEEFA"/>
<stop offset="0.3576" stop-color="#C3C3CF"/>
<stop offset="0.4589" stop-color="#A3A3AE"/>
<stop offset="0.5435" stop-color="#90909A"/>
<stop offset="0.6009" stop-color="#898993"/>
<stop offset="0.6094" stop-color="#9A9AA4"/>
<stop offset="0.6258" stop-color="#B4B4BF"/>
<stop offset="0.6446" stop-color="#C9C9D5"/>
<stop offset="0.6667" stop-color="#DADAE6"/>
<stop offset="0.6939" stop-color="#E6E6F1"/>
<stop offset="0.7321" stop-color="#ECECF8"/>
<stop offset="0.8382" stop-color="#EEEEFA"/>
<stop offset="0.8421" stop-color="#ECECF8"/>
<stop offset="0.9475" stop-color="#BFBFC8"/>
<stop offset="1" stop-color="#AEAEB6"/>
</linearGradient>
<linearGradient id="paint5_linear_1_65" x1="103.821" y1="139.782" x2="181.364" y2="-0.583551" gradientUnits="userSpaceOnUse">
<stop stop-color="#EEEEFA"/>
<stop offset="0.0958" stop-color="#C3C3CF"/>
<stop offset="0.1837" stop-color="#A3A3AE"/>
<stop offset="0.257" stop-color="#90909A"/>
<stop offset="0.3068" stop-color="#898993"/>
<stop offset="0.3168" stop-color="#9A9AA4"/>
<stop offset="0.3363" stop-color="#B4B4BF"/>
<stop offset="0.3587" stop-color="#C9C9D5"/>
<stop offset="0.3849" stop-color="#DADAE6"/>
<stop offset="0.4173" stop-color="#E6E6F1"/>
<stop offset="0.4627" stop-color="#ECECF8"/>
<stop offset="0.5888" stop-color="#EEEEFA"/>
<stop offset="0.5991" stop-color="#EBEBF7"/>
<stop offset="0.6998" stop-color="#D0D0DA"/>
<stop offset="0.8006" stop-color="#BDBDC6"/>
<stop offset="0.9009" stop-color="#B2B2BA"/>
<stop offset="1" stop-color="#AEAEB6"/>
</linearGradient>
<linearGradient id="paint6_linear_1_65" x1="146.725" y1="40.2813" x2="184.857" y2="109.307" gradientUnits="userSpaceOnUse">
<stop stop-color="#E5591F"/>
<stop offset="0.0024" stop-color="#E5591F"/>
<stop offset="0.0573" stop-color="#E2581F"/>
<stop offset="0.0955" stop-color="#D9541E"/>
<stop offset="0.1286" stop-color="#CA4D1D"/>
<stop offset="0.1586" stop-color="#B4441B"/>
<stop offset="0.1849" stop-color="#9A3919"/>
<stop offset="0.4073" stop-color="#F59921"/>
<stop offset="0.6075" stop-color="#E6791D"/>
<stop offset="1" stop-color="#C93D17"/>
</linearGradient>
<linearGradient id="paint7_linear_1_65" x1="70.7759" y1="56.0163" x2="165.997" y2="117.635" gradientUnits="userSpaceOnUse">
<stop offset="0.0024" stop-color="#E5591F"/>
<stop offset="0.0576" stop-color="#E2581F"/>
<stop offset="0.0957" stop-color="#D9541E"/>
<stop offset="0.1287" stop-color="#CA4D1D"/>
<stop offset="0.1585" stop-color="#B4441B"/>
<stop offset="0.1849" stop-color="#9A3919"/>
<stop offset="0.4073" stop-color="#F59921"/>
<stop offset="0.5517" stop-color="#EA821E"/>
<stop offset="1" stop-color="#C93D17"/>
</linearGradient>
<linearGradient id="paint8_linear_1_65" x1="218.656" y1="64.9268" x2="238.146" y2="100.207" gradientUnits="userSpaceOnUse">
<stop stop-color="#EEEEFA"/>
<stop offset="0.0964" stop-color="#C3C3CE"/>
<stop offset="0.1839" stop-color="#A3A3AE"/>
<stop offset="0.257" stop-color="#90909A"/>
<stop offset="0.3068" stop-color="#898993"/>
<stop offset="0.3168" stop-color="#9A9AA4"/>
<stop offset="0.3363" stop-color="#B4B4BF"/>
<stop offset="0.3587" stop-color="#C9C9D5"/>
<stop offset="0.3849" stop-color="#DADAE6"/>
<stop offset="0.4173" stop-color="#E6E6F1"/>
<stop offset="0.4627" stop-color="#ECECF8"/>
<stop offset="0.5888" stop-color="#EEEEFA"/>
<stop offset="0.5999" stop-color="#EBEBF6"/>
<stop offset="0.7001" stop-color="#D0D0DA"/>
<stop offset="0.8006" stop-color="#BDBDC6"/>
<stop offset="0.9006" stop-color="#B2B2BA"/>
<stop offset="1" stop-color="#AEAEB6"/>
</linearGradient>
<linearGradient id="paint9_linear_1_65" x1="205.014" y1="117.018" x2="247.171" y2="40.7077" gradientUnits="userSpaceOnUse">
<stop stop-color="#EEEEFA"/>
<stop offset="0.0964" stop-color="#C3C3CE"/>
<stop offset="0.1839" stop-color="#A3A3AE"/>
<stop offset="0.257" stop-color="#90909A"/>
<stop offset="0.3068" stop-color="#898993"/>
<stop offset="0.3168" stop-color="#9A9AA4"/>
<stop offset="0.3363" stop-color="#B4B4BF"/>
<stop offset="0.3587" stop-color="#C9C9D5"/>
<stop offset="0.3849" stop-color="#DADAE6"/>
<stop offset="0.4173" stop-color="#E6E6F1"/>
<stop offset="0.4627" stop-color="#ECECF8"/>
<stop offset="0.5888" stop-color="#EEEEFA"/>
<stop offset="0.5999" stop-color="#EBEBF6"/>
<stop offset="0.7001" stop-color="#D0D0DA"/>
<stop offset="0.8006" stop-color="#BDBDC6"/>
<stop offset="0.9006" stop-color="#B2B2BA"/>
<stop offset="1" stop-color="#AEAEB6"/>
</linearGradient>
<linearGradient id="paint10_linear_1_65" x1="257.914" y1="77.251" x2="274.489" y2="107.253" gradientUnits="userSpaceOnUse">
<stop stop-color="#EEEEFA"/>
<stop offset="0.0964" stop-color="#C3C3CE"/>
<stop offset="0.1839" stop-color="#A3A3AE"/>
<stop offset="0.257" stop-color="#90909A"/>
<stop offset="0.3068" stop-color="#898993"/>
<stop offset="0.3168" stop-color="#9A9AA4"/>
<stop offset="0.3363" stop-color="#B4B4BF"/>
<stop offset="0.3587" stop-color="#C9C9D5"/>
<stop offset="0.3849" stop-color="#DADAE6"/>
<stop offset="0.4173" stop-color="#E6E6F1"/>
<stop offset="0.4627" stop-color="#ECECF8"/>
<stop offset="0.5888" stop-color="#EEEEFA"/>
<stop offset="0.5999" stop-color="#EBEBF6"/>
<stop offset="0.7001" stop-color="#D0D0DA"/>
<stop offset="0.8006" stop-color="#BDBDC6"/>
<stop offset="0.9006" stop-color="#B2B2BA"/>
<stop offset="1" stop-color="#AEAEB6"/>
</linearGradient>
<linearGradient id="paint11_linear_1_65" x1="253.388" y1="109.298" x2="278.096" y2="64.5732" gradientUnits="userSpaceOnUse">
<stop stop-color="#EEEEFA"/>
<stop offset="0.0964" stop-color="#C3C3CE"/>
<stop offset="0.1839" stop-color="#A3A3AE"/>
<stop offset="0.257" stop-color="#90909A"/>
<stop offset="0.3068" stop-color="#898993"/>
<stop offset="0.3168" stop-color="#9A9AA4"/>
<stop offset="0.3363" stop-color="#B4B4BF"/>
<stop offset="0.3587" stop-color="#C9C9D5"/>
<stop offset="0.3849" stop-color="#DADAE6"/>
<stop offset="0.4173" stop-color="#E6E6F1"/>
<stop offset="0.4627" stop-color="#ECECF8"/>
<stop offset="0.5888" stop-color="#EEEEFA"/>
<stop offset="0.5999" stop-color="#EBEBF6"/>
<stop offset="0.7001" stop-color="#D0D0DA"/>
<stop offset="0.8006" stop-color="#BDBDC6"/>
<stop offset="0.9006" stop-color="#B2B2BA"/>
<stop offset="1" stop-color="#AEAEB6"/>
</linearGradient>
<linearGradient id="paint12_linear_1_65" x1="109.216" y1="48.2686" x2="147.9" y2="81.0438" gradientUnits="userSpaceOnUse">
<stop stop-color="#AEAEB6"/>
<stop offset="0.12" stop-color="#94949B"/>
<stop offset="0.4294" stop-color="#555559"/>
<stop offset="0.6898" stop-color="#272729"/>
<stop offset="0.8877" stop-color="#0B0B0B"/>
<stop offset="1"/>
</linearGradient>
<linearGradient id="paint13_linear_1_65" x1="170.903" y1="52.8478" x2="194.157" y2="94.9415" gradientUnits="userSpaceOnUse">
<stop stop-color="#EEEEFA"/>
<stop offset="0.0964" stop-color="#C3C3CE"/>
<stop offset="0.1839" stop-color="#A3A3AE"/>
<stop offset="0.257" stop-color="#90909A"/>
<stop offset="0.3068" stop-color="#898993"/>
<stop offset="0.3168" stop-color="#9A9AA4"/>
<stop offset="0.3363" stop-color="#B4B4BF"/>
<stop offset="0.3587" stop-color="#C9C9D5"/>
<stop offset="0.3849" stop-color="#DADAE6"/>
<stop offset="0.4173" stop-color="#E6E6F1"/>
<stop offset="0.4627" stop-color="#ECECF8"/>
<stop offset="0.5888" stop-color="#EEEEFA"/>
<stop offset="0.5999" stop-color="#EBEBF6"/>
<stop offset="0.7001" stop-color="#D0D0DA"/>
<stop offset="0.8006" stop-color="#BDBDC6"/>
<stop offset="0.9006" stop-color="#B2B2BA"/>
<stop offset="1" stop-color="#AEAEB6"/>
</linearGradient>
<linearGradient id="paint14_linear_1_65" x1="157.504" y1="110.442" x2="202.539" y2="28.9221" gradientUnits="userSpaceOnUse">
<stop stop-color="#EEEEFA"/>
<stop offset="0.0964" stop-color="#C3C3CE"/>
<stop offset="0.1839" stop-color="#A3A3AE"/>
<stop offset="0.257" stop-color="#90909A"/>
<stop offset="0.3068" stop-color="#898993"/>
<stop offset="0.3168" stop-color="#9A9AA4"/>
<stop offset="0.3363" stop-color="#B4B4BF"/>
<stop offset="0.3587" stop-color="#C9C9D5"/>
<stop offset="0.3849" stop-color="#DADAE6"/>
<stop offset="0.4173" stop-color="#E6E6F1"/>
<stop offset="0.4627" stop-color="#ECECF8"/>
<stop offset="0.5888" stop-color="#EEEEFA"/>
<stop offset="0.5999" stop-color="#EBEBF6"/>
<stop offset="0.7001" stop-color="#D0D0DA"/>
<stop offset="0.8006" stop-color="#BDBDC6"/>
<stop offset="0.9006" stop-color="#B2B2BA"/>
<stop offset="1" stop-color="#AEAEB6"/>
</linearGradient>
<linearGradient id="paint15_linear_1_65" x1="70.4742" y1="67.4091" x2="146.619" y2="116.683" gradientUnits="userSpaceOnUse">
<stop offset="0.0024" stop-color="#E5591F"/>
<stop offset="0.0576" stop-color="#E2581F"/>
<stop offset="0.0957" stop-color="#D9541E"/>
<stop offset="0.1287" stop-color="#CA4D1D"/>
<stop offset="0.1585" stop-color="#B4441B"/>
<stop offset="0.1849" stop-color="#9A3919"/>
<stop offset="0.4073" stop-color="#F59921"/>
<stop offset="0.5517" stop-color="#EA821E"/>
<stop offset="1" stop-color="#C93D17"/>
</linearGradient>
<linearGradient id="paint16_linear_1_65" x1="57.9166" y1="95.2835" x2="77.292" y2="107.821" gradientUnits="userSpaceOnUse">
<stop offset="0.0024" stop-color="#E5591F"/>
<stop offset="0.0576" stop-color="#E2581F"/>
<stop offset="0.0957" stop-color="#D9541E"/>
<stop offset="0.1287" stop-color="#CA4D1D"/>
<stop offset="0.1585" stop-color="#B4441B"/>
<stop offset="0.1849" stop-color="#9A3919"/>
<stop offset="0.4073" stop-color="#F59921"/>
<stop offset="0.5517" stop-color="#EA821E"/>
<stop offset="1" stop-color="#C93D17"/>
</linearGradient>
<linearGradient id="paint17_linear_1_65" x1="261.288" y1="91.1061" x2="270.556" y2="107.881" gradientUnits="userSpaceOnUse">
<stop stop-color="#EEEEFA"/>
<stop offset="0.0964" stop-color="#C3C3CE"/>
<stop offset="0.1839" stop-color="#A3A3AE"/>
<stop offset="0.257" stop-color="#90909A"/>
<stop offset="0.3068" stop-color="#898993"/>
<stop offset="0.3168" stop-color="#9A9AA4"/>
<stop offset="0.3363" stop-color="#B4B4BF"/>
<stop offset="0.3587" stop-color="#C9C9D5"/>
<stop offset="0.3849" stop-color="#DADAE6"/>
<stop offset="0.4173" stop-color="#E6E6F1"/>
<stop offset="0.4627" stop-color="#ECECF8"/>
<stop offset="0.5888" stop-color="#EEEEFA"/>
<stop offset="0.5999" stop-color="#EBEBF6"/>
<stop offset="0.7001" stop-color="#D0D0DA"/>
<stop offset="0.8006" stop-color="#BDBDC6"/>
<stop offset="0.9006" stop-color="#B2B2BA"/>
<stop offset="1" stop-color="#AEAEB6"/>
</linearGradient>
<linearGradient id="paint18_linear_1_65" x1="259.889" y1="111.829" x2="275.279" y2="83.9707" gradientUnits="userSpaceOnUse">
<stop stop-color="#EEEEFA"/>
<stop offset="0.0964" stop-color="#C3C3CE"/>
<stop offset="0.1839" stop-color="#A3A3AE"/>
<stop offset="0.257" stop-color="#90909A"/>
<stop offset="0.3068" stop-color="#898993"/>
<stop offset="0.3168" stop-color="#9A9AA4"/>
<stop offset="0.3363" stop-color="#B4B4BF"/>
<stop offset="0.3587" stop-color="#C9C9D5"/>
<stop offset="0.3849" stop-color="#DADAE6"/>
<stop offset="0.4173" stop-color="#E6E6F1"/>
<stop offset="0.4627" stop-color="#ECECF8"/>
<stop offset="0.5888" stop-color="#EEEEFA"/>
<stop offset="0.5999" stop-color="#EBEBF6"/>
<stop offset="0.7001" stop-color="#D0D0DA"/>
<stop offset="0.8006" stop-color="#BDBDC6"/>
<stop offset="0.9006" stop-color="#B2B2BA"/>
<stop offset="1" stop-color="#AEAEB6"/>
</linearGradient>
<linearGradient id="paint19_linear_1_65" x1="212.479" y1="107.963" x2="244.676" y2="166.243" gradientUnits="userSpaceOnUse">
<stop stop-color="#AEAEB6"/>
<stop offset="0.0824" stop-color="#C8C8D2"/>
<stop offset="0.1874" stop-color="#E4E4EF"/>
<stop offset="0.2472" stop-color="#EEEEFA"/>
<stop offset="0.2787" stop-color="#E6E6F2"/>
<stop offset="0.5196" stop-color="#AEAEB6"/>
<stop offset="0.6694" stop-color="#CECED8"/>
<stop offset="0.8382" stop-color="#EEEEFA"/>
<stop offset="0.8453" stop-color="#EBEBF7"/>
<stop offset="0.9484" stop-color="#BFBFC8"/>
<stop offset="1" stop-color="#AEAEB6"/>
</linearGradient>
<linearGradient id="paint20_linear_1_65" x1="212.479" y1="107.963" x2="244.676" y2="166.243" gradientUnits="userSpaceOnUse">
<stop stop-color="#AEAEB6"/>
<stop offset="0.0824" stop-color="#C8C8D2"/>
<stop offset="0.1874" stop-color="#E4E4EF"/>
<stop offset="0.2472" stop-color="#EEEEFA"/>
<stop offset="0.2787" stop-color="#E6E6F2"/>
<stop offset="0.5196" stop-color="#AEAEB6"/>
<stop offset="0.6694" stop-color="#CECED8"/>
<stop offset="0.8382" stop-color="#EEEEFA"/>
<stop offset="0.8453" stop-color="#EBEBF7"/>
<stop offset="0.9484" stop-color="#BFBFC8"/>
<stop offset="1" stop-color="#AEAEB6"/>
</linearGradient>
<linearGradient id="paint21_linear_1_65" x1="212.479" y1="107.963" x2="244.676" y2="166.243" gradientUnits="userSpaceOnUse">
<stop stop-color="#AEAEB6"/>
<stop offset="0.0824" stop-color="#C8C8D2"/>
<stop offset="0.1874" stop-color="#E4E4EF"/>
<stop offset="0.2472" stop-color="#EEEEFA"/>
<stop offset="0.2787" stop-color="#E6E6F2"/>
<stop offset="0.5196" stop-color="#AEAEB6"/>
<stop offset="0.6694" stop-color="#CECED8"/>
<stop offset="0.8382" stop-color="#EEEEFA"/>
<stop offset="0.8453" stop-color="#EBEBF7"/>
<stop offset="0.9484" stop-color="#BFBFC8"/>
<stop offset="1" stop-color="#AEAEB6"/>
</linearGradient>
<linearGradient id="paint22_linear_1_65" x1="212.479" y1="107.963" x2="244.676" y2="166.243" gradientUnits="userSpaceOnUse">
<stop stop-color="#AEAEB6"/>
<stop offset="0.0824" stop-color="#C8C8D2"/>
<stop offset="0.1874" stop-color="#E4E4EF"/>
<stop offset="0.2472" stop-color="#EEEEFA"/>
<stop offset="0.2787" stop-color="#E6E6F2"/>
<stop offset="0.5196" stop-color="#AEAEB6"/>
<stop offset="0.6694" stop-color="#CECED8"/>
<stop offset="0.8382" stop-color="#EEEEFA"/>
<stop offset="0.8453" stop-color="#EBEBF7"/>
<stop offset="0.9484" stop-color="#BFBFC8"/>
<stop offset="1" stop-color="#AEAEB6"/>
</linearGradient>
<linearGradient id="paint23_linear_1_65" x1="212.479" y1="107.963" x2="244.676" y2="166.243" gradientUnits="userSpaceOnUse">
<stop stop-color="#AEAEB6"/>
<stop offset="0.0824" stop-color="#C8C8D2"/>
<stop offset="0.1874" stop-color="#E4E4EF"/>
<stop offset="0.2472" stop-color="#EEEEFA"/>
<stop offset="0.2787" stop-color="#E6E6F2"/>
<stop offset="0.5196" stop-color="#AEAEB6"/>
<stop offset="0.6694" stop-color="#CECED8"/>
<stop offset="0.8382" stop-color="#EEEEFA"/>
<stop offset="0.8453" stop-color="#EBEBF7"/>
<stop offset="0.9484" stop-color="#BFBFC8"/>
<stop offset="1" stop-color="#AEAEB6"/>
</linearGradient>
<linearGradient id="paint24_linear_1_65" x1="212.479" y1="107.963" x2="244.676" y2="166.243" gradientUnits="userSpaceOnUse">
<stop stop-color="#AEAEB6"/>
<stop offset="0.0824" stop-color="#C8C8D2"/>
<stop offset="0.1874" stop-color="#E4E4EF"/>
<stop offset="0.2472" stop-color="#EEEEFA"/>
<stop offset="0.2787" stop-color="#E6E6F2"/>
<stop offset="0.5196" stop-color="#AEAEB6"/>
<stop offset="0.6694" stop-color="#CECED8"/>
<stop offset="0.8382" stop-color="#EEEEFA"/>
<stop offset="0.8453" stop-color="#EBEBF7"/>
<stop offset="0.9484" stop-color="#BFBFC8"/>
<stop offset="1" stop-color="#AEAEB6"/>
</linearGradient>
<linearGradient id="paint25_linear_1_65" x1="212.479" y1="107.963" x2="244.676" y2="166.243" gradientUnits="userSpaceOnUse">
<stop stop-color="#AEAEB6"/>
<stop offset="0.0824" stop-color="#C8C8D2"/>
<stop offset="0.1874" stop-color="#E4E4EF"/>
<stop offset="0.2472" stop-color="#EEEEFA"/>
<stop offset="0.2787" stop-color="#E6E6F2"/>
<stop offset="0.5196" stop-color="#AEAEB6"/>
<stop offset="0.6694" stop-color="#CECED8"/>
<stop offset="0.8382" stop-color="#EEEEFA"/>
<stop offset="0.8453" stop-color="#EBEBF7"/>
<stop offset="0.9484" stop-color="#BFBFC8"/>
<stop offset="1" stop-color="#AEAEB6"/>
</linearGradient>
<linearGradient id="paint26_linear_1_65" x1="53.7171" y1="117.447" x2="75.3995" y2="156.695" gradientUnits="userSpaceOnUse">
<stop offset="0.0024" stop-color="#E5591F"/>
<stop offset="0.0927" stop-color="#EB7120"/>
<stop offset="0.2261" stop-color="#F28E21"/>
<stop offset="0.3022" stop-color="#F59921"/>
<stop offset="0.4722" stop-color="#EA821E"/>
<stop offset="1" stop-color="#C93D17"/>
</linearGradient>
<linearGradient id="paint27_linear_1_65" x1="53.7171" y1="117.447" x2="75.3996" y2="156.695" gradientUnits="userSpaceOnUse">
<stop offset="0.0024" stop-color="#E5591F"/>
<stop offset="0.0927" stop-color="#EB7120"/>
<stop offset="0.2261" stop-color="#F28E21"/>
<stop offset="0.3022" stop-color="#F59921"/>
<stop offset="0.4722" stop-color="#EA821E"/>
<stop offset="1" stop-color="#C93D17"/>
</linearGradient>
<linearGradient id="paint28_linear_1_65" x1="53.7171" y1="117.447" x2="75.3995" y2="156.695" gradientUnits="userSpaceOnUse">
<stop offset="0.0024" stop-color="#E5591F"/>
<stop offset="0.0927" stop-color="#EB7120"/>
<stop offset="0.2261" stop-color="#F28E21"/>
<stop offset="0.3022" stop-color="#F59921"/>
<stop offset="0.4722" stop-color="#EA821E"/>
<stop offset="1" stop-color="#C93D17"/>
</linearGradient>
<linearGradient id="paint29_linear_1_65" x1="53.7171" y1="117.447" x2="75.3995" y2="156.695" gradientUnits="userSpaceOnUse">
<stop offset="0.0024" stop-color="#E5591F"/>
<stop offset="0.0927" stop-color="#EB7120"/>
<stop offset="0.2261" stop-color="#F28E21"/>
<stop offset="0.3022" stop-color="#F59921"/>
<stop offset="0.4722" stop-color="#EA821E"/>
<stop offset="1" stop-color="#C93D17"/>
</linearGradient>
</defs>
</svg>
