<svg width="500" height="500" viewBox="0 0 500 500" fill="none" xmlns="http://www.w3.org/2000/svg">
<path d="M250 427.561C357.082 427.561 443.889 422.492 443.889 416.238C443.889 409.985 357.082 404.915 250 404.915C142.918 404.915 56.1111 409.985 56.1111 416.238C56.1111 422.492 142.918 427.561 250 427.561Z" fill="#F5F5F5"/>
<path d="M419.803 191.241H321.699C316.547 191.241 312.331 187.025 312.331 181.873V155.186C312.331 150.034 316.547 145.818 321.699 145.818H419.803C424.955 145.818 429.171 150.034 429.171 155.186V181.873C429.171 187.025 424.956 191.241 419.803 191.241Z" fill="#F97C08"/>
<path d="M400.334 158.559H323.716C322.812 158.559 322.072 157.819 322.072 156.915V155.122C322.072 154.218 322.812 153.478 323.716 153.478H400.334C401.238 153.478 401.978 154.218 401.978 155.122V156.915C401.978 157.819 401.238 158.559 400.334 158.559Z" fill="#F97C08"/>
<path d="M376.065 170.801H323.716C322.812 170.801 322.072 170.061 322.072 169.157V167.363C322.072 166.459 322.812 165.719 323.716 165.719H376.065C376.969 165.719 377.709 166.459 377.709 167.363V169.157C377.709 170.061 376.969 170.801 376.065 170.801Z" fill="#F97C08"/>
<path d="M362.025 183.044H323.716C322.812 183.044 322.072 182.304 322.072 181.4V179.606C322.072 178.702 322.812 177.962 323.716 177.962H362.025C362.929 177.962 363.669 178.702 363.669 179.606V181.4C363.669 182.304 362.929 183.044 362.025 183.044Z" fill="#F97C08"/>
<path d="M409.516 183.044H371.207C370.303 183.044 369.563 182.304 369.563 181.4V179.606C369.563 178.702 370.303 177.962 371.207 177.962H409.516C410.42 177.962 411.16 178.702 411.16 179.606V181.4C411.16 182.304 410.42 183.044 409.516 183.044Z" fill="#F97C08"/>
<g opacity="0.5">
<path d="M400.334 158.559H323.716C322.812 158.559 322.072 157.819 322.072 156.915V155.122C322.072 154.218 322.812 153.478 323.716 153.478H400.334C401.238 153.478 401.978 154.218 401.978 155.122V156.915C401.978 157.819 401.238 158.559 400.334 158.559Z" fill="white"/>
<path d="M376.065 170.801H323.716C322.812 170.801 322.072 170.061 322.072 169.157V167.363C322.072 166.459 322.812 165.719 323.716 165.719H376.065C376.969 165.719 377.709 166.459 377.709 167.363V169.157C377.709 170.061 376.969 170.801 376.065 170.801Z" fill="white"/>
<path d="M362.025 183.044H323.716C322.812 183.044 322.072 182.304 322.072 181.4V179.606C322.072 178.702 322.812 177.962 323.716 177.962H362.025C362.929 177.962 363.669 178.702 363.669 179.606V181.4C363.669 182.304 362.929 183.044 362.025 183.044Z" fill="white"/>
<path d="M409.516 183.044H371.207C370.303 183.044 369.563 182.304 369.563 181.4V179.606C369.563 178.702 370.303 177.962 371.207 177.962H409.516C410.42 177.962 411.16 178.702 411.16 179.606V181.4C411.16 182.304 410.42 183.044 409.516 183.044Z" fill="white"/>
</g>
<path d="M341.22 201.828H229.862C222.308 201.828 216.127 195.647 216.127 188.093V148.966C216.127 141.412 222.308 135.231 229.862 135.231H341.22C348.774 135.231 354.955 141.412 354.955 148.966V188.093C354.955 195.647 348.774 201.828 341.22 201.828Z" fill="#F97C08"/>
<path d="M345.156 153.91H232.82C231.495 153.91 230.41 152.826 230.41 151.5V148.87C230.41 147.545 231.494 146.46 232.82 146.46H345.156C346.481 146.46 347.566 147.544 347.566 148.87V151.5C347.565 152.826 346.481 153.91 345.156 153.91Z" fill="#F97C08"/>
<path d="M309.573 171.86H232.82C231.495 171.86 230.41 170.776 230.41 169.45V166.82C230.41 165.495 231.494 164.41 232.82 164.41H309.573C310.898 164.41 311.983 165.494 311.983 166.82V169.45C311.983 170.776 310.898 171.86 309.573 171.86Z" fill="#F97C08"/>
<path d="M288.988 189.81H232.82C231.495 189.81 230.41 188.726 230.41 187.4V184.77C230.41 183.445 231.494 182.36 232.82 182.36H288.988C290.313 182.36 291.398 183.444 291.398 184.77V187.4C291.398 188.725 290.313 189.81 288.988 189.81Z" fill="#F97C08"/>
<path d="M349.255 189.81H302.45C301.125 189.81 300.04 188.726 300.04 187.4V184.77C300.04 183.445 301.124 182.36 302.45 182.36H349.255C350.58 182.36 351.665 183.444 351.665 184.77V187.4C351.665 188.725 350.58 189.81 349.255 189.81Z" fill="#F97C08"/>
<g opacity="0.5">
<path d="M345.156 153.91H232.82C231.495 153.91 230.41 152.826 230.41 151.5V148.87C230.41 147.545 231.494 146.46 232.82 146.46H345.156C346.481 146.46 347.566 147.544 347.566 148.87V151.5C347.565 152.826 346.481 153.91 345.156 153.91Z" fill="white"/>
<path d="M309.573 171.86H232.82C231.495 171.86 230.41 170.776 230.41 169.45V166.82C230.41 165.495 231.494 164.41 232.82 164.41H309.573C310.898 164.41 311.983 165.494 311.983 166.82V169.45C311.983 170.776 310.898 171.86 309.573 171.86Z" fill="white"/>
<path d="M288.988 189.81H232.82C231.495 189.81 230.41 188.726 230.41 187.4V184.77C230.41 183.445 231.494 182.36 232.82 182.36H288.988C290.313 182.36 291.398 183.444 291.398 184.77V187.4C291.398 188.725 290.313 189.81 288.988 189.81Z" fill="white"/>
<path d="M349.255 189.81H302.45C301.125 189.81 300.04 188.726 300.04 187.4V184.77C300.04 183.445 301.124 182.36 302.45 182.36H349.255C350.58 182.36 351.665 183.444 351.665 184.77V187.4C351.665 188.725 350.58 189.81 349.255 189.81Z" fill="white"/>
</g>
<path d="M271.989 307.075H218.355C214.824 307.075 211.935 304.186 211.935 300.655V220.32C211.935 216.789 214.824 213.9 218.355 213.9H271.989C275.52 213.9 278.409 216.789 278.409 220.32V300.656C278.409 304.186 275.52 307.075 271.989 307.075Z" fill="#F97C08"/>
<path opacity="0.4" d="M271.989 307.075H218.355C214.824 307.075 211.935 304.186 211.935 300.655V220.32C211.935 216.789 214.824 213.9 218.355 213.9H271.989C275.52 213.9 278.409 216.789 278.409 220.32V300.656C278.409 304.186 275.52 307.075 271.989 307.075Z" fill="black"/>
<path d="M269.53 227.743H220.816C220.165 227.743 219.632 227.21 219.632 226.559V224.8C219.632 224.149 220.165 223.616 220.816 223.616H269.53C270.181 223.616 270.714 224.149 270.714 224.8V226.558C270.714 227.21 270.181 227.743 269.53 227.743Z" fill="#FAFAFA"/>
<path d="M254.015 237.688H220.816C220.165 237.688 219.632 237.155 219.632 236.504V234.746C219.632 234.095 220.165 233.562 220.816 233.562H254.015C254.666 233.562 255.199 234.095 255.199 234.746V236.504C255.199 237.155 254.666 237.688 254.015 237.688Z" fill="#FAFAFA"/>
<path d="M269.53 247.633H220.816C220.165 247.633 219.632 247.1 219.632 246.449V244.691C219.632 244.04 220.165 243.507 220.816 243.507H269.53C270.181 243.507 270.714 244.04 270.714 244.691V246.449C270.714 247.1 270.181 247.633 269.53 247.633Z" fill="#FAFAFA"/>
<path d="M238.912 257.579H220.815C220.164 257.579 219.631 257.046 219.631 256.395V254.637C219.631 253.986 220.164 253.453 220.815 253.453H238.912C239.563 253.453 240.096 253.986 240.096 254.637V256.395C240.097 257.046 239.564 257.579 238.912 257.579Z" fill="#FAFAFA"/>
<path d="M264.248 257.579H246.15C245.499 257.579 244.966 257.046 244.966 256.395V254.637C244.966 253.986 245.499 253.453 246.15 253.453H264.247C264.898 253.453 265.431 253.986 265.431 254.637V256.395C265.432 257.046 264.899 257.579 264.248 257.579Z" fill="#FAFAFA"/>
<path d="M269.53 267.524H220.816C220.165 267.524 219.632 266.991 219.632 266.34V264.582C219.632 263.931 220.165 263.398 220.816 263.398H269.53C270.181 263.398 270.714 263.931 270.714 264.582V266.34C270.714 266.991 270.181 267.524 269.53 267.524Z" fill="#FAFAFA"/>
<path d="M269.53 277.469H220.816C220.165 277.469 219.632 276.936 219.632 276.285V274.527C219.632 273.876 220.165 273.343 220.816 273.343H269.53C270.181 273.343 270.714 273.876 270.714 274.527V276.285C270.714 276.936 270.181 277.469 269.53 277.469Z" fill="#FAFAFA"/>
<path d="M260.89 287.414H220.815C220.164 287.414 219.631 286.881 219.631 286.23V284.472C219.631 283.821 220.164 283.288 220.815 283.288H260.89C261.541 283.288 262.074 283.821 262.074 284.472V286.23C262.075 286.881 261.542 287.414 260.89 287.414Z" fill="#FAFAFA"/>
<path d="M239.505 297.359H220.816C220.165 297.359 219.632 296.826 219.632 296.175V294.417C219.632 293.766 220.165 293.233 220.816 293.233H239.505C240.157 293.233 240.69 293.766 240.69 294.417V296.175C240.689 296.826 240.156 297.359 239.505 297.359Z" fill="#FAFAFA"/>
<path d="M286.496 213.333H212.114L244.966 239.502L295.4 258.474V222.237C295.4 217.34 291.393 213.333 286.496 213.333Z" fill="#F97C08"/>
<path opacity="0.4" d="M286.496 213.333H212.114L244.966 239.502L295.4 258.474V222.237C295.4 217.34 291.393 213.333 286.496 213.333Z" fill="black"/>
<path d="M283.249 232.531H228.816C228.003 232.531 227.337 231.866 227.337 231.052V228.285C227.337 227.472 228.002 226.806 228.816 226.806H283.249C284.062 226.806 284.728 227.471 284.728 228.285V231.052C284.728 231.866 284.062 232.531 283.249 232.531Z" fill="#FAFAFA"/>
<path d="M309.77 284.168V231.854C309.77 227.861 313.037 224.594 317.03 224.594H407.883C411.876 224.594 415.143 227.861 415.143 231.854V284.168C415.143 288.161 411.876 291.428 407.883 291.428H317.03C313.037 291.428 309.77 288.161 309.77 284.168Z" fill="#F97C08"/>
<path d="M326.359 267.579V215.265C326.359 211.272 329.626 208.005 333.619 208.005H424.472C428.465 208.005 431.732 211.272 431.732 215.265V267.579C431.732 271.572 428.465 274.839 424.472 274.839H333.619C329.626 274.839 326.359 271.572 326.359 267.579Z" fill="#F97C08"/>
<path opacity="0.5" d="M326.359 267.579V215.265C326.359 211.272 329.626 208.005 333.619 208.005H424.472C428.465 208.005 431.732 211.272 431.732 215.265V267.579C431.732 271.572 428.465 274.839 424.472 274.839H333.619C329.626 274.839 326.359 271.572 326.359 267.579Z" fill="white"/>
<path d="M386.362 249.66V217.461C386.362 215.682 387.818 214.226 389.597 214.226H419.281C421.06 214.226 422.516 215.682 422.516 217.461V249.66C422.516 251.439 421.06 252.895 419.281 252.895H389.597C387.817 252.895 386.362 251.439 386.362 249.66Z" fill="#F97C08"/>
<path opacity="0.7" d="M386.362 249.66V217.461C386.362 215.682 387.818 214.226 389.597 214.226H419.281C421.06 214.226 422.516 215.682 422.516 217.461V249.66C422.516 251.439 421.06 252.895 419.281 252.895H389.597C387.817 252.895 386.362 251.439 386.362 249.66Z" fill="white"/>
<path d="M352.999 265.236V240.555C352.999 239.191 354.115 238.076 355.478 238.076H378.231C379.595 238.076 380.71 239.192 380.71 240.555V265.236C380.71 266.6 379.594 267.715 378.231 267.715H355.478C354.115 267.715 352.999 266.599 352.999 265.236Z" fill="#F97C08"/>
<path opacity="0.3" d="M352.999 265.236V240.555C352.999 239.191 354.115 238.076 355.478 238.076H378.231C379.595 238.076 380.71 239.192 380.71 240.555V265.236C380.71 266.6 379.594 267.715 378.231 267.715H355.478C354.115 267.715 352.999 266.599 352.999 265.236Z" fill="white"/>
<path d="M107.963 108.77V95.436C107.963 91.378 111.283 88.058 115.341 88.058H359.478C363.536 88.058 366.856 91.378 366.856 95.436V108.77C366.856 112.828 363.536 116.148 359.478 116.148H115.341C111.283 116.148 107.963 112.828 107.963 108.77Z" fill="#F97C08"/>
<path opacity="0.5" d="M107.963 108.77V95.436C107.963 91.378 111.283 88.058 115.341 88.058H359.478C363.536 88.058 366.856 91.378 366.856 95.436V108.77C366.856 112.828 363.536 116.148 359.478 116.148H115.341C111.283 116.148 107.963 112.828 107.963 108.77Z" fill="white"/>
<path d="M320.667 120.839V111.167L250.416 111.167V120.839L320.667 120.839Z" fill="#F97C08"/>
<path opacity="0.5" d="M320.667 120.839V111.167L250.416 111.167V120.839L320.667 120.839Z" fill="white"/>
<path d="M133.14 67.267V53.933C133.14 49.875 136.46 46.555 140.518 46.555H384.655C388.713 46.555 392.033 49.875 392.033 53.933V67.267C392.033 71.325 388.713 74.645 384.655 74.645H140.517C136.46 74.645 133.14 71.325 133.14 67.267Z" fill="#F97C08"/>
<path d="M130.358 194.264C129.482 196.224 128.507 198.416 127.656 200.531C126.796 202.671 125.932 204.811 125.163 206.969C123.586 211.27 122.243 215.628 121.373 219.901L121.081 221.497L120.98 222.103C120.949 222.267 120.946 222.493 120.922 222.687C120.876 223.535 120.895 224.561 120.983 225.61C121.172 227.723 121.509 229.98 121.936 232.243C122.78 236.772 123.852 241.445 124.911 246.036L119.782 248.064C117.389 243.676 115.369 239.222 113.687 234.467C112.86 232.086 112.106 229.65 111.573 227.005C111.309 225.676 111.07 224.304 111.009 222.745C111.004 222.338 110.981 221.961 110.999 221.526C111.015 221.101 111.034 220.622 111.07 220.337L111.266 218.357C111.576 215.744 112.04 213.186 112.639 210.705C113.203 208.206 113.923 205.779 114.688 203.378C115.462 200.979 116.314 198.622 117.26 196.303C117.729 195.142 118.219 193.991 118.725 192.841C119.23 191.671 119.744 190.589 120.362 189.358L130.358 194.264Z" fill="#E4897B"/>
<path d="M124.711 244.69L128.613 248.497L120.105 252.455C120.105 252.455 118.04 248.85 119.466 245.59L124.711 244.69Z" fill="#E4897B"/>
<path d="M131.756 254.167L124.571 257.109L120.105 252.456L128.613 248.498L131.756 254.167Z" fill="#E4897B"/>
<path opacity="0.4" d="M277.406 250.068C237.885 245.653 209.418 210.036 213.833 170.506C218.249 130.976 253.874 102.519 293.395 106.934C332.925 111.35 361.392 146.967 356.976 186.497C352.561 226.026 316.935 254.484 277.406 250.068Z" fill="#FAFAFA"/>
<path opacity="0.4" d="M329.793 121.791L220.295 209.284C219.826 208.295 219.383 207.294 218.956 206.286C216.248 199.843 214.47 192.964 213.754 185.808L213.755 185.8L308.332 110.23C316.216 112.864 323.447 116.814 329.793 121.791Z" fill="#FAFAFA"/>
<path opacity="0.4" d="M355.056 160.123L252.109 242.374C242.243 237.234 233.795 229.904 227.338 221.09L339.755 131.265C346.926 139.508 352.211 149.365 355.056 160.123Z" fill="#FAFAFA"/>
<path d="M204.386 151.033L203.439 150.712C205.089 145.845 207.168 141.116 209.617 136.658L210.493 137.14C208.072 141.546 206.018 146.221 204.386 151.033ZM216.527 127.69L215.721 127.097C223.825 116.084 234.674 107.023 247.094 100.891L247.536 101.787C235.259 107.849 224.536 116.806 216.527 127.69ZM326.124 103.158C322.872 101.404 319.474 99.848 316.02 98.535L316.376 97.6C319.869 98.929 323.309 100.503 326.599 102.278L326.124 103.158Z" fill="#F97C08"/>
<path opacity="0.3" d="M204.386 151.033L203.439 150.712C205.089 145.845 207.168 141.116 209.617 136.658L210.493 137.14C208.072 141.546 206.018 146.221 204.386 151.033ZM216.527 127.69L215.721 127.097C223.825 116.084 234.674 107.023 247.094 100.891L247.536 101.787C235.259 107.849 224.536 116.806 216.527 127.69ZM326.124 103.158C322.872 101.404 319.474 99.848 316.02 98.535L316.376 97.6C319.869 98.929 323.309 100.503 326.599 102.278L326.124 103.158Z" fill="black"/>
<path d="M359.872 141.738C339.57 100.611 289.769 83.728 248.643 104.029C210.408 122.903 193.147 167.271 207.219 206.465C200.538 208.809 193.941 211.323 187.38 213.909C177.921 217.656 168.556 221.593 159.26 225.669C149.982 229.783 140.741 233.972 131.595 238.352C127 240.497 122.467 242.77 117.9 244.972C115.589 246.017 113.424 247.359 111.562 249.315C110.625 250.28 109.767 251.406 108.989 252.694C108.221 254.002 107.514 255.434 107.032 257.319C105.494 263.299 108.507 269.67 114.361 272.166C116.151 272.929 117.718 273.239 119.223 273.425C120.718 273.591 122.134 273.594 123.47 273.437C126.155 273.149 128.537 272.247 130.772 271.048C135.298 268.762 139.858 266.546 144.356 264.203C153.395 259.606 162.34 254.817 171.248 249.955C180.138 245.055 188.958 240.014 197.685 234.784C203.728 231.147 209.736 227.44 215.66 223.561C238.219 258.569 283.934 271.846 322.167 252.973C363.293 232.673 380.177 182.872 359.872 141.738ZM314.413 237.266C281.957 253.287 242.665 239.96 226.644 207.505C210.626 175.057 223.942 135.76 256.398 119.739C288.854 103.718 328.146 117.045 344.164 149.493C360.184 181.948 346.869 221.245 314.413 237.266Z" fill="#F97C08"/>
<path opacity="0.3" d="M359.872 141.738C339.57 100.611 289.769 83.728 248.643 104.029C210.408 122.903 193.147 167.271 207.219 206.465C200.538 208.809 193.941 211.323 187.38 213.909C177.921 217.656 168.556 221.593 159.26 225.669C149.982 229.783 140.741 233.972 131.595 238.352C127 240.497 122.467 242.77 117.9 244.972C115.589 246.017 113.424 247.359 111.562 249.315C110.625 250.28 109.767 251.406 108.989 252.694C108.221 254.002 107.514 255.434 107.032 257.319C105.494 263.299 108.507 269.67 114.361 272.166C116.151 272.929 117.718 273.239 119.223 273.425C120.718 273.591 122.134 273.594 123.47 273.437C126.155 273.149 128.537 272.247 130.772 271.048C135.298 268.762 139.858 266.546 144.356 264.203C153.395 259.606 162.34 254.817 171.248 249.955C180.138 245.055 188.958 240.014 197.685 234.784C203.728 231.147 209.736 227.44 215.66 223.561C238.219 258.569 283.934 271.846 322.167 252.973C363.293 232.673 380.177 182.872 359.872 141.738ZM314.413 237.266C281.957 253.287 242.665 239.96 226.644 207.505C210.626 175.057 223.942 135.76 256.398 119.739C288.854 103.718 328.146 117.045 344.164 149.493C360.184 181.948 346.869 221.245 314.413 237.266Z" fill="black"/>
<path d="M158.022 158.55C158.021 159.142 158.335 159.623 158.722 159.623C159.109 159.623 159.424 159.143 159.424 158.551C159.425 157.958 159.111 157.478 158.724 157.477C158.337 157.477 158.022 157.957 158.022 158.55Z" fill="#263238"/>
<path d="M158.28 159.623C158.28 159.623 159.625 163.043 161.106 164.693C160.057 165.67 158.275 165.222 158.275 165.222L158.28 159.623Z" fill="#DE5753"/>
<path d="M155.925 155.265C155.817 155.265 155.71 155.215 155.642 155.12C155.53 154.964 155.565 154.746 155.722 154.634C157.285 153.51 158.789 154.073 158.853 154.098C159.032 154.167 159.121 154.369 159.051 154.548C158.982 154.727 158.781 154.816 158.602 154.747C158.544 154.726 157.37 154.304 156.128 155.199C156.066 155.243 155.996 155.265 155.925 155.265Z" fill="#263238"/>
<path d="M137.796 163.018C138.85 168.392 139.901 178.24 136.141 181.826C136.141 181.826 137.61 187.278 147.596 187.278C158.577 187.278 152.844 181.827 152.844 181.827C146.851 180.396 147.006 175.949 148.05 171.774L137.796 163.018Z" fill="#E4897B"/>
<path d="M131.652 184.636C132.838 182.785 130.836 178.303 130.836 178.303C130.836 178.303 148.525 173.852 155.753 180.678C157.253 182.095 155.586 184.172 155.586 184.172L131.652 184.636Z" fill="#F97C08"/>
<path opacity="0.1" d="M131.652 184.636C132.838 182.785 130.836 178.303 130.836 178.303C130.836 178.303 148.525 173.852 155.753 180.678C157.253 182.095 155.586 184.172 155.586 184.172L131.652 184.636Z" fill="black"/>
<path d="M102.398 388.675C101.466 388.675 99.979 387.118 99.54 386.538C99.498 386.483 99.493 386.41 99.526 386.35C99.559 386.29 99.627 386.261 99.693 386.26C99.797 386.269 102.249 386.48 102.917 387.355C103.071 387.556 103.127 387.779 103.083 388.015C102.999 388.464 102.755 388.612 102.564 388.658C102.511 388.669 102.455 388.675 102.398 388.675ZM100.083 386.653C100.815 387.493 101.98 388.438 102.484 388.318C102.532 388.306 102.68 388.271 102.74 387.95C102.765 387.813 102.733 387.687 102.64 387.565C102.243 387.045 100.904 386.765 100.083 386.653Z" fill="#F97C08"/>
<path d="M100.187 386.647C99.978 386.647 99.792 386.633 99.646 386.605C99.583 386.593 99.532 386.547 99.513 386.487C99.494 386.427 99.509 386.36 99.553 386.314C99.616 386.248 101.094 384.721 102.196 384.721C102.197 384.721 102.197 384.721 102.198 384.721C102.485 384.722 102.725 384.822 102.913 385.018C103.203 385.322 103.124 385.589 103.052 385.722C102.721 386.327 101.187 386.647 100.187 386.647ZM100.065 386.3C101.009 386.337 102.51 385.989 102.746 385.555C102.767 385.516 102.818 385.423 102.661 385.258C102.54 385.131 102.389 385.069 102.198 385.069C101.537 385.069 100.591 385.813 100.065 386.3Z" fill="#F97C08"/>
<path d="M168.388 411.368C167.51 411.368 166.604 411.255 166.135 411.162C166.064 411.147 166.009 411.091 165.997 411.019C165.985 410.948 166.019 410.877 166.082 410.84C166.19 410.777 168.754 409.311 169.98 409.647C170.231 409.715 170.417 409.852 170.532 410.054C170.738 410.413 170.654 410.666 170.547 410.814C170.242 411.238 169.331 411.368 168.388 411.368ZM166.697 410.903C168.063 411.097 169.922 411.086 170.265 410.611C170.309 410.55 170.354 410.443 170.231 410.226C170.162 410.106 170.051 410.026 169.89 409.983C169.138 409.776 167.594 410.443 166.697 410.903Z" fill="#F97C08"/>
<path d="M166.169 411.165C166.133 411.165 166.098 411.154 166.067 411.133C166.017 411.097 165.989 411.036 165.995 410.975C166.003 410.891 166.201 408.912 167.136 408.145C167.421 407.911 167.746 407.81 168.101 407.847C168.579 407.895 168.717 408.138 168.749 408.332C168.883 409.163 167.127 410.752 166.24 411.15C166.217 411.16 166.193 411.165 166.169 411.165ZM167.961 408.188C167.74 408.188 167.542 408.262 167.356 408.415C166.742 408.919 166.481 410.103 166.386 410.68C167.291 410.136 168.485 408.888 168.404 408.389C168.398 408.349 168.378 408.226 168.065 408.194C168.031 408.19 167.996 408.188 167.961 408.188Z" fill="#F97C08"/>
<path d="M158.091 410.991H165.437L166.169 393.979H158.822L158.091 410.991Z" fill="#E4897B"/>
<path d="M92.635 381.787L98.779 385.814L112.339 374.359L106.194 370.333L92.635 381.787Z" fill="#E4897B"/>
<path d="M99.7939 385.428L93.4099 380.197C93.1779 380.007 92.8439 380.003 92.6079 380.189L87.3469 384.32C86.8009 384.749 86.8069 385.582 87.3509 386.012C89.6109 387.8 90.8009 388.556 93.6079 390.857C95.3349 392.272 99.6299 396.587 102.015 398.542C104.348 400.453 106.644 398.393 105.843 397.379C102.249 392.834 100.799 388.942 100.43 386.533C100.363 386.099 100.134 385.707 99.7939 385.428Z" fill="#263238"/>
<path d="M165.389 410.141H157.366C157.066 410.141 156.806 410.35 156.74 410.643L155.289 417.173C155.139 417.85 155.653 418.492 156.346 418.48C159.24 418.431 163.422 418.261 167.059 418.261C171.312 418.261 174.985 418.493 179.973 418.493C182.989 418.493 183.826 415.444 182.564 415.168C176.817 413.911 172.125 413.776 167.158 410.714C166.619 410.38 166.023 410.141 165.389 410.141Z" fill="#263238"/>
<path d="M121.661 184.021C115.289 187.071 111.701 207.118 111.701 207.118L127.272 213.333C127.272 213.333 130.776 205.034 132.779 196.179C134.876 186.902 128.176 180.903 121.661 184.021Z" fill="#263238"/>
<path d="M129.92 195.33C126.07 199.23 124.31 206.87 123.54 211.84L127.27 213.33C127.27 213.33 130.65 205.34 132.67 196.68C132.34 194.56 131.52 193.71 129.92 195.33Z" fill="#203048"/>
<path d="M164.144 183.865C164.144 183.865 171.963 192.697 164.579 247.362C152.74 247.362 131.047 247.362 125.286 247.362C125.015 241.33 128.805 211.906 122.988 183.486C122.988 183.486 129.723 182.134 136.142 181.825C141.163 181.583 148.431 181.423 152.845 181.826C158.664 182.357 164.144 183.865 164.144 183.865Z" fill="#263238"/>
<path d="M167.73 205.08L161.11 193.67C159.83 199.92 159.286 203.785 159.556 209.944C159.736 213.864 163.33 228.38 166.54 230.5C167.55 219.83 167.84 211.52 167.73 205.08Z" fill="#203048"/>
<path d="M168.647 191.669C169.626 196.531 170.658 201.506 171.721 206.394C172.782 211.293 173.897 216.172 175.187 220.904C175.522 222.069 175.831 223.265 176.2 224.392L176.467 225.249L176.6 225.678C176.6 225.678 176.564 225.642 176.554 225.626C176.476 225.539 176.398 225.53 176.458 225.621C176.537 225.82 177.165 226.254 177.983 226.566C178.81 226.885 179.822 227.168 180.893 227.382C185.233 228.208 190.344 228.326 195.193 228.312L196.144 233.745C194.801 234.173 193.547 234.488 192.232 234.792C190.929 235.1 189.613 235.365 188.277 235.567C185.603 235.98 182.868 236.244 179.948 236.126C178.485 236.065 176.97 235.925 175.347 235.527C173.732 235.11 171.945 234.544 170.074 233.08C169.159 232.349 168.253 231.337 167.606 230.106C167.442 229.811 167.299 229.468 167.175 229.179L166.99 228.706L166.62 227.759C166.108 226.492 165.688 225.242 165.23 223.982C163.536 218.955 162.134 213.939 160.888 208.898C159.662 203.842 158.586 198.831 157.693 193.661L168.647 191.669Z" fill="#E4897B"/>
<path d="M154.326 189.222C152.256 195.934 160.65 215.939 160.65 215.939L177.364 211.735C177.364 211.735 176.722 201.342 172.914 193.092C167.171 180.647 156.811 181.167 154.326 189.222Z" fill="#263238"/>
<path d="M195.09 228.32L203.409 228.115L199.408 236.767C199.408 236.767 196.024 237.217 193.243 232.647L190.31 229.155L193.683 228.478C194.147 228.384 194.617 228.331 195.09 228.32Z" fill="#E4897B"/>
<path d="M208.661 229.723L203.898 236.895L199.408 236.766L203.409 228.114L208.661 229.723Z" fill="#E4897B"/>
<path d="M166.167 393.983L165.791 402.753H158.442L158.818 393.983H166.167Z" fill="#CE6F64"/>
<path d="M106.189 370.335L112.336 374.363L105.344 380.266L99.197 376.237L106.189 370.335Z" fill="#CE6F64"/>
<path d="M138.259 157.277C138.7 164.555 138.588 168.837 142.26 172.575C147.784 178.198 156.769 174.873 158.512 167.61C160.08 161.073 159.096 150.27 151.976 147.368C144.96 144.509 137.819 149.999 138.259 157.277Z" fill="#E4897B"/>
<path d="M129.699 156.005C131.509 162.64 135.77 170.284 141.276 170.769C148.12 171.372 151.21 164.302 152.11 156.997C156.212 154.188 154.056 151.103 158.172 150.71C163.447 150.207 161.764 140.55 154.809 138.996C154.809 138.996 157.137 143.346 152.25 141.151C147.363 138.956 142.585 138.015 137.312 138.56C137.312 138.56 143.545 141.675 137.449 143.065C131.353 144.455 129.529 148.22 132.335 150.491C132.335 150.491 128.508 151.637 129.699 156.005Z" fill="#263238"/>
<path d="M147.941 158.491C148.055 160.397 148.941 162.191 150.006 163.363C151.608 165.127 153.279 164.028 153.562 161.879C153.817 159.945 153.291 156.696 151.333 155.723C149.403 154.766 147.81 156.312 147.941 158.491Z" fill="#E4897B"/>
<path d="M150.641 247.362C150.641 247.362 157.802 299.213 152.161 319.986C143.225 352.889 109.039 380.656 109.039 380.656L97.45 373.062C97.45 373.062 126.558 349.611 130.122 322.074C133.323 297.336 125.287 267.431 125.287 247.362C134.439 247.362 150.641 247.362 150.641 247.362Z" fill="#F97C08"/>
<path opacity="0.1" d="M150.641 247.362C150.641 247.362 157.802 299.213 152.161 319.986C143.225 352.889 109.039 380.656 109.039 380.656L97.45 373.062C97.45 373.062 126.558 349.611 130.122 322.074C133.323 297.336 125.287 267.431 125.287 247.362C134.439 247.362 150.641 247.362 150.641 247.362Z" fill="black"/>
<path d="M153.6 277.02C150.23 273.2 147.33 271 147.33 271C148.55 287.83 149.55 312.76 148.44 330.47C149.93 327.06 151.19 323.55 152.16 319.99C154.91 309.85 154.62 292.32 153.6 277.02Z" fill="#F97C08"/>
<path opacity="0.3" d="M153.6 277.02C150.23 273.2 147.33 271 147.33 271C148.55 287.83 149.55 312.76 148.44 330.47C149.93 327.06 151.19 323.55 152.16 319.99C154.91 309.85 154.62 292.32 153.6 277.02Z" fill="black"/>
<path d="M113.71 378.073C113.758 378.104 109.224 381.028 109.224 381.028L96.562 372.73L100.509 369.422L113.71 378.073Z" fill="#F97C08"/>
<path opacity="0.3" d="M113.71 378.073C113.758 378.104 109.224 381.028 109.224 381.028L96.562 372.73L100.509 369.422L113.71 378.073Z" fill="black"/>
<path d="M164.579 247.362C164.579 247.362 175.644 294.263 176.424 316.666C177.298 341.791 168.529 401.054 168.529 401.054H156.084C156.084 401.054 154.552 341.33 153.998 318.445C153.394 293.496 138.75 247.362 138.75 247.362H164.579Z" fill="#F97C08"/>
<path opacity="0.1" d="M164.579 247.362C164.579 247.362 175.644 294.263 176.424 316.666C177.298 341.791 168.529 401.054 168.529 401.054H156.084C156.084 401.054 154.552 341.33 153.998 318.445C153.394 293.496 138.75 247.362 138.75 247.362H164.579Z" fill="black"/>
<path d="M170.924 396.097C170.981 396.097 170.222 401.264 170.222 401.264H155.083L154.674 396.653L170.924 396.097Z" fill="#F97C08"/>
<path opacity="0.3" d="M170.924 396.097C170.981 396.097 170.222 401.264 170.222 401.264H155.083L154.674 396.653L170.924 396.097Z" fill="black"/>
<path d="M355.95 202.286C356.804 203.086 357.466 203.768 358.173 204.532C358.859 205.28 359.533 206.035 360.187 206.801C361.496 208.334 362.711 209.935 363.886 211.562C366.256 214.8 368.331 218.25 370.162 221.821L370.534 222.548C370.71 222.904 370.86 223.274 370.985 223.648C371.235 224.399 371.376 225.169 371.421 225.909C371.503 227.396 371.248 228.738 370.876 229.918C370.12 232.285 368.914 234.137 367.666 235.843C365.06 239.187 362.169 241.892 358.861 244.297L356.366 241.437C357.545 240.075 358.762 238.604 359.849 237.134C360.961 235.672 361.984 234.161 362.825 232.633C363.689 231.132 364.36 229.563 364.643 228.214C364.784 227.542 364.793 226.945 364.706 226.512C364.665 226.294 364.608 226.115 364.532 225.96C364.494 225.882 364.453 225.809 364.405 225.739L364.076 225.204C362.148 222.057 360.059 219.011 357.811 216.089C356.697 214.621 355.507 213.213 354.316 211.819C353.723 211.12 353.115 210.437 352.502 209.765C351.898 209.12 351.235 208.405 350.703 207.869L355.95 202.286Z" fill="#E4897B"/>
<path d="M357.362 240.59L349.893 239.365L353.797 245.91C353.797 245.91 358.606 245.743 359.981 242.948L357.362 240.59Z" fill="#E4897B"/>
<path d="M344.369 242.394L347.934 247.697L353.797 245.911L349.893 239.366L344.369 242.394Z" fill="#E4897B"/>
<path d="M357.012 411.282C356.435 411.282 355.903 411.182 355.583 410.891C355.332 410.662 355.233 410.344 355.289 409.948C355.331 409.648 355.504 409.511 355.642 409.449C356.514 409.059 358.79 410.524 359.047 410.692C359.106 410.731 359.137 410.801 359.124 410.872C359.111 410.941 359.059 410.997 358.99 411.014C358.461 411.139 357.704 411.282 357.012 411.282ZM356.014 409.732C355.926 409.732 355.85 409.745 355.788 409.772C355.73 409.798 355.662 409.847 355.641 409.997C355.602 410.275 355.662 410.481 355.823 410.629C356.201 410.975 357.181 411.02 358.488 410.76C357.684 410.273 356.59 409.732 356.014 409.732Z" fill="#F97C08"/>
<path d="M358.949 411.019C358.919 411.019 358.889 411.011 358.861 410.996C358.146 410.591 356.784 408.974 356.953 408.129C356.985 407.968 357.106 407.689 357.551 407.635C357.836 407.593 358.085 407.68 358.302 407.871C359.116 408.592 359.127 410.75 359.127 410.842C359.127 410.906 359.093 410.963 359.038 410.995C359.011 411.011 358.98 411.019 358.949 411.019ZM357.675 407.98C357.649 407.98 357.621 407.982 357.594 407.985C357.367 408.013 357.319 408.113 357.302 408.198C357.198 408.712 358.048 409.927 358.761 410.496C358.72 409.777 358.552 408.565 358.067 408.136C357.949 408.032 357.82 407.98 357.675 407.98Z" fill="#F97C08"/>
<path d="M322.923 411.283C322.177 411.283 321.49 411.167 321.106 410.821C320.861 410.601 320.753 410.31 320.785 409.957C320.805 409.745 320.908 409.582 321.086 409.485C322.013 408.974 324.991 410.506 325.329 410.683C325.395 410.717 325.433 410.79 325.423 410.866C325.412 410.94 325.356 411 325.281 411.014C324.645 411.142 323.748 411.283 322.923 411.283ZM321.587 409.732C321.449 409.732 321.337 409.752 321.256 409.797C321.183 409.837 321.147 409.896 321.138 409.988C321.116 410.228 321.184 410.414 321.343 410.557C321.796 410.965 323.032 411.037 324.691 410.761C323.662 410.269 322.297 409.732 321.587 409.732Z" fill="#F97C08"/>
<path d="M325.246 411.019C325.222 411.019 325.196 411.013 325.173 411.003C324.279 410.599 322.513 408.982 322.652 408.134C322.685 407.933 322.827 407.683 323.319 407.633C323.683 407.598 324.013 407.698 324.302 407.94C325.243 408.724 325.416 410.742 325.423 410.827C325.428 410.89 325.4 410.951 325.349 410.987C325.317 411.008 325.282 411.019 325.246 411.019ZM323.461 407.98C323.426 407.98 323.391 407.982 323.354 407.986C323.031 408.018 323.009 408.148 323.003 408.19C322.92 408.7 324.119 409.971 325.029 410.523C324.942 409.936 324.693 408.726 324.075 408.212C323.888 408.057 323.686 407.98 323.461 407.98Z" fill="#F97C08"/>
<path d="M337.068 179.296C336.78 183.818 335.996 193.004 339.466 195.542C339.466 195.542 338.846 200.172 330.653 201.244C321.644 202.423 325.763 197.335 325.763 197.335C330.526 195.517 329.922 191.886 328.617 188.573L337.068 179.296Z" fill="#E4897B"/>
<path d="M318.443 171.309C318.344 171.309 318.246 171.268 318.175 171.187C317.133 169.993 315.837 170.162 315.824 170.163C315.607 170.191 315.45 170.055 315.423 169.861C315.396 169.667 315.531 169.488 315.725 169.46C315.796 169.452 317.417 169.24 318.71 170.72C318.839 170.868 318.823 171.092 318.676 171.221C318.609 171.28 318.526 171.309 318.443 171.309Z" fill="#263238"/>
<path d="M316.883 175.738C316.883 175.738 316.204 178.451 315.247 179.843C316.135 180.478 317.436 179.964 317.436 179.964L316.883 175.738Z" fill="#DE5753"/>
<path d="M317.285 174.638C317.363 175.237 317.109 175.765 316.718 175.816C316.326 175.867 315.945 175.423 315.867 174.824C315.789 174.225 316.043 173.697 316.434 173.646C316.825 173.594 317.206 174.039 317.285 174.638Z" fill="#263238"/>
<path d="M316.611 173.656L315.117 173.429C315.117 173.429 316.003 174.457 316.611 173.656Z" fill="#263238"/>
<path d="M333.486 410.841H325.993L325.492 393.487H332.986L333.486 410.841Z" fill="#E4897B"/>
<path d="M367.535 410.841H360.041L357.632 393.487H365.125L367.535 410.841Z" fill="#E4897B"/>
<path d="M359.576 409.973H367.995C368.301 409.973 368.55 410.186 368.593 410.485L369.552 417.146C369.651 417.837 369.057 418.491 368.351 418.479C365.416 418.428 364.001 418.256 360.299 418.256C358.021 418.256 354.694 418.493 351.548 418.493C348.472 418.493 348.235 415.383 349.545 415.101C355.418 413.838 356.345 412.096 358.324 410.434C358.68 410.134 359.128 409.973 359.576 409.973Z" fill="#263238"/>
<path d="M325.736 409.973H334.155C334.461 409.973 334.71 410.186 334.753 410.485L335.712 417.146C335.811 417.837 335.217 418.491 334.511 418.479C331.576 418.428 330.161 418.256 326.459 418.256C324.181 418.256 319.47 418.493 316.325 418.493C313.249 418.493 313.012 415.383 314.322 415.101C320.195 413.838 322.506 412.096 324.484 410.434C324.84 410.134 325.288 409.973 325.736 409.973Z" fill="#263238"/>
<path d="M325.494 393.491L325.75 402.437H333.247L332.991 393.491H325.494Z" fill="#CE6F64"/>
<path d="M365.128 393.491H357.631L358.876 402.437H366.373L365.128 393.491Z" fill="#CE6F64"/>
<path d="M337.167 169.944C337.678 177.364 338.053 180.493 334.829 184.758C329.981 191.172 320.755 190.177 318.038 183.06C315.592 176.654 315.167 165.596 321.989 161.724C328.71 157.909 336.656 162.525 337.167 169.944Z" fill="#E4897B"/>
<path d="M341.487 176.833C345.654 179.154 348.737 173.429 348.737 173.429C348.737 173.429 341.279 174.239 341.945 169.799C342.829 163.91 338.612 156.749 328.028 157.666C327.442 157.717 326.876 157.791 326.327 157.881C324.276 157.024 321.498 157.115 319.747 159.396C316.786 159.646 312.702 163.23 315.444 167.958C315.444 167.958 315.683 167.207 316.33 166.49C316.554 169.257 318.983 173.657 322.001 173.946C322.652 177.74 320.134 182.131 321.028 186.085C322.32 191.795 331.945 193.125 331.945 193.125C330.89 190.359 332.51 188.722 332.51 188.722C339.052 191.708 343.362 188.791 343.362 188.791C338.904 187.124 340.251 184.166 340.251 184.166C346.223 186.444 348.737 181.083 348.737 181.083C345.557 181.25 342.871 179.472 341.487 176.833Z" fill="#263238"/>
<path d="M324.614 175.087C324.663 176.628 323.995 178.048 323.113 178.957C321.786 180.325 320.166 179.37 319.733 177.617C319.343 176.039 319.564 173.425 321.281 172.712C322.974 172.011 324.558 173.325 324.614 175.087Z" fill="#E4897B"/>
<path d="M330.839 244.222C330.839 244.222 332.744 293.578 337.257 322.565C340.902 345.978 357.067 400.704 357.067 400.704H367.286C367.286 400.704 358.863 347.851 357.013 324.694C352.332 266.097 364.476 253.519 353.047 241.315L330.839 244.222Z" fill="#263238"/>
<path d="M339.38 259.83C339.38 259.83 334.76 259.03 332.06 267.83C333.08 284.5 334.77 306.62 337.26 322.56C337.81 326.11 338.65 330.39 339.68 335.08C337.73 306.92 339.38 259.83 339.38 259.83Z" fill="#161F33"/>
<path d="M322.869 245.265C322.869 245.265 314.446 299.87 314.938 322.723C315.449 346.493 324.159 400.705 324.159 400.705H334.292C334.292 400.705 332.688 347.882 333.584 324.537C334.561 299.088 344.968 242.373 344.968 242.373L322.869 245.265Z" fill="#263238"/>
<path d="M368.767 401.177H355.184L354.124 396.618L368.673 396.722L368.767 401.177Z" fill="#F97C08"/>
<path opacity="0.2" d="M368.767 401.177H355.184L354.124 396.618L368.673 396.722L368.767 401.177Z" fill="black"/>
<path d="M352.501 195.555C356.406 195.927 362.349 207.037 362.349 207.037L352.479 214.611C352.479 214.611 344.307 207.441 345.28 203.412C346.293 199.217 348.751 195.197 352.501 195.555Z" fill="#F97C08"/>
<path opacity="0.1" d="M352.501 195.555C356.406 195.927 362.349 207.037 362.349 207.037L352.479 214.611C352.479 214.611 344.307 207.441 345.28 203.412C346.293 199.217 348.751 195.197 352.501 195.555Z" fill="black"/>
<path d="M349.55 200.33C349.55 200.33 347.98 199.88 346.49 199.99C345.97 201.05 345.57 202.22 345.28 203.41C344.31 207.44 352.48 214.61 352.48 214.61L353.21 214.05L349.55 200.33Z" fill="#F97C08"/>
<path opacity="0.3" d="M349.55 200.33C349.55 200.33 347.98 199.88 346.49 199.99C345.97 201.05 345.57 202.22 345.28 203.41C344.31 207.44 352.48 214.61 352.48 214.61L353.21 214.05L349.55 200.33Z" fill="black"/>
<path d="M319.52 210.997C316.669 218.213 313.667 225.54 311.278 232.773C311.124 233.226 310.985 233.674 310.852 234.121L310.512 235.231C310.421 235.579 310.403 235.843 310.515 236.268C310.738 237.116 311.787 238.346 313.105 239.366C315.775 241.465 319.357 243.144 322.791 244.556L321.895 248.244C317.719 247.602 313.776 246.518 309.808 244.298C307.889 243.122 305.793 241.66 304.425 238.843C303.757 237.454 303.473 235.678 303.727 234.078C303.754 233.877 303.795 233.685 303.833 233.488L303.926 233.074L304.103 232.314C304.219 231.805 304.34 231.3 304.472 230.807C305.499 226.828 306.75 223.015 308.095 219.237C309.429 215.451 310.86 211.751 312.45 208.042L319.52 210.997Z" fill="#E4897B"/>
<path d="M313.451 200.883C313.451 200.883 310.074 202.593 322.869 245.265C334.844 243.698 347.22 242.079 353.047 241.317C350.934 229.101 349.929 221.529 352.501 195.555C352.501 195.555 345.998 195.007 339.465 195.543C334.355 195.963 330.173 196.345 325.762 197.336C319.947 198.643 313.451 200.883 313.451 200.883Z" fill="#F97C08"/>
<path opacity="0.1" d="M313.451 200.883C313.451 200.883 310.074 202.593 322.869 245.265C334.844 243.698 347.22 242.079 353.047 241.317C350.934 229.101 349.929 221.529 352.501 195.555C352.501 195.555 345.998 195.007 339.465 195.543C334.355 195.963 330.173 196.345 325.762 197.336C319.947 198.643 313.451 200.883 313.451 200.883Z" fill="black"/>
<path d="M353.267 239.486L354.981 242.009C355.114 242.205 354.894 242.451 354.545 242.497L322.897 246.638C322.625 246.674 322.382 246.57 322.343 246.401L321.717 243.735C321.674 243.55 321.889 243.361 322.186 243.322L352.746 239.324C352.971 239.294 353.182 239.36 353.267 239.486Z" fill="#F97C08"/>
<path opacity="0.2" d="M353.267 239.486L354.981 242.009C355.114 242.205 354.894 242.451 354.545 242.497L322.897 246.638C322.625 246.674 322.382 246.57 322.343 246.401L321.717 243.735C321.674 243.55 321.889 243.361 322.186 243.322L352.746 239.324C352.971 239.294 353.182 239.36 353.267 239.486Z" fill="black"/>
<path d="M349.61 243.44L350.429 243.333C350.592 243.312 350.705 243.211 350.68 243.11L349.837 239.651C349.812 239.55 349.659 239.484 349.496 239.506L348.677 239.613C348.514 239.634 348.401 239.735 348.426 239.836L349.269 243.295C349.293 243.396 349.447 243.462 349.61 243.44Z" fill="#263238"/>
<path d="M329.771 246.036L330.59 245.929C330.753 245.908 330.866 245.807 330.841 245.706L329.998 242.247C329.973 242.146 329.82 242.08 329.657 242.102L328.838 242.209C328.675 242.23 328.562 242.331 328.587 242.432L329.43 245.891C329.455 245.992 329.609 246.057 329.771 246.036Z" fill="#263238"/>
<path d="M314.86 215.36C315.69 219.22 316.89 224.11 318.57 230.3L318.94 214.61L314.86 215.36Z" fill="#F97C08"/>
<path opacity="0.3" d="M314.86 215.36C315.69 219.22 316.89 224.11 318.57 230.3L318.94 214.61L314.86 215.36Z" fill="black"/>
<path d="M313.451 200.883C309.699 202.389 306.478 215.222 306.478 215.222L319.375 221.5C319.375 221.5 325.615 205.809 322.819 202.75C319.906 199.564 317.767 199.15 313.451 200.883Z" fill="#F97C08"/>
<path opacity="0.1" d="M313.451 200.883C309.699 202.389 306.478 215.222 306.478 215.222L319.375 221.5C319.375 221.5 325.615 205.809 322.819 202.75C319.906 199.564 317.767 199.15 313.451 200.883Z" fill="black"/>
<path d="M336.017 401.177H322.434L321.374 396.618L336.499 396.722L336.017 401.177Z" fill="#F97C08"/>
<path opacity="0.2" d="M336.017 401.177H322.434L321.374 396.618L336.499 396.722L336.017 401.177Z" fill="black"/>
<path d="M323.001 243.278L321.912 242.83C320.737 242.346 319.483 243.33 319.673 244.587L320.462 249.799C320.63 250.908 321.77 251.608 322.822 251.22C323.182 251.087 323.557 250.892 323.918 250.61C324.667 250.024 325.042 249.076 324.997 248.126L324.895 245.966C324.839 244.779 324.1 243.731 323.001 243.278Z" fill="#E4897B"/>
</svg>
