<svg width="358" height="371" viewBox="0 0 358 371" fill="none" xmlns="http://www.w3.org/2000/svg">
<path d="M70.9373 122.544C71.0263 122.544 71.1129 122.539 71.1994 122.537C74.0285 158.614 108.371 192.42 139.456 192.42C169.952 192.42 204.835 158.614 207.711 122.537C207.8 122.539 207.887 122.544 207.975 122.544C214.57 122.544 219.914 117.199 219.914 110.603C219.914 102.352 223.101 96.3822 223.101 89.6592C223.101 81.8551 216.774 75.5276 208.968 75.5276C208.61 75.5276 208.254 75.5441 207.901 75.572C207.901 75.572 208.404 69.9371 208.404 64.5902C208.404 24.3647 182.752 6.10352e-05 145.058 6.10352e-05H133.854C96.1605 6.10352e-05 70.5087 24.3647 70.5087 64.5902C70.5087 69.9371 71.0119 75.572 71.0119 75.572C70.6586 75.5439 70.303 75.5276 69.9449 75.5276C62.1385 75.5276 55.811 81.8551 55.811 89.6592C55.811 96.3822 58.9982 102.352 58.9982 110.603C58.9984 117.199 64.3431 122.544 70.9373 122.544Z" fill="#F97C08"/>
<path d="M334.021 230.867C318.558 215.404 297.999 206.888 276.131 206.888C264.083 206.888 252.435 209.478 241.815 214.386C222.553 197.788 199.807 188.417 192.655 185.718C176.537 201.07 157.29 209.819 139.456 209.819C121.418 209.819 102.106 201.098 86.0661 185.79C77.8725 188.898 50.9084 200.131 30.7834 220.232C18.1337 232.869 8.5477 253.208 2.31154 269.626C-4.09161 286.473 3.21024 305.457 19.2436 313.689C41.3159 325.024 79.3567 334.246 139.456 334.246C165.286 334.246 187.039 332.542 205.202 329.7C208.746 335.817 213.109 341.514 218.241 346.647C233.704 362.11 254.264 370.626 276.131 370.626C297.999 370.626 318.558 362.11 334.021 346.647C349.484 331.184 358 310.625 358 288.757C358 266.889 349.484 246.33 334.021 230.867ZM276.131 357.009C238.497 357.009 207.879 326.391 207.879 288.757C207.879 251.122 238.497 220.504 276.131 220.504C313.765 220.504 344.383 251.122 344.383 288.757C344.383 326.391 313.765 357.009 276.131 357.009Z" fill="#F97C08"/>
<path d="M309.582 282.97H281.918V255.305C281.918 252.109 279.327 249.518 276.131 249.518C272.935 249.518 270.344 252.109 270.344 255.305V282.97H242.679C239.483 282.97 236.892 285.561 236.892 288.757C236.892 291.953 239.483 294.544 242.679 294.544H270.344V322.208C270.344 325.404 272.934 327.995 276.131 327.995C279.327 327.995 281.918 325.404 281.918 322.208V294.544H309.582C312.778 294.544 315.369 291.953 315.369 288.757C315.369 285.561 312.778 282.97 309.582 282.97Z" fill="#F97C08"/>
</svg>
