<svg width="446" height="303" viewBox="0 0 446 303" fill="none" xmlns="http://www.w3.org/2000/svg">
<path d="M432.103 162.295C426.484 168.087 423.347 174.829 423.327 174.862C423.287 174.878 430.489 173.178 436.448 167.049C442.418 160.933 444.297 153.297 444.279 153.339C444.248 153.36 437.743 156.529 432.103 162.295Z" fill="#F97C08"/>
<path d="M376.474 200.999C378.712 200.226 380.928 199.397 383.123 198.518C387.513 196.76 391.811 194.782 396.011 192.609C404.41 188.263 412.41 183.106 419.885 177.174C421.929 175.552 423.934 173.874 425.903 172.145C427.977 170.323 429.96 168.332 432.077 166.557C432.27 166.395 432.498 166.652 432.331 166.846C429.18 170.511 425.377 173.602 421.692 176.618C417.981 179.658 414.136 182.508 410.175 185.166C402.254 190.482 393.858 195.023 385.08 198.683C382.68 199.684 380.251 200.618 377.797 201.486C375.219 202.399 372.596 203.405 369.906 203.926C369.465 204.011 369.306 203.41 369.724 203.247C371.928 202.378 374.244 201.769 376.474 200.999Z" fill="#F97C08"/>
<path d="M431.551 165.286C431.668 165.188 431.814 165.344 431.697 165.451C429.354 167.606 427.116 169.966 425.08 172.44C424.559 173.074 424.057 173.722 423.562 174.378C423.819 173.866 424.286 172.978 424.943 171.858C426.972 169.517 429.115 167.312 431.551 165.286Z" fill="#F97C08"/>
<path d="M426.39 173.138C428.846 171.661 431.173 169.913 433.205 167.781C433.349 167.63 433.525 167.84 433.394 167.995C431.556 170.158 429.4 171.937 427.057 173.408C426.859 173.532 426.659 173.657 426.458 173.782C424.564 174.569 423.326 174.86 423.326 174.863C423.326 174.863 423.353 174.805 423.404 174.699C424.417 174.211 425.43 173.715 426.39 173.138Z" fill="#F97C08"/>
<path d="M417.75 165.877C417.003 173.787 416.306 180.559 416.106 180.487C416.296 180.628 423.234 175.667 423.93 167.506C424.647 159.423 423.849 152.949 424.073 152.994C423.846 153.015 418.52 158.041 417.75 165.877Z" fill="#F97C08"/>
<path d="M419.005 168.652C419.043 168.51 419.249 168.562 419.216 168.712C418.561 171.717 417.961 174.854 416.991 177.791C416.744 178.543 416.484 179.285 416.189 180.013C416.277 179.506 416.439 178.61 416.601 177.407C417.591 174.564 418.199 171.602 419.005 168.652Z" fill="#F97C08"/>
<path d="M418.596 177.669C420.339 175.273 421.343 172.613 421.759 169.814C421.788 169.615 422.051 169.691 422.034 169.886C421.793 172.605 420.962 175.192 419.37 177.536C419.236 177.733 419.097 177.932 418.953 178.131C417.42 179.7 416.094 180.484 416.106 180.488C416.106 180.488 416.115 180.432 416.133 180.329C417.073 179.486 417.916 178.605 418.596 177.669Z" fill="#F97C08"/>
<path d="M416.107 180.487C416.107 180.487 416.162 180.163 416.265 179.576C417.007 178.491 417.63 177.37 418.11 176.241C419.289 173.467 419.803 170.519 420.5 167.681C420.533 167.545 420.707 167.592 420.696 167.734C420.476 170.704 419.792 173.615 418.624 176.397C418.106 177.633 417.499 178.885 416.705 180.077C416.331 180.347 416.107 180.487 416.107 180.487Z" fill="#F97C08"/>
<path d="M430.46 182.527C422.387 182.15 416.197 180.357 416.187 180.608C416.26 180.371 422.541 175.282 430.392 175.533C438.308 175.83 445.036 176.026 445.017 175.796C445.103 176.035 438.603 182.95 430.46 182.527Z" fill="#F97C08"/>
<path d="M428.105 180.687C428.253 180.671 428.261 180.439 428.106 180.448C425.013 180.618 421.89 180.486 418.908 180.582C418.143 180.605 417.389 180.632 416.638 180.685C417.121 180.765 417.979 180.897 419.13 181.095C422.048 180.94 425.018 181.026 428.105 180.687Z" fill="#F97C08"/>
<path d="M419.519 178.987C422.217 177.909 424.926 177.472 427.702 177.515C427.899 177.518 427.888 177.224 427.698 177.208C425.044 176.994 422.454 177.281 419.867 178.238C419.649 178.319 419.428 178.403 419.205 178.491C417.335 179.583 416.186 180.616 416.186 180.607C416.186 180.607 416.239 180.617 416.337 180.634C417.407 179.981 418.465 179.408 419.519 178.987Z" fill="#F97C08"/>
<path d="M416.187 180.607C416.187 180.607 416.493 180.663 417.056 180.752C418.279 180.363 419.493 180.068 420.678 179.887C423.583 179.443 426.508 179.538 429.448 179.227C429.589 179.212 429.587 179.016 429.447 179.005C426.507 178.78 423.591 178.884 420.691 179.316C419.402 179.508 418.082 179.745 416.754 180.147C416.388 180.433 416.187 180.607 416.187 180.607Z" fill="#F97C08"/>
<path d="M405.771 175.043C404.251 182.813 402.886 189.464 402.695 189.37C402.872 189.53 410.268 185.374 411.758 177.353C413.262 169.411 413.097 162.901 413.316 162.971C413.087 162.965 407.307 167.346 405.771 175.043Z" fill="#F97C08"/>
<path d="M406.747 177.939C406.799 177.802 406.998 177.876 406.951 178.022C406.004 180.933 405.098 183.982 403.842 186.79C403.522 187.51 403.19 188.218 402.824 188.908C402.962 188.415 403.212 187.542 403.492 186.365C404.758 183.651 405.655 180.777 406.747 177.939Z" fill="#F97C08"/>
<path d="M405.452 186.847C407.423 184.661 408.683 182.132 409.372 179.399C409.42 179.205 409.675 179.31 409.639 179.501C409.132 182.173 408.052 184.649 406.236 186.8C406.083 186.981 405.925 187.164 405.762 187.345C404.082 188.732 402.684 189.364 402.695 189.369C402.695 189.369 402.709 189.314 402.737 189.214C403.756 188.482 404.683 187.701 405.452 186.847Z" fill="#F97C08"/>
<path d="M402.695 189.37C402.693 189.369 402.782 189.055 402.943 188.482C403.789 187.487 404.52 186.443 405.109 185.375C406.556 182.751 407.357 179.881 408.329 177.141C408.375 177.01 408.544 177.075 408.519 177.215C408.009 180.139 407.042 182.953 405.606 185.586C404.968 186.756 404.241 187.932 403.332 189.028C402.932 189.255 402.695 189.37 402.695 189.37Z" fill="#F97C08"/>
<path d="M416.777 192.996C408.785 191.718 402.798 189.251 402.763 189.499C402.86 189.271 409.616 184.914 417.395 186.045C425.236 187.228 431.9 188.186 431.903 187.956C431.967 188.202 424.837 194.326 416.777 192.996Z" fill="#F97C08"/>
<path d="M414.615 190.906C414.764 190.906 414.794 190.677 414.64 190.669C411.546 190.492 408.452 190.012 405.474 189.776C404.71 189.714 403.957 189.657 403.204 189.626C403.678 189.759 404.518 189.985 405.644 190.31C408.565 190.481 411.512 190.897 414.615 190.906Z" fill="#F97C08"/>
<path d="M406.24 188.259C409.032 187.489 411.769 187.357 414.526 187.711C414.722 187.736 414.74 187.442 414.552 187.406C411.933 186.897 409.329 186.891 406.66 187.554C406.435 187.61 406.207 187.669 405.977 187.732C404.008 188.608 402.761 189.507 402.762 189.498C402.762 189.498 402.814 189.514 402.909 189.542C404.04 189.012 405.149 188.56 406.24 188.259Z" fill="#F97C08"/>
<path d="M402.763 189.498C402.763 189.498 403.063 189.587 403.613 189.739C404.869 189.489 406.107 189.33 407.304 189.283C410.239 189.166 413.139 189.587 416.094 189.607C416.235 189.608 416.253 189.413 416.114 189.387C413.212 188.835 410.302 188.612 407.373 188.718C406.071 188.765 404.733 188.854 403.372 189.105C402.981 189.347 402.763 189.498 402.763 189.498Z" fill="#F97C08"/>
<path d="M392.273 183.168C389.947 190.708 387.883 197.156 387.703 197.041C387.864 197.221 395.678 193.949 397.993 186.159C400.318 178.448 400.824 171.97 401.035 172.064C400.809 172.031 394.609 175.703 392.273 183.168Z" fill="#F97C08"/>
<path d="M392.942 186.157C393.008 186.027 393.199 186.124 393.136 186.263C391.888 189.044 390.666 191.966 389.118 194.611C388.723 195.289 388.317 195.953 387.879 196.597C388.069 196.123 388.41 195.285 388.813 194.149C390.362 191.6 391.557 188.849 392.942 186.157Z" fill="#F97C08"/>
<path d="M390.718 194.855C392.913 192.912 394.433 190.547 395.404 187.914C395.473 187.727 395.715 187.861 395.659 188.046C394.875 190.641 393.54 192.974 391.504 194.9C391.333 195.062 391.156 195.225 390.974 195.386C389.153 196.569 387.691 197.035 387.703 197.041C387.703 197.041 387.723 196.988 387.761 196.892C388.855 196.282 389.861 195.613 390.718 194.855Z" fill="#F97C08"/>
<path d="M387.703 197.041C387.703 197.041 387.823 196.738 388.043 196.188C388.992 195.298 389.83 194.346 390.53 193.353C392.248 190.915 393.347 188.158 394.601 185.55C394.661 185.425 394.822 185.51 394.782 185.646C393.969 188.49 392.711 191.172 391.003 193.621C390.244 194.709 389.396 195.793 388.374 196.776C387.951 196.954 387.703 197.041 387.703 197.041Z" fill="#F97C08"/>
<path d="M401.359 202.276C393.532 200.078 387.817 196.935 387.757 197.176C387.879 196.961 395.076 193.415 402.7 195.445C410.383 197.533 416.908 199.266 416.935 199.038C416.974 199.289 409.25 204.533 401.359 202.276Z" fill="#F97C08"/>
<path d="M399.424 199.949C399.573 199.967 399.626 199.743 399.474 199.716C396.411 199.181 393.377 198.345 390.432 197.765C389.677 197.615 388.931 197.471 388.184 197.353C388.642 197.54 389.457 197.862 390.546 198.315C393.44 198.825 396.334 199.58 399.424 199.949Z" fill="#F97C08"/>
<path d="M391.355 196.348C394.219 195.907 396.96 196.094 399.67 196.766C399.862 196.814 399.911 196.524 399.728 196.466C397.173 195.655 394.579 195.348 391.849 195.696C391.619 195.725 391.385 195.757 391.149 195.793C389.094 196.435 387.755 197.184 387.757 197.175C387.757 197.175 387.807 197.197 387.9 197.236C389.082 196.841 390.236 196.52 391.355 196.348Z" fill="#F97C08"/>
<path d="M387.757 197.176C387.757 197.176 388.047 197.299 388.58 197.513C389.859 197.41 391.11 197.396 392.309 197.488C395.247 197.712 398.093 198.467 401.033 198.831C401.174 198.848 401.212 198.657 401.076 198.615C398.244 197.729 395.368 197.169 392.437 196.935C391.134 196.83 389.791 196.764 388.407 196.855C387.99 197.051 387.757 197.176 387.757 197.176Z" fill="#F97C08"/>
<path d="M378.66 189.399C375.577 196.638 372.855 202.819 372.686 202.685C372.83 202.881 380.979 200.49 384.072 193.002C387.168 185.594 388.317 179.212 388.518 179.329C388.295 179.272 381.747 182.236 378.66 189.399Z" fill="#F97C08"/>
<path d="M379.026 192.444C379.105 192.322 379.286 192.44 379.21 192.57C377.683 195.196 376.164 197.967 374.348 200.425C373.884 201.055 373.41 201.671 372.907 202.262C373.145 201.812 373.571 201.017 374.09 199.932C375.898 197.57 377.371 194.967 379.026 192.444Z" fill="#F97C08"/>
<path d="M375.923 200.844C378.315 199.155 380.073 196.971 381.309 194.461C381.397 194.283 381.625 194.442 381.55 194.621C380.506 197.114 378.936 199.286 376.705 200.976C376.517 201.118 376.324 201.261 376.126 201.401C374.185 202.376 372.675 202.678 372.685 202.686C372.685 202.686 372.71 202.636 372.759 202.544C373.915 202.058 374.99 201.504 375.923 200.844Z" fill="#F97C08"/>
<path d="M372.685 202.685C372.683 202.684 372.836 202.397 373.112 201.874C374.152 201.094 375.087 200.24 375.887 199.33C377.852 197.096 379.229 194.476 380.744 192.022C380.816 191.905 380.968 192.006 380.916 192.137C379.817 194.874 378.29 197.402 376.334 199.648C375.465 200.646 374.506 201.63 373.384 202.494C372.943 202.626 372.685 202.685 372.685 202.685Z" fill="#F97C08"/>
<path d="M385.81 209.394C378.212 206.347 372.81 202.593 372.726 202.826C372.871 202.626 380.431 199.894 387.837 202.753C395.297 205.675 401.628 208.119 401.678 207.896C401.692 208.148 393.467 212.505 385.81 209.394Z" fill="#F97C08"/>
<path d="M384.111 206.867C384.258 206.901 384.334 206.684 384.184 206.641C381.178 205.772 378.229 204.607 375.342 203.706C374.602 203.474 373.871 203.248 373.135 203.048C373.575 203.284 374.357 203.695 375.401 204.265C378.244 205.09 381.061 206.16 384.111 206.867Z" fill="#F97C08"/>
<path d="M376.41 202.399C379.319 202.277 382.04 202.764 384.678 203.731C384.865 203.8 384.943 203.517 384.767 203.439C382.297 202.352 379.736 201.76 376.97 201.806C376.737 201.81 376.499 201.816 376.26 201.825C374.14 202.237 372.723 202.833 372.726 202.825C372.726 202.825 372.773 202.852 372.862 202.901C374.086 202.638 375.273 202.447 376.41 202.399Z" fill="#F97C08"/>
<path d="M372.726 202.825C372.726 202.825 373.003 202.979 373.515 203.251C374.805 203.29 376.058 203.414 377.248 203.638C380.164 204.185 382.932 205.249 385.831 205.934C385.97 205.967 386.027 205.781 385.896 205.724C383.157 204.531 380.339 203.658 377.432 203.102C376.14 202.854 374.803 202.64 373.409 202.579C372.972 202.727 372.726 202.825 372.726 202.825Z" fill="#F97C08"/>
<path d="M315.803 100.52C312.995 108.119 312.837 115.568 312.832 115.607C312.802 115.638 318.7 111.129 321.684 103.082C324.682 95.042 323.331 87.293 323.332 87.339C323.312 87.37 318.641 92.935 315.803 100.52Z" fill="#E8E0FF"/>
<path d="M280.518 158.721C282.252 157.096 283.945 155.429 285.597 153.725C288.903 150.316 292.035 146.745 295 143.035C300.929 135.616 306.168 127.62 310.615 119.131C311.831 116.81 312.989 114.453 314.093 112.065C315.257 109.549 316.269 106.915 317.49 104.424C317.601 104.197 317.913 104.338 317.838 104.584C316.431 109.227 314.198 113.612 312.042 117.88C309.872 122.181 307.503 126.364 304.952 130.418C299.849 138.527 294.002 146.122 287.45 153.07C285.659 154.97 283.815 156.82 281.921 158.621C279.931 160.513 277.94 162.509 275.69 164.089C275.321 164.348 274.934 163.864 275.251 163.543C276.919 161.847 278.79 160.34 280.518 158.721Z" fill="#E8E0FF"/>
<path d="M316.501 103.479C316.569 103.342 316.765 103.424 316.701 103.57C315.425 106.501 314.329 109.576 313.463 112.673C313.241 113.467 313.043 114.265 312.854 115.067C312.883 114.494 312.954 113.491 313.103 112.198C314.016 109.225 315.089 106.33 316.501 103.479Z" fill="#E8E0FF"/>
<path d="M314.939 112.773C316.59 110.415 318.014 107.862 319.015 105.08C319.086 104.882 319.331 105.003 319.273 105.198C318.462 107.929 317.207 110.439 315.657 112.746C315.526 112.941 315.394 113.137 315.26 113.334C313.845 114.831 312.831 115.605 312.832 115.607C312.832 115.607 312.833 115.543 312.837 115.425C313.568 114.563 314.294 113.694 314.939 112.773Z" fill="#E8E0FF"/>
<path d="M304.127 109.684C306.623 117.219 308.706 123.693 308.495 123.71C308.725 123.761 313.072 116.38 310.429 108.636C307.837 100.955 304.506 95.367 304.729 95.315C304.529 95.428 301.681 102.207 304.127 109.684Z" fill="#E8E0FF"/>
<path d="M306.388 111.705C306.366 111.559 306.574 111.523 306.605 111.673C307.214 114.688 307.926 117.801 308.219 120.883C308.296 121.672 308.356 122.456 308.379 123.242C308.256 122.743 308.044 121.858 307.709 120.692C307.471 117.688 306.837 114.732 306.388 111.705Z" fill="#E8E0FF"/>
<path d="M309.638 120.112C310.267 117.207 310.117 114.365 309.372 111.635C309.319 111.441 309.59 111.403 309.652 111.588C310.524 114.172 310.804 116.876 310.291 119.672C310.248 119.907 310.201 120.146 310.149 120.387C309.379 122.45 308.482 123.711 308.495 123.709C308.495 123.709 308.481 123.654 308.455 123.553C308.976 122.398 309.392 121.247 309.638 120.112Z" fill="#E8E0FF"/>
<path d="M308.495 123.709C308.495 123.709 308.416 123.391 308.273 122.811C308.515 121.515 308.634 120.235 308.619 119.006C308.582 115.988 307.867 113.083 307.363 110.203C307.339 110.065 307.516 110.036 307.564 110.17C308.556 112.974 309.101 115.915 309.152 118.937C309.175 120.279 309.124 121.672 308.877 123.087C308.643 123.489 308.495 123.709 308.495 123.709Z" fill="#E8E0FF"/>
<path d="M322.431 119.682C314.902 122.651 308.526 123.553 308.617 123.786C308.588 123.539 312.284 116.311 319.559 113.318C326.912 110.34 333.139 107.758 333.029 107.556C333.204 107.74 330.043 116.727 322.431 119.682Z" fill="#E8E0FF"/>
<path d="M319.539 118.967C319.668 118.891 319.582 118.677 319.444 118.748C316.686 120.173 313.779 121.334 311.092 122.646C310.403 122.981 309.724 123.315 309.059 123.672C309.533 123.546 310.37 123.315 311.501 123.024C314.106 121.685 316.855 120.544 319.539 118.967Z" fill="#E8E0FF"/>
<path d="M311.01 120.938C313.043 118.846 315.342 117.334 317.897 116.234C318.078 116.156 317.95 115.891 317.77 115.955C315.259 116.849 313.007 118.174 311.027 120.11C310.86 120.273 310.692 120.441 310.524 120.613C309.254 122.378 308.619 123.794 308.615 123.786C308.615 123.786 308.667 123.774 308.764 123.749C309.48 122.714 310.216 121.755 311.01 120.938Z" fill="#E8E0FF"/>
<path d="M308.616 123.786C308.616 123.786 308.918 123.711 309.468 123.562C310.429 122.705 311.421 121.936 312.431 121.285C314.908 119.687 317.618 118.573 320.18 117.082C320.303 117.011 320.222 116.832 320.09 116.88C317.313 117.881 314.69 119.173 312.214 120.758C311.113 121.462 310.002 122.221 308.95 123.133C308.73 123.544 308.616 123.786 308.616 123.786Z" fill="#E8E0FF"/>
<path d="M296.863 122.976C298.596 130.701 300.021 137.338 299.808 137.331C300.034 137.405 305.123 130.571 303.261 122.629C301.445 114.754 298.678 108.873 298.906 108.847C298.695 108.937 295.174 115.313 296.863 122.976Z" fill="#E8E0FF"/>
<path d="M298.917 125.222C298.91 125.076 299.121 125.062 299.137 125.214C299.441 128.263 299.838 131.421 299.819 134.503C299.815 135.292 299.796 136.075 299.74 136.856C299.668 136.348 299.546 135.449 299.329 134.258C299.396 131.259 299.06 128.264 298.917 125.222Z" fill="#E8E0FF"/>
<path d="M301.314 133.895C302.237 131.088 302.372 128.26 301.904 125.48C301.871 125.283 302.145 125.274 302.189 125.464C302.8 128.114 302.807 130.82 302.012 133.531C301.945 133.759 301.874 133.991 301.798 134.223C300.82 136.181 299.796 137.332 299.809 137.332C299.809 137.332 299.8 137.276 299.785 137.173C300.421 136.085 300.954 134.991 301.314 133.895Z" fill="#E8E0FF"/>
<path d="M299.808 137.332C299.806 137.332 299.761 137.008 299.677 136.419C300.05 135.163 300.299 133.908 300.408 132.69C300.676 129.699 300.255 126.747 300.042 123.844C300.032 123.705 300.212 123.696 300.245 123.834C300.954 126.715 301.201 129.684 300.946 132.68C300.833 134.011 300.641 135.384 300.251 136.759C299.978 137.129 299.808 137.332 299.808 137.332Z" fill="#E8E0FF"/>
<path d="M314.134 134.865C306.317 136.978 299.855 137.181 299.922 137.421C299.919 137.173 304.342 130.418 311.906 128.259C319.546 126.122 326.021 124.262 325.932 124.051C326.088 124.25 322.033 132.772 314.134 134.865Z" fill="#E8E0FF"/>
<path d="M311.318 133.842C311.455 133.781 311.39 133.56 311.245 133.615C308.347 134.723 305.327 135.555 302.51 136.561C301.787 136.818 301.076 137.075 300.375 137.355C300.861 137.282 301.72 137.144 302.88 136.978C305.618 135.938 308.479 135.108 311.318 133.842Z" fill="#E8E0FF"/>
<path d="M302.602 134.861C304.844 133.012 307.292 131.768 309.954 130.959C310.143 130.902 310.041 130.626 309.856 130.67C307.258 131.279 304.876 132.343 302.703 134.044C302.52 134.187 302.335 134.335 302.15 134.487C300.703 136.096 299.925 137.429 299.922 137.421C299.922 137.421 299.975 137.414 300.074 137.4C300.893 136.452 301.725 135.584 302.602 134.861Z" fill="#E8E0FF"/>
<path d="M299.922 137.421C299.922 137.421 300.232 137.379 300.796 137.292C301.843 136.548 302.911 135.895 303.986 135.361C306.621 134.049 309.441 133.244 312.149 132.049C312.278 131.992 312.216 131.806 312.079 131.839C309.205 132.525 306.456 133.516 303.822 134.815C302.651 135.392 301.464 136.023 300.322 136.81C300.06 137.193 299.922 137.421 299.922 137.421Z" fill="#E8E0FF"/>
<path d="M287.792 135.941C288.696 143.786 289.401 150.526 289.19 150.494C289.409 150.592 295.235 144.395 294.221 136.326C293.247 128.326 291.107 122.197 291.338 122.197C291.118 122.26 286.927 128.161 287.792 135.941Z" fill="#E8E0FF"/>
<path d="M289.604 138.399C289.612 138.253 289.825 138.264 289.824 138.416C289.801 141.469 289.858 144.642 289.506 147.694C289.417 148.476 289.313 149.25 289.172 150.017C289.155 149.506 289.13 148.6 289.042 147.397C289.434 144.431 289.421 141.427 289.604 138.399Z" fill="#E8E0FF"/>
<path d="M291.066 147.26C292.291 144.584 292.73 141.799 292.56 138.993C292.548 138.794 292.823 138.817 292.846 139.009C293.172 141.702 292.889 144.382 291.803 146.978C291.712 147.197 291.615 147.418 291.514 147.639C290.325 149.468 289.177 150.493 289.189 150.494C289.189 150.494 289.186 150.438 289.182 150.334C289.938 149.329 290.589 148.304 291.066 147.26Z" fill="#E8E0FF"/>
<path d="M289.19 150.495C289.19 150.495 289.178 150.169 289.158 149.576C289.667 148.373 290.051 147.159 290.291 145.964C290.881 143.031 290.778 140.06 290.876 137.162C290.88 137.023 291.061 137.035 291.08 137.175C291.48 140.108 291.408 143.075 290.831 146.014C290.575 147.32 290.235 148.659 289.696 149.976C289.382 150.314 289.19 150.495 289.19 150.495Z" fill="#E8E0FF"/>
<path d="M303.773 149.674C295.737 150.878 289.252 150.351 289.294 150.596C289.319 150.35 294.471 144.155 302.254 142.881C310.113 141.636 316.773 140.541 316.706 140.322C316.842 140.536 311.89 148.497 303.773 149.674Z" fill="#E8E0FF"/>
<path d="M301.07 148.342C301.213 148.297 301.172 148.071 301.022 148.109C298.008 148.877 294.9 149.359 291.976 150.038C291.226 150.211 290.486 150.385 289.756 150.584C290.25 150.567 291.124 150.527 292.301 150.494C295.149 149.77 298.098 149.273 301.07 148.342Z" fill="#E8E0FF"/>
<path d="M292.249 148.363C294.689 146.785 297.269 145.83 300.015 145.333C300.21 145.298 300.138 145.013 299.948 145.035C297.288 145.343 294.794 146.126 292.438 147.565C292.239 147.686 292.039 147.812 291.837 147.941C290.217 149.371 289.294 150.605 289.293 150.596C289.293 150.596 289.347 150.595 289.448 150.593C290.37 149.746 291.296 148.979 292.249 148.363Z" fill="#E8E0FF"/>
<path d="M289.294 150.596C289.294 150.596 289.608 150.59 290.182 150.566C291.309 149.947 292.447 149.421 293.58 149.013C296.355 148.012 299.259 147.534 302.092 146.659C302.228 146.617 302.185 146.427 302.045 146.444C299.101 146.797 296.247 147.465 293.475 148.455C292.243 148.894 290.988 149.385 289.76 150.036C289.457 150.386 289.294 150.596 289.294 150.596Z" fill="#E8E0FF"/>
<path d="M277.855 147.223C277.946 155.103 277.942 161.87 277.734 161.816C277.945 161.936 284.43 156.407 284.248 148.294C284.101 140.254 282.587 133.95 282.817 133.974C282.591 134.014 277.799 139.41 277.855 147.223Z" fill="#E8E0FF"/>
<path d="M279.414 149.855C279.438 149.711 279.65 149.744 279.633 149.895C279.293 152.922 279.018 156.077 278.346 159.069C278.175 159.836 277.99 160.592 277.768 161.339C277.805 160.83 277.875 159.928 277.913 158.724C278.615 155.824 278.915 152.84 279.414 149.855Z" fill="#E8E0FF"/>
<path d="M279.953 158.805C281.46 156.28 282.189 153.563 282.31 150.761C282.318 150.562 282.591 150.614 282.595 150.808C282.642 153.515 282.08 156.144 280.721 158.604C280.606 158.811 280.487 159.021 280.362 159.23C278.98 160.918 277.721 161.814 277.734 161.816C277.734 161.816 277.737 161.76 277.744 161.656C278.606 160.739 279.365 159.792 279.953 158.805Z" fill="#E8E0FF"/>
<path d="M277.734 161.816C277.732 161.816 277.756 161.491 277.799 160.9C278.436 159.76 278.947 158.596 279.313 157.436C280.211 154.588 280.416 151.629 280.815 148.765C280.834 148.628 281.014 148.659 281.018 148.8C281.114 151.752 280.734 154.689 279.848 157.545C279.455 158.813 278.974 160.106 278.296 161.357C277.946 161.657 277.734 161.816 277.734 161.816Z" fill="#E8E0FF"/>
<path d="M292.423 162.56C284.255 162.894 277.811 161.68 277.827 161.928C277.879 161.686 283.69 156.086 291.606 155.659C299.597 155.268 306.365 154.902 306.321 154.678C306.436 154.903 300.671 162.261 292.423 162.56Z" fill="#E8E0FF"/>
<path d="M289.856 160.949C290.004 160.92 289.986 160.691 289.832 160.712C286.735 161.151 283.573 161.297 280.573 161.659C279.804 161.75 279.044 161.844 278.292 161.964C278.789 161.999 279.669 162.053 280.851 162.146C283.78 161.733 286.784 161.555 289.856 160.949Z" fill="#E8E0FF"/>
<path d="M281.023 160.027C283.632 158.721 286.314 158.05 289.113 157.851C289.312 157.837 289.269 157.547 289.077 157.548C286.383 157.568 283.805 158.079 281.296 159.255C281.084 159.354 280.87 159.457 280.655 159.564C278.883 160.81 277.828 161.937 277.828 161.928C277.828 161.928 277.882 161.933 277.983 161.941C278.995 161.199 280.003 160.537 281.023 160.027Z" fill="#E8E0FF"/>
<path d="M277.827 161.928C277.827 161.928 278.143 161.955 278.72 161.993C279.915 161.499 281.11 161.098 282.286 160.814C285.17 160.117 288.127 159.953 291.052 159.389C291.192 159.362 291.17 159.168 291.027 159.17C288.045 159.204 285.119 159.563 282.239 160.248C280.959 160.552 279.651 160.905 278.352 161.421C278.013 161.737 277.827 161.928 277.827 161.928Z" fill="#E8E0FF"/>
<path d="M34.7787 155.875C40.4197 162.893 43.2087 170.705 43.2277 170.744C43.2707 170.765 35.4517 168.123 29.4677 160.695C23.4707 153.28 22.1697 144.608 22.1847 144.657C22.2177 144.684 29.1117 148.883 34.7787 155.875Z" fill="#E8E0FF"/>
<path d="M92.5419 204.669C90.1379 203.576 87.7629 202.424 85.4169 201.218C80.7249 198.806 76.1589 196.16 71.7209 193.307C62.8459 187.601 54.4969 181.039 46.8109 173.671C44.7089 171.656 42.6559 169.583 40.6489 167.458C38.5339 165.218 36.5379 162.8 34.3709 160.608C34.1729 160.408 33.8939 160.669 34.0589 160.902C37.1789 165.301 41.0829 169.13 44.8619 172.864C48.6689 176.628 52.6429 180.194 56.7659 183.56C65.0109 190.292 73.8619 196.212 83.2279 201.196C85.7889 202.559 88.3879 203.85 91.0229 205.071C93.7909 206.355 96.5979 207.747 99.5299 208.607C100.011 208.748 100.249 208.098 99.8019 207.872C97.4439 206.677 94.9369 205.759 92.5419 204.669Z" fill="#E8E0FF"/>
<path d="M35.0835 159.252C34.9635 159.131 34.7855 159.289 34.9045 159.42C37.2835 162.057 39.5245 164.912 41.5295 167.871C42.0435 168.63 42.5335 169.401 43.0155 170.181C42.7825 169.586 42.3555 168.552 41.7415 167.24C39.7315 164.429 37.5795 161.756 35.0835 159.252Z" fill="#E8E0FF"/>
<path d="M40.0046 168.508C37.4306 166.611 35.0276 164.426 32.9916 161.847C32.8476 161.664 32.6306 161.879 32.7606 162.064C34.5786 164.657 36.7886 166.858 39.2366 168.737C39.4426 168.895 39.6526 169.055 39.8626 169.215C41.8836 170.288 43.2276 170.741 43.2276 170.743C43.2276 170.743 43.2036 170.676 43.1576 170.553C42.0846 169.906 41.0106 169.25 40.0046 168.508Z" fill="#E8E0FF"/>
<path d="M50.3399 161.357C50.3559 170.215 50.434 177.803 50.663 177.744C50.437 177.88 43.247 171.646 43.313 162.516C43.347 153.47 44.899 146.368 44.646 146.394C44.897 146.443 50.2909 152.579 50.3399 161.357Z" fill="#E8E0FF"/>
<path d="M48.6632 164.305C48.6352 164.143 48.4022 164.179 48.4232 164.349C48.8412 167.753 49.1852 171.298 49.9602 174.659C50.1572 175.52 50.3692 176.37 50.6222 177.209C50.5762 176.637 50.4892 175.626 50.4322 174.274C49.6242 171.015 49.2542 167.664 48.6632 164.305Z" fill="#E8E0FF"/>
<path d="M48.19 174.355C46.502 171.512 45.661 168.456 45.487 165.305C45.475 165.081 45.175 165.138 45.174 165.356C45.162 168.399 45.819 171.357 47.344 174.126C47.473 174.359 47.606 174.595 47.746 174.83C49.286 176.732 50.677 177.741 50.663 177.744C50.663 177.744 50.659 177.681 50.65 177.565C49.693 176.531 48.848 175.465 48.19 174.355Z" fill="#E8E0FF"/>
<path d="M50.6628 177.744C50.6648 177.744 50.6348 177.379 50.5808 176.716C49.8688 175.434 49.2918 174.125 48.8758 172.821C47.8528 169.619 47.5848 166.293 47.1038 163.07C47.0808 162.916 46.8838 162.949 46.8808 163.108C46.8198 166.427 47.2798 169.73 48.2898 172.94C48.7378 174.366 49.2818 175.819 50.0408 177.226C50.4288 177.565 50.6628 177.744 50.6628 177.744Z" fill="#E8E0FF"/>
<path d="M34.5237 178.501C43.5217 178.93 50.5757 177.59 50.5617 177.869C50.5047 177.598 44.0567 171.291 35.3187 170.745C26.5037 170.243 19.0157 169.755 19.0607 169.502C18.9397 169.76 25.4417 178.116 34.5237 178.501Z" fill="#E8E0FF"/>
<path d="M37.3267 176.706C37.1637 176.672 37.1797 176.415 37.3497 176.44C40.7657 176.954 44.2447 177.135 47.5447 177.555C48.3907 177.661 49.2257 177.77 50.0527 177.907C49.5077 177.945 48.5427 178.001 47.2447 178.1C44.0227 177.623 40.7167 177.407 37.3267 176.706Z" fill="#E8E0FF"/>
<path d="M47.0295 175.721C44.1455 174.242 41.1845 173.472 38.0985 173.228C37.8795 173.211 37.9215 172.885 38.1335 172.888C41.1015 172.929 43.9455 173.519 46.7195 174.853C46.9535 174.965 47.1905 175.082 47.4275 175.203C49.3905 176.611 50.5595 177.879 50.5605 177.869C50.5605 177.869 50.5015 177.875 50.3905 177.883C49.2715 177.046 48.1565 176.299 47.0295 175.721Z" fill="#E8E0FF"/>
<path d="M50.562 177.869C50.562 177.869 50.216 177.899 49.583 177.939C48.266 177.379 46.948 176.924 45.652 176.599C42.473 175.802 39.218 175.6 35.987 174.946C35.832 174.915 35.854 174.697 36.011 174.7C39.297 174.759 42.522 175.18 45.697 175.964C47.108 176.312 48.549 176.714 49.981 177.299C50.356 177.654 50.562 177.869 50.562 177.869Z" fill="#E8E0FF"/>
<path d="M62.6928 172.787C63.5808 181.57 64.4128 189.094 64.6348 189.011C64.4218 189.17 56.6398 183.781 55.8118 174.722C54.9588 165.749 55.8108 158.542 55.5608 158.596C55.8148 158.615 61.7788 164.084 62.6928 172.787Z" fill="#E8E0FF"/>
<path d="M61.3128 175.898C61.2688 175.741 61.0408 175.802 61.0778 175.968C61.8298 179.298 62.5218 182.777 63.6268 186.026C63.9088 186.859 64.2048 187.679 64.5388 188.483C64.4358 187.921 64.2488 186.927 64.0588 185.591C62.9328 182.447 62.2328 179.164 61.3128 175.898Z" fill="#E8E0FF"/>
<path d="M61.8339 185.922C59.8709 183.289 58.7319 180.35 58.2489 177.245C58.2149 177.025 57.9219 177.115 57.9419 177.33C58.2299 180.349 59.1749 183.21 60.9689 185.788C61.1199 186.005 61.2769 186.224 61.4389 186.442C63.1619 188.158 64.6479 189.006 64.6349 189.011C64.6349 189.011 64.6239 188.949 64.6039 188.834C63.5489 187.914 62.5999 186.95 61.8339 185.922Z" fill="#E8E0FF"/>
<path d="M64.635 189.011C64.637 189.01 64.57 188.652 64.451 188C63.615 186.807 62.91 185.572 62.366 184.324C61.03 181.26 60.435 177.991 59.639 174.848C59.601 174.698 59.408 174.753 59.42 174.91C59.685 178.208 60.469 181.433 61.793 184.506C62.38 185.871 63.067 187.253 63.963 188.565C64.384 188.858 64.635 189.011 64.635 189.011Z" fill="#E8E0FF"/>
<path d="M48.6327 191.556C57.6347 190.977 64.5327 188.868 64.5457 189.146C64.4617 188.883 57.4107 183.338 48.6617 183.777C39.8377 184.267 32.3437 184.631 32.3637 184.375C32.2677 184.642 39.5517 192.186 48.6327 191.556Z" fill="#E8E0FF"/>
<path d="M51.2469 189.464C51.0809 189.449 51.0719 189.191 51.2439 189.198C54.6959 189.327 58.1789 189.119 61.5079 189.169C62.3619 189.18 63.2039 189.196 64.0429 189.241C63.5039 189.339 62.5469 189.502 61.2639 189.744C58.0069 189.628 54.6919 189.78 51.2469 189.464Z" fill="#E8E0FF"/>
<path d="M60.8137 187.406C57.7947 186.259 54.7697 185.825 51.6737 185.928C51.4537 185.936 51.4637 185.608 51.6757 185.587C54.6347 185.297 57.5247 185.564 60.4197 186.58C60.6637 186.666 60.9107 186.755 61.1597 186.849C63.2547 188.028 64.5467 189.157 64.5457 189.147C64.5457 189.147 64.4867 189.159 64.3777 189.18C63.1787 188.472 61.9937 187.854 60.8137 187.406Z" fill="#E8E0FF"/>
<path d="M64.5458 189.146C64.5458 189.146 64.2038 189.214 63.5768 189.324C62.2088 188.914 60.8508 188.609 59.5268 188.431C56.2808 187.993 53.0198 188.156 49.7388 187.868C49.5818 187.854 49.5818 187.636 49.7388 187.621C53.0158 187.313 56.2698 187.371 59.5088 187.796C60.9488 187.985 62.4248 188.224 63.9088 188.645C64.3198 188.955 64.5458 189.146 64.5458 189.146Z" fill="#E8E0FF"/>
<path d="M76.8389 183.221C78.6449 191.833 80.2729 199.207 80.4859 199.098C80.2889 199.281 71.9529 194.829 70.1839 185.94C68.3959 177.138 68.4999 169.895 68.2559 169.977C68.5099 169.965 75.0139 174.691 76.8389 183.221Z" fill="#E8E0FF"/>
<path d="M75.7899 186.469C75.7299 186.318 75.5079 186.406 75.5629 186.566C76.6619 189.783 77.7189 193.155 79.1649 196.253C79.5339 197.047 79.9159 197.827 80.3349 198.587C80.1729 198.041 79.8809 197.075 79.5499 195.772C78.0929 192.78 77.0489 189.602 75.7899 186.469Z" fill="#E8E0FF"/>
<path d="M77.3636 196.355C75.1276 193.968 73.6836 191.184 72.8756 188.159C72.8186 187.944 72.5356 188.067 72.5786 188.279C73.1816 191.241 74.4236 193.971 76.4856 196.322C76.6596 196.52 76.8386 196.719 77.0236 196.917C78.9236 198.421 80.4976 199.092 80.4846 199.098C80.4846 199.098 80.4676 199.038 80.4356 198.926C79.2846 198.135 78.2366 197.287 77.3636 196.355Z" fill="#E8E0FF"/>
<path d="M80.4861 199.098C80.4881 199.097 80.3841 198.749 80.1961 198.115C79.2351 197.027 78.4021 195.883 77.7271 194.707C76.0711 191.821 75.1351 188.645 74.0111 185.619C73.9571 185.474 73.7701 185.551 73.8001 185.706C74.4101 188.948 75.5301 192.057 77.1751 194.954C77.9051 196.241 78.7361 197.533 79.7691 198.732C80.2191 198.976 80.4861 199.098 80.4861 199.098Z" fill="#E8E0FF"/>
<path d="M64.7909 203.475C73.7039 201.857 80.3689 198.968 80.4119 199.243C80.2989 198.992 72.6759 194.301 64.0049 195.754C55.2639 197.265 47.8439 198.504 47.8369 198.247C47.7679 198.521 55.8019 205.151 64.7909 203.475Z" fill="#E8E0FF"/>
<path d="M67.178 201.095C67.011 201.099 66.975 200.845 67.147 200.832C70.602 200.56 74.054 199.951 77.382 199.616C78.235 199.529 79.078 199.447 79.919 199.394C79.391 199.553 78.454 199.826 77.199 200.214C73.935 200.476 70.645 201.01 67.178 201.095Z" fill="#E8E0FF"/>
<path d="M76.5029 197.946C73.3699 197.156 70.3079 197.076 67.2319 197.537C67.0129 197.57 66.9889 197.243 67.1979 197.198C70.1169 196.566 73.0269 196.497 76.0219 197.171C76.2749 197.228 76.5309 197.288 76.7889 197.352C79.0029 198.28 80.4129 199.252 80.4119 199.242C80.4119 199.242 80.3539 199.261 80.2479 199.294C78.9749 198.731 77.7269 198.254 76.5029 197.946Z" fill="#E8E0FF"/>
<path d="M80.412 199.242C80.412 199.242 80.078 199.348 79.464 199.53C78.055 199.281 76.668 199.135 75.328 199.111C72.044 199.051 68.808 199.591 65.508 199.685C65.35 199.69 65.327 199.473 65.482 199.44C68.716 198.754 71.966 198.434 75.243 198.482C76.7 198.503 78.197 198.57 79.724 198.817C80.165 199.079 80.412 199.242 80.412 199.242Z" fill="#E8E0FF"/>
<path d="M91.3078 191.566C93.9858 199.923 96.3718 207.07 96.5728 206.938C96.3928 207.141 87.5948 203.632 84.9318 194.997C82.2578 186.451 81.6378 179.247 81.4028 179.356C81.6538 179.315 88.6168 183.292 91.3078 191.566Z" fill="#E8E0FF"/>
<path d="M90.5878 194.907C90.5118 194.764 90.2998 194.875 90.3708 195.028C91.7958 198.103 93.1958 201.338 94.9598 204.256C95.4098 205.004 95.8728 205.737 96.3698 206.446C96.1518 205.921 95.7608 204.994 95.2968 203.735C93.5328 200.924 92.1648 197.881 90.5878 194.907Z" fill="#E8E0FF"/>
<path d="M93.168 204.556C90.687 202.43 88.96 199.822 87.847 196.906C87.768 196.699 87.499 196.852 87.563 197.058C88.466 199.934 89.985 202.51 92.287 204.619C92.481 204.797 92.681 204.975 92.886 205.151C94.94 206.437 96.585 206.931 96.573 206.938C96.573 206.938 96.55 206.88 96.506 206.773C95.272 206.113 94.137 205.386 93.168 204.556Z" fill="#E8E0FF"/>
<path d="M96.5728 206.939C96.5748 206.938 96.4348 206.603 96.1818 205.994C95.1078 205.019 94.1578 203.973 93.3628 202.879C91.4118 200.193 90.1528 197.141 88.7238 194.258C88.6558 194.12 88.4768 194.217 88.5218 194.368C89.4598 197.521 90.8948 200.487 92.8358 203.185C93.6968 204.384 94.6608 205.576 95.8168 206.654C96.2928 206.846 96.5728 206.939 96.5728 206.939Z" fill="#E8E0FF"/>
<path d="M81.3165 213.006C90.0625 210.421 96.4425 206.822 96.5125 207.09C96.3725 206.853 88.2625 203.027 79.7495 205.422C71.1705 207.882 63.8925 209.93 63.8595 209.677C63.8175 209.957 72.4985 215.656 81.3165 213.006Z" fill="#E8E0FF"/>
<path d="M83.4616 210.381C83.2956 210.404 83.2326 210.155 83.4036 210.123C86.8296 209.474 90.2216 208.491 93.5186 207.794C94.3636 207.614 95.1986 207.44 96.0356 207.296C95.5236 207.512 94.6126 207.885 93.3966 208.408C90.1556 209.025 86.9196 209.916 83.4616 210.381Z" fill="#E8E0FF"/>
<path d="M92.4685 206.231C89.2525 205.79 86.1825 206.045 83.1555 206.841C82.9405 206.898 82.8835 206.576 83.0875 206.508C85.9405 205.56 88.8435 205.173 91.9085 205.514C92.1675 205.543 92.4295 205.574 92.6945 205.61C95.0055 206.289 96.5155 207.1 96.5135 207.091C96.5135 207.091 96.4575 207.116 96.3545 207.161C95.0225 206.74 93.7245 206.403 92.4685 206.231Z" fill="#E8E0FF"/>
<path d="M96.5125 207.09C96.5125 207.09 96.1885 207.232 95.5925 207.48C94.1565 207.387 92.7525 207.394 91.4105 207.517C88.1185 207.818 84.9375 208.708 81.6485 209.164C81.4915 209.186 81.4465 208.973 81.5985 208.924C84.7615 207.888 87.9785 207.214 91.2615 206.903C92.7205 206.764 94.2265 206.667 95.7805 206.745C96.2495 206.955 96.5125 207.09 96.5125 207.09Z" fill="#E8E0FF"/>
<path d="M213.144 87.862C215.525 95.602 215.27 103.043 215.273 103.082C215.301 103.114 209.666 98.282 207.135 90.085C204.589 81.894 206.366 74.24 206.362 74.286C206.38 74.318 210.732 80.135 213.144 87.862Z" fill="#F97C08"/>
<path d="M245.125 147.923C243.485 146.204 241.889 144.445 240.334 142.651C237.225 139.063 234.297 135.323 231.545 131.454C226.04 123.717 221.256 115.444 217.289 106.723C216.204 104.339 215.179 101.922 214.21 99.477C213.188 96.901 212.325 94.216 211.244 91.662C211.145 91.429 210.827 91.552 210.888 91.801C212.034 96.513 214.02 101.014 215.935 105.394C217.862 109.808 219.994 114.115 222.315 118.304C226.957 126.683 232.371 134.591 238.522 141.893C240.204 143.89 241.941 145.84 243.731 147.744C245.611 149.744 247.488 151.848 249.645 153.552C249.999 153.831 250.411 153.37 250.113 153.032C248.543 151.245 246.76 149.636 245.125 147.923Z" fill="#F97C08"/>
<path d="M212.283 90.775C212.223 90.634 212.023 90.705 212.078 90.854C213.188 93.85 214.113 96.98 214.805 100.118C214.982 100.922 215.136 101.73 215.28 102.541C215.283 101.968 215.268 100.963 215.19 99.664C214.444 96.648 213.534 93.7 212.283 90.775Z" fill="#F97C08"/>
<path d="M213.327 100.135C211.811 97.689 210.531 95.062 209.687 92.23C209.627 92.029 209.376 92.135 209.423 92.333C210.081 95.103 211.194 97.679 212.612 100.068C212.732 100.269 212.853 100.473 212.976 100.677C214.305 102.25 215.274 103.08 215.272 103.082C215.272 103.082 215.274 103.018 215.277 102.9C214.596 101.999 213.919 101.091 213.327 100.135Z" fill="#F97C08"/>
<path d="M224.286 97.665C221.379 105.042 218.942 111.383 219.152 111.411C218.919 111.448 214.991 103.839 218.056 96.263C221.067 88.747 224.7 83.359 224.48 83.296C224.673 83.42 227.139 90.344 224.286 97.665Z" fill="#F97C08"/>
<path d="M221.917 99.554C221.947 99.41 221.741 99.361 221.703 99.51C220.929 102.484 220.046 105.549 219.583 108.607C219.463 109.39 219.359 110.169 219.293 110.952C219.443 110.461 219.704 109.59 220.103 108.446C220.505 105.461 221.302 102.548 221.917 99.554Z" fill="#F97C08"/>
<path d="M218.21 107.758C217.743 104.824 218.051 101.997 218.944 99.316C219.008 99.126 218.74 99.072 218.667 99.253C217.654 101.781 217.225 104.464 217.582 107.282C217.612 107.519 217.646 107.76 217.684 108.003C218.338 110.105 219.163 111.413 219.151 111.411C219.151 111.411 219.168 111.357 219.199 111.257C218.744 110.075 218.393 108.904 218.21 107.758Z" fill="#F97C08"/>
<path d="M219.151 111.411C219.151 111.411 219.248 111.098 219.422 110.528C219.252 109.222 219.204 107.938 219.287 106.712C219.491 103.703 220.365 100.845 221.027 98C221.059 97.864 220.883 97.825 220.829 97.956C219.684 100.697 218.978 103.601 218.76 106.613C218.663 107.951 218.636 109.343 218.804 110.769C219.016 111.183 219.151 111.411 219.151 111.411Z" fill="#F97C08"/>
<path d="M205.471 106.605C212.818 109.992 219.13 111.254 219.026 111.481C219.068 111.237 215.782 103.816 208.689 100.419C201.518 97.032 195.448 94.104 195.569 93.909C195.384 94.082 198.04 103.226 205.471 106.605Z" fill="#F97C08"/>
<path d="M208.394 106.056C208.269 105.973 208.368 105.764 208.501 105.843C211.174 107.421 214.01 108.743 216.617 110.204C217.286 110.578 217.945 110.949 218.588 111.342C218.122 111.19 217.3 110.912 216.188 110.557C213.664 109.074 210.985 107.781 208.394 106.056Z" fill="#F97C08"/>
<path d="M216.795 108.504C214.883 106.302 212.673 104.664 210.185 103.422C210.008 103.334 210.151 103.077 210.327 103.151C212.783 104.185 214.956 105.634 216.824 107.678C216.982 107.85 217.14 108.027 217.298 108.208C218.467 110.041 219.023 111.49 219.027 111.482C219.027 111.482 218.976 111.467 218.881 111.436C218.224 110.362 217.543 109.364 216.795 108.504Z" fill="#F97C08"/>
<path d="M219.025 111.481C219.025 111.481 218.727 111.389 218.187 111.209C217.276 110.3 216.329 109.477 215.357 108.77C212.975 107.036 210.332 105.771 207.859 104.139C207.741 104.061 207.83 103.887 207.96 103.943C210.675 105.099 213.22 106.536 215.603 108.257C216.662 109.022 217.729 109.842 218.728 110.811C218.925 111.233 219.025 111.481 219.025 111.481Z" fill="#F97C08"/>
<path d="M230.796 111.337C228.639 118.946 226.851 125.487 227.063 125.492C226.833 125.553 222.134 118.447 224.431 110.629C226.679 102.875 229.765 97.164 229.539 97.125C229.745 97.227 232.905 103.787 230.796 111.337Z" fill="#F97C08"/>
<path d="M228.622 113.462C228.637 113.316 228.427 113.29 228.403 113.441C227.931 116.465 227.36 119.594 227.208 122.67C227.168 123.458 227.144 124.24 227.157 125.022C227.257 124.52 227.429 123.629 227.711 122.454C227.811 119.458 228.311 116.489 228.622 113.462Z" fill="#F97C08"/>
<path d="M225.752 121.979C224.987 119.127 225.008 116.297 225.629 113.55C225.673 113.355 225.4 113.331 225.346 113.518C224.59 116.127 224.433 118.827 225.076 121.576C225.13 121.807 225.189 122.043 225.252 122.279C226.119 124.287 227.077 125.494 227.065 125.493C227.065 125.493 227.077 125.438 227.097 125.336C226.522 124.214 226.05 123.093 225.752 121.979Z" fill="#F97C08"/>
<path d="M227.063 125.493C227.065 125.493 227.128 125.172 227.244 124.589C226.941 123.314 226.762 122.049 226.721 120.828C226.619 117.829 227.202 114.907 227.576 112.024C227.594 111.886 227.415 111.867 227.374 112.002C226.507 114.836 226.096 117.784 226.185 120.787C226.224 122.121 226.339 123.502 226.652 124.895C226.904 125.281 227.063 125.493 227.063 125.493Z" fill="#F97C08"/>
<path d="M212.908 122.222C220.59 124.772 227.026 125.34 226.945 125.576C226.962 125.329 222.923 118.34 215.496 115.758C207.992 113.194 201.635 110.973 201.736 110.766C201.57 110.956 205.143 119.688 212.908 122.222Z" fill="#F97C08"/>
<path d="M215.773 121.361C215.64 121.293 215.717 121.075 215.858 121.139C218.688 122.409 221.655 123.409 224.409 124.572C225.116 124.869 225.812 125.166 226.495 125.485C226.014 125.385 225.164 125.199 224.017 124.968C221.344 123.774 218.535 122.784 215.773 121.361Z" fill="#F97C08"/>
<path d="M224.413 122.87C222.279 120.898 219.905 119.518 217.294 118.561C217.109 118.493 217.225 118.224 217.408 118.278C219.966 119.033 222.284 120.229 224.357 122.049C224.532 122.202 224.708 122.36 224.884 122.522C226.238 124.209 226.941 125.583 226.944 125.575C226.944 125.575 226.891 125.565 226.793 125.546C226.029 124.554 225.247 123.641 224.413 122.87Z" fill="#F97C08"/>
<path d="M226.945 125.576C226.945 125.576 226.638 125.517 226.08 125.397C225.076 124.595 224.047 123.884 223.004 123.29C220.447 121.832 217.679 120.869 215.044 119.525C214.918 119.461 214.99 119.279 215.125 119.32C217.954 120.167 220.642 121.311 223.198 122.756C224.334 123.398 225.483 124.094 226.58 124.945C226.82 125.341 226.945 125.576 226.945 125.576Z" fill="#F97C08"/>
<path d="M239.129 124.785C237.793 132.56 236.716 139.245 236.929 139.226C236.705 139.312 231.236 132.8 232.694 124.806C234.108 116.879 236.582 110.886 236.353 110.873C236.568 110.948 240.423 117.072 239.129 124.785Z" fill="#F97C08"/>
<path d="M237.184 127.134C237.184 126.988 236.971 126.986 236.963 127.138C236.817 130.185 236.584 133.348 236.767 136.412C236.812 137.197 236.873 137.975 236.971 138.748C237.017 138.239 237.091 137.337 237.246 136.141C237.02 133.162 237.2 130.166 237.184 127.134Z" fill="#F97C08"/>
<path d="M235.236 135.892C234.162 133.153 233.878 130.349 234.203 127.56C234.226 127.362 233.951 127.369 233.917 127.56C233.443 130.228 233.576 132.918 234.517 135.569C234.596 135.792 234.68 136.018 234.769 136.245C235.854 138.137 236.943 139.225 236.93 139.225C236.93 139.225 236.936 139.169 236.945 139.065C236.247 138.02 235.655 136.961 235.236 135.892Z" fill="#F97C08"/>
<path d="M236.929 139.226C236.929 139.226 236.959 138.901 237.011 138.31C236.57 137.081 236.254 135.848 236.08 134.642C235.654 131.683 235.922 128.724 235.984 125.828C235.987 125.689 235.806 125.691 235.779 125.829C235.218 128.732 235.125 131.697 235.538 134.662C235.721 135.979 235.986 137.334 236.451 138.679C236.747 139.034 236.929 139.226 236.929 139.226Z" fill="#F97C08"/>
<path d="M222.425 137.582C230.376 139.238 236.875 139.078 236.82 139.321C236.809 139.074 232.011 132.603 224.317 130.891C216.545 129.204 209.961 127.736 210.04 127.52C209.892 127.726 214.392 135.949 222.425 137.582Z" fill="#F97C08"/>
<path d="M225.196 136.406C225.056 136.353 225.109 136.129 225.257 136.176C228.222 137.113 231.296 137.769 234.176 138.612C234.915 138.827 235.643 139.043 236.361 139.282C235.869 139.237 234.999 139.148 233.827 139.048C231.024 138.166 228.11 137.503 225.196 136.406Z" fill="#F97C08"/>
<path d="M233.995 136.926C231.648 135.214 229.127 134.115 226.415 133.464C226.222 133.418 226.31 133.138 226.498 133.171C229.135 133.628 231.58 134.551 233.85 136.12C234.041 136.252 234.235 136.389 234.428 136.529C235.965 138.047 236.817 139.33 236.82 139.322C236.82 139.322 236.766 139.318 236.666 139.31C235.793 138.412 234.912 137.595 233.995 136.926Z" fill="#F97C08"/>
<path d="M236.82 139.321C236.82 139.321 236.507 139.297 235.936 139.241C234.846 138.56 233.739 137.97 232.632 137.5C229.919 136.344 227.048 135.703 224.27 134.67C224.137 134.621 224.19 134.433 224.329 134.458C227.247 134.976 230.056 135.805 232.768 136.949C233.973 137.457 235.198 138.017 236.386 138.737C236.669 139.103 236.82 139.321 236.82 139.321Z" fill="#F97C08"/>
<path d="M248.418 136.603C247.891 144.46 247.52 151.211 247.731 151.169C247.514 151.277 241.35 145.394 241.98 137.31C242.572 129.297 244.431 123.093 244.2 123.105C244.424 123.156 248.907 128.811 248.418 136.603Z" fill="#F97C08"/>
<path d="M246.718 139.141C246.702 138.996 246.489 139.017 246.498 139.169C246.67 142.208 246.769 145.371 247.274 148.394C247.402 149.168 247.545 149.934 247.725 150.692C247.717 150.182 247.697 149.279 247.725 148.075C247.185 145.14 247.05 142.147 246.718 139.141Z" fill="#F97C08"/>
<path d="M245.684 148.039C244.321 145.435 243.743 142.683 243.778 139.881C243.781 139.682 243.506 139.719 243.491 139.912C243.294 142.609 243.709 145.264 244.929 147.796C245.032 148.009 245.139 148.225 245.252 148.441C246.537 150.203 247.744 151.168 247.731 151.17C247.731 151.17 247.731 151.114 247.73 151.01C246.921 150.044 246.216 149.057 245.684 148.039Z" fill="#F97C08"/>
<path d="M247.732 151.169C247.734 151.169 247.728 150.843 247.718 150.251C247.146 149.078 246.7 147.887 246.399 146.709C245.661 143.817 245.62 140.853 245.381 137.973C245.37 137.835 245.188 137.856 245.176 137.996C244.917 140.936 245.133 143.888 245.859 146.786C246.181 148.074 246.589 149.39 247.196 150.677C247.529 150.998 247.732 151.169 247.732 151.169Z" fill="#F97C08"/>
<path d="M233.035 151.08C241.165 151.875 247.662 151.029 247.632 151.275C247.594 151.03 242.106 145.115 234.232 144.241C226.281 143.399 219.55 142.652 219.606 142.43C219.479 142.649 224.823 150.315 233.035 151.08Z" fill="#F97C08"/>
<path d="M235.686 149.618C235.54 149.581 235.57 149.353 235.723 149.383C238.788 149.997 241.935 150.321 244.908 150.851C245.67 150.986 246.423 151.122 247.167 151.284C246.67 151.291 245.788 151.295 244.604 151.321C241.704 150.744 238.717 150.396 235.686 149.618Z" fill="#F97C08"/>
<path d="M244.55 149.197C242.019 147.747 239.381 146.925 236.599 146.568C236.401 146.543 236.46 146.256 236.652 146.268C239.339 146.44 241.882 147.095 244.321 148.411C244.527 148.522 244.735 148.637 244.943 148.755C246.642 150.099 247.632 151.282 247.633 151.273C247.633 151.273 247.578 151.275 247.477 151.278C246.507 150.482 245.539 149.764 244.55 149.197Z" fill="#F97C08"/>
<path d="M247.632 151.275C247.632 151.275 247.316 151.284 246.738 151.29C245.573 150.729 244.403 150.262 243.245 149.912C240.406 149.053 237.465 148.723 234.578 147.995C234.44 147.96 234.473 147.768 234.615 147.778C237.589 147.981 240.488 148.504 243.323 149.35C244.583 149.726 245.869 150.152 247.136 150.74C247.458 151.074 247.632 151.275 247.632 151.275Z" fill="#F97C08"/>
<path d="M325.814 203.982C336.488 210.542 350.276 210.247 361.973 205.812C373.669 201.377 383.619 193.259 392.781 184.676C395.875 181.777 398.979 178.708 400.706 174.817C402.433 170.926 402.498 165.992 399.794 162.718C393.561 155.171 380.465 162.273 371.995 157.44C371.065 151.925 375.242 146.674 380.163 144.111C385.084 141.548 390.724 140.888 396.045 139.344C401.366 137.8 406.823 134.946 409.08 129.837C411.337 124.728 408.413 117.308 402.885 117.017C399.364 116.832 395.283 119.27 392.652 116.897C390.608 115.054 391.339 111.459 393.308 109.533C395.276 107.608 398.036 106.825 400.574 105.785C410.016 101.915 417.485 93.437 420.196 83.51C421.839 77.495 421.012 69.681 415.446 66.982C408.918 63.817 401.893 69.931 397.173 75.48C390.602 83.204 384.03 90.929 377.459 98.653C374.493 102.14 368.781 105.622 366.141 101.877C364.019 98.867 366.912 94.372 365.275 91.068C363.631 87.75 358.634 88.054 355.619 90.173C349.49 94.481 347.956 102.901 347.644 110.439C347.332 117.977 347.577 126.069 343.449 132.356C339.321 138.642 328.654 140.912 324.778 134.463C323.266 131.947 323.191 128.846 322.479 125.992C321.766 123.138 319.889 120.111 316.986 119.876C313.649 119.607 311.299 123.055 309.928 126.142C297.916 153.187 304.607 183.507 325.814 203.982Z" fill="#F97C08"/>
<path d="M323.428 196.568C351.701 155.143 370.686 127.327 398.959 85.902" stroke="#322700" stroke-width="0.5" stroke-miterlimit="10"/>
<path d="M362.257 139.678C362.257 139.678 356.574 123.037 356.097 106.606" stroke="#322700" stroke-width="0.5" stroke-miterlimit="10"/>
<path d="M342.749 169.573C342.749 169.573 351.718 181.43 381.124 175.773" stroke="#322700" stroke-width="0.5" stroke-miterlimit="10"/>
<path d="M372.679 124.798C372.679 124.798 378.702 132.311 393.976 127.41" stroke="#322700" stroke-width="0.5" stroke-miterlimit="10"/>
<path d="M332.535 183.226C332.535 183.226 312.795 160.542 317.637 143.268" stroke="#322700" stroke-width="0.5" stroke-miterlimit="10"/>
<path fill-rule="evenodd" clip-rule="evenodd" d="M388.62 192.994C388.62 192.994 397.717 203.334 399.828 215.645C399.828 215.645 380.501 207.275 388.62 192.994Z" fill="url(#paint0_linear_47_582)"/>
<path fill-rule="evenodd" clip-rule="evenodd" d="M388.296 194.637L395.278 204.319L392.516 202.027L393.494 204.814L394.957 205.8L395.935 207.439V209.245H395.278L396.898 210.224V211.216L396.578 211.705H394.471L393.005 210.065L390.571 208.26L388.131 205.628V203.005L387.325 200.055L388.296 194.637Z" fill="#BCA8CC"/>
<path fill-rule="evenodd" clip-rule="evenodd" d="M404.822 260.526C404.85 260.524 404.878 260.523 404.906 260.521C409.124 260.285 411.992 256.091 410.751 252.01L401.438 221.405L358.695 203.341L319.233 204.815L122.018 205.554L73.4267 213.307L65.2207 260.525H404.822V260.526Z" fill="#21031A"/>
<path fill-rule="evenodd" clip-rule="evenodd" d="M281.809 136.012L273.486 138.017L269.469 140.6C269.469 140.6 292.571 145.34 316.312 179.681L349.928 175.616C349.928 175.616 328.936 151.152 281.809 136.012Z" fill="#D4F4F3"/>
<path fill-rule="evenodd" clip-rule="evenodd" d="M74.7148 164.131L72.7338 163.014C69.1128 162.822 56.6428 192.217 61.9338 196.588C61.9338 196.588 79.0978 179.272 74.7148 164.131Z" fill="#161341"/>
<path fill-rule="evenodd" clip-rule="evenodd" d="M422.324 247.718L421.862 254.216C421.698 256.526 420.135 258.492 417.939 259.152L417.937 259.153C412.219 260.868 406.321 257.137 405.301 251.197C403.209 239 395.857 220.365 370.453 220.655C334.652 219.547 336.344 257.926 336.344 257.926H136.491C136.491 257.926 138.641 218.966 97.3799 220.655C62.7819 221.956 67.5809 262.358 67.5809 262.358L62.4619 260.884C62.4619 260.884 60.4749 248.41 58.7139 236.595C57.3859 227.68 57.7539 218.621 59.4969 209.78C59.7489 208.501 59.9079 207.175 59.9079 205.865C59.9079 205.865 68.3049 160.806 84.3859 143.822C86.5249 139.735 74.7439 139.068 76.9679 136.002C79.3199 135.69 214.67 118.232 281.813 136.013L273.491 138.014C273.491 138.014 303.162 149.362 317.412 177.426L350.286 173.737C368.208 177.824 387.141 181.374 401.146 191.259C408.383 196.358 414.289 203.145 418.078 212.578C418.112 212.664 418.146 212.749 418.18 212.835C419.257 215.575 419.745 218.518 419.706 221.466L419.397 244.761L422.324 247.718Z" fill="#F97C08"/>
<path fill-rule="evenodd" clip-rule="evenodd" d="M423.006 242.349L421.939 254.212C421.73 256.532 420.145 258.49 417.936 259.157L417.934 259.158C412.213 260.869 406.317 257.135 405.297 251.194C403.205 238.999 395.854 220.368 370.454 220.659C334.652 219.552 336.343 257.921 336.343 257.921L136.49 257.925C136.49 257.925 138.641 218.971 97.3778 220.659C62.7828 221.961 67.5798 262.361 67.5798 262.361L59.0328 260.207C59.0328 260.207 57.1758 248.246 55.4268 236.816C57.5298 236.182 62.9458 235.721 63.4278 235.632C69.2898 216.854 84.6698 207.19 100.799 206.191C129.583 204.408 142.277 234.317 145.278 250.754C197.736 250.49 274.014 250.232 323.825 249.982C333.878 192.173 391.232 195.97 412.816 235.729C412.816 235.729 415.224 235.916 417.897 236.158C421 236.44 423.288 239.214 423.006 242.349Z" fill="#2C1341"/>
<path fill-rule="evenodd" clip-rule="evenodd" d="M110.466 143.067C99.5656 144.018 96.6145 168.539 94.9355 179.147H196.649L201.089 136.94C186.756 137.124 123.421 138.074 110.466 143.067ZM307.527 179.147C302.416 169.77 273.045 138.782 229.758 137.217C222.194 136.944 214.663 136.858 207.319 136.907L204.386 179.147H307.527Z" fill="#D4F4F3"/>
<path fill-rule="evenodd" clip-rule="evenodd" d="M299.558 168.226C299.558 168.226 295.176 176.348 301.024 182.995C301.024 182.995 321.483 174.874 299.558 168.226Z" fill="#2C1341"/>
<path fill-rule="evenodd" clip-rule="evenodd" d="M418.078 212.577C411.512 216.568 399.858 207.253 396.91 202.251C393.675 196.798 393.728 190.925 401.146 191.258C408.383 196.356 414.289 203.144 418.078 212.577Z" fill="white"/>
<path fill-rule="evenodd" clip-rule="evenodd" d="M205.496 190.747L205.492 189.442C205.485 188.237 206.216 187.257 207.124 187.251L226.528 187.143C227.436 187.137 228.176 188.111 228.182 189.314L228.187 190.619L205.496 190.747Z" fill="#2C1341"/>
<path fill-rule="evenodd" clip-rule="evenodd" d="M129.624 191.286L129.619 189.982C129.614 188.777 130.346 187.796 131.252 187.792L150.655 187.684C151.563 187.679 152.303 188.65 152.308 189.856L152.314 191.16L129.624 191.286Z" fill="#161341"/>
<path fill-rule="evenodd" clip-rule="evenodd" d="M350.53 272.827C361.266 283.571 378.586 283.484 389.216 272.632C399.846 261.78 399.76 244.276 389.025 233.531C378.288 222.787 360.968 222.874 350.338 233.725C339.708 244.578 339.795 262.083 350.53 272.827ZM383.937 267.35C376.194 275.253 363.578 275.317 355.758 267.491C347.938 259.665 347.876 246.914 355.617 239.011C363.36 231.107 375.976 231.044 383.796 238.869C391.617 246.694 391.679 259.445 383.937 267.35Z" fill="#1F1E24"/>
<path fill-rule="evenodd" clip-rule="evenodd" d="M369.665 230.327C382.15 230.264 392.324 240.445 392.386 253.065C392.448 265.686 382.376 275.968 369.888 276.03C357.403 276.093 347.229 265.911 347.167 253.292C347.106 240.673 357.179 230.39 369.665 230.327Z" fill="white"/>
<path fill-rule="evenodd" clip-rule="evenodd" d="M369.678 233.046C358.677 233.102 349.802 242.16 349.857 253.279C349.912 264.399 358.874 273.368 369.875 273.312C380.877 273.257 389.751 264.199 389.696 253.079C389.643 241.959 380.679 232.991 369.678 233.046Z" fill="#1F1E24"/>
<path fill-rule="evenodd" clip-rule="evenodd" d="M373.77 258.588C376.462 255.839 376.441 251.404 373.721 248.682C371.001 245.96 366.613 245.982 363.92 248.732C361.227 251.481 361.249 255.916 363.968 258.638C366.688 261.359 371.076 261.336 373.77 258.588Z" fill="#F97C08"/>
<path fill-rule="evenodd" clip-rule="evenodd" d="M367.529 275.267L366.269 260.033L354.819 270.022L352.797 267.997L362.565 256.326L347.481 255.205L347.466 252.328L362.538 251.056L352.657 239.484L354.658 237.44L366.207 247.312L367.315 232.066L370.161 232.052L371.42 247.286L382.871 237.298L384.893 239.322L375.125 250.994L390.209 252.115L390.223 254.991L375.151 256.264L385.033 267.836L383.031 269.88L371.483 260.007L370.374 275.253L367.529 275.267ZM367.515 256.954L370.208 256.939L372.103 255.005L372.09 252.28L370.176 250.365L367.482 250.378L365.586 252.314L365.6 255.036L367.515 256.954Z" fill="white"/>
<path fill-rule="evenodd" clip-rule="evenodd" d="M81.655 272.827C92.391 283.571 109.711 283.484 120.341 272.632C130.971 261.78 130.885 244.276 120.149 233.531C109.413 222.787 92.093 222.874 81.463 233.725C70.833 244.578 70.919 262.083 81.655 272.827ZM115.062 267.35C107.319 275.253 94.703 275.317 86.883 267.491C79.063 259.665 79.001 246.914 86.743 239.011C94.486 231.107 107.102 231.044 114.922 238.869C122.742 246.694 122.804 259.445 115.062 267.35Z" fill="#1F1E24"/>
<path fill-rule="evenodd" clip-rule="evenodd" d="M100.79 230.327C113.275 230.264 123.449 240.445 123.511 253.065C123.573 265.686 113.501 275.968 101.013 276.03C88.5278 276.093 78.3538 265.911 78.2928 253.292C78.2308 240.673 88.3038 230.39 100.79 230.327Z" fill="white"/>
<path fill-rule="evenodd" clip-rule="evenodd" d="M100.803 233.046C89.8012 233.102 80.9272 242.16 80.9822 253.279C81.0372 264.399 89.9992 273.368 101 273.312C112.002 273.257 120.876 264.199 120.821 253.079C120.767 241.959 111.804 232.991 100.803 233.046Z" fill="#1F1E24"/>
<path fill-rule="evenodd" clip-rule="evenodd" d="M104.895 258.588C107.587 255.839 107.566 251.404 104.846 248.682C102.125 245.96 97.738 245.982 95.045 248.732C92.352 251.481 92.373 255.916 95.093 258.638C97.813 261.359 102.201 261.336 104.895 258.588Z" fill="#596F56"/>
<path fill-rule="evenodd" clip-rule="evenodd" d="M98.6528 275.267L97.3938 260.033L85.9428 270.022L83.9208 267.997L93.6889 256.326L78.6049 255.205L78.5898 252.328L93.6618 251.056L83.7808 239.484L85.7818 237.44L97.3308 247.312L98.4389 232.066L101.285 232.052L102.544 247.286L113.995 237.298L116.017 239.322L106.249 250.994L121.333 252.115L121.348 254.991L106.276 256.264L116.158 267.836L114.156 269.88L102.608 260.007L101.499 275.253L98.6528 275.267ZM98.6398 256.954L101.334 256.939L103.229 255.005L103.216 252.28L101.302 250.365L98.6068 250.378L96.7108 252.314L96.7238 255.036L98.6398 256.954Z" fill="white"/>
<path d="M103.568 273.838C108.979 265.269 109.205 253.881 106.168 244.069C103.131 234.257 97.1948 225.753 90.8748 217.881C88.7408 215.222 86.4748 212.55 83.5298 210.984C80.5848 209.418 76.7808 209.185 74.1658 211.297C68.1388 216.166 73.1878 227.23 69.1808 234.043C64.8958 234.61 60.9818 230.973 59.1668 226.819C57.3518 222.666 57.0278 217.988 56.0108 213.542C54.9948 209.096 52.9718 204.489 49.1048 202.441C45.2378 200.393 39.4168 202.536 39.0108 207.087C38.7518 209.986 40.4988 213.441 38.5828 215.526C37.0938 217.146 34.3438 216.411 32.9238 214.717C31.5028 213.023 30.9908 210.717 30.2708 208.585C27.5958 200.654 21.2998 194.183 13.7308 191.585C9.14478 190.011 3.08878 190.409 0.823779 194.904C-1.83222 200.175 2.65378 206.194 6.77878 210.29C12.5218 215.993 18.2648 221.695 24.0078 227.398C26.5998 229.972 29.0988 234.812 26.1228 236.854C23.7308 238.496 20.3588 235.945 17.7558 237.176C15.1418 238.412 15.2128 242.546 16.7488 245.11C19.8708 250.323 26.3158 251.896 32.1218 252.427C37.9268 252.958 44.1778 253.05 48.8918 256.685C53.6058 260.319 55.0058 269.204 49.9038 272.167C47.9128 273.323 45.5188 273.272 43.2928 273.756C41.0678 274.24 38.6708 275.679 38.3938 278.066C38.0768 280.81 40.6598 282.874 42.9958 284.118C63.4648 295.012 87.0758 290.592 103.568 273.838Z" fill="#F97C08"/>
<path d="M97.77 275.537C66.741 250.703 45.906 234.028 14.877 209.194" stroke="#322700" stroke-width="0.5" stroke-miterlimit="10"/>
<path d="M55.1569 241.432C55.1569 241.432 42.1319 245.516 29.4409 245.314" stroke="#322700" stroke-width="0.5" stroke-miterlimit="10"/>
<path d="M77.5786 258.615C77.5786 258.615 87.0206 251.646 83.6226 227.176" stroke="#322700" stroke-width="0.5" stroke-miterlimit="10"/>
<path d="M44.0195 232.292C44.0195 232.292 50.0135 227.595 46.7345 214.815" stroke="#322700" stroke-width="0.5" stroke-miterlimit="10"/>
<path d="M87.776 267.539C87.776 267.539 69.627 283.003 56.46 278.38" stroke="#322700" stroke-width="0.5" stroke-miterlimit="10"/>
<path d="M203.201 274.079L103.542 294.526C97.3526 295.796 91.2616 291.717 90.0046 285.462L44.7746 60.263C43.5186 54.008 47.5536 47.851 53.7426 46.581L153.401 26.134C159.59 24.864 165.682 28.943 166.938 35.198L212.169 260.397C213.426 266.653 209.39 272.81 203.201 274.079Z" fill="white"/>
<path d="M149.844 24.346L56.0907 43.582C47.1397 45.419 41.2607 53.897 42.9847 62.482L87.3107 283.18C89.0347 291.764 97.7197 297.254 106.671 295.418L200.424 276.182C209.375 274.345 215.254 265.867 213.53 257.283L169.203 36.585C167.48 28 158.795 22.509 149.844 24.346ZM209.474 258.114C210.769 264.564 206.368 270.911 199.643 272.29L105.89 291.526C99.1647 292.906 92.6627 288.796 91.3677 282.346L47.0407 61.649C45.7457 55.199 50.1467 48.851 56.8727 47.472L78.4627 43.042C80.4157 42.641 82.3047 43.835 82.6807 45.708L82.7247 45.928C83.3207 48.895 86.3107 50.785 89.4047 50.15L123.955 43.061C127.048 42.426 129.073 39.507 128.477 36.54C128.462 36.466 128.44 36.395 128.421 36.323L128.433 36.32C128.057 34.447 129.335 32.603 131.288 32.202L150.626 28.234C157.351 26.854 163.853 30.964 165.148 37.414L209.474 258.114Z" fill="#2C1341"/>
<mask id="mask0_47_582" style="mask-type:luminance" maskUnits="userSpaceOnUse" x="56" y="81" width="145" height="158">
<path d="M200.929 214.973L82.9339 238.519L56.0039 105.559L173.83 81.18L200.929 214.973Z" fill="white"/>
</mask>
<g mask="url(#mask0_47_582)">
<path d="M210.03 259.905L92.2039 284.284L56.0039 105.559L173.83 81.18L210.03 259.905Z" fill="#E8E0FF"/>
</g>
<mask id="mask1_47_582" style="mask-type:luminance" maskUnits="userSpaceOnUse" x="56" y="81" width="145" height="158">
<path d="M200.929 214.973L82.9339 238.519L56.0039 105.559L173.83 81.18L200.929 214.973Z" fill="white"/>
</mask>
<g mask="url(#mask1_47_582)">
<path d="M104.878 169.148L69.2211 176.526L62.2871 142.288L97.9441 134.91L104.878 169.148Z" fill="#F97C08"/>
</g>
<mask id="mask2_47_582" style="mask-type:luminance" maskUnits="userSpaceOnUse" x="56" y="81" width="145" height="158">
<path d="M200.929 214.973L82.9339 238.519L56.0039 105.559L173.83 81.18L200.929 214.973Z" fill="white"/>
</mask>
<g mask="url(#mask2_47_582)">
<path d="M141.16 235.007L97.6679 244.006L86.3589 188.168L129.85 179.169L141.16 235.007Z" fill="#F97C08"/>
</g>
<mask id="mask3_47_582" style="mask-type:luminance" maskUnits="userSpaceOnUse" x="56" y="81" width="145" height="158">
<path d="M200.929 214.973L82.9339 238.519L56.0039 105.559L173.83 81.18L200.929 214.973Z" fill="white"/>
</mask>
<g mask="url(#mask3_47_582)">
<path d="M131.293 152.954C139.397 152.954 145.968 146.313 145.968 138.122C145.968 129.93 139.397 123.29 131.293 123.29C123.188 123.29 116.618 129.93 116.618 138.122C116.618 146.313 123.188 152.954 131.293 152.954Z" fill="#F97C08"/>
</g>
<mask id="mask4_47_582" style="mask-type:luminance" maskUnits="userSpaceOnUse" x="56" y="81" width="145" height="158">
<path d="M200.929 214.973L82.9339 238.519L56.0039 105.559L173.83 81.18L200.929 214.973Z" fill="white"/>
</mask>
<g mask="url(#mask4_47_582)">
<path d="M112.224 107.323C119.233 107.323 124.916 101.58 124.916 94.496C124.916 87.4118 119.233 81.669 112.224 81.669C105.214 81.669 99.5317 87.4118 99.5317 94.496C99.5317 101.58 105.214 107.323 112.224 107.323Z" fill="#F97C08"/>
</g>
<mask id="mask5_47_582" style="mask-type:luminance" maskUnits="userSpaceOnUse" x="56" y="81" width="145" height="158">
<path d="M200.929 214.973L82.9339 238.519L56.0039 105.559L173.83 81.18L200.929 214.973Z" fill="white"/>
</mask>
<g mask="url(#mask5_47_582)">
<path d="M194.116 181.336L151.571 190.139L146.273 163.984L188.819 155.181L194.116 181.336Z" fill="#F97C08"/>
</g>
<mask id="mask6_47_582" style="mask-type:luminance" maskUnits="userSpaceOnUse" x="56" y="81" width="145" height="158">
<path d="M200.929 214.973L82.9339 238.519L56.0039 105.559L173.83 81.18L200.929 214.973Z" fill="white"/>
</mask>
<g mask="url(#mask6_47_582)">
<path d="M178.361 100.755L148.89 106.853L144.902 87.165L174.374 81.068L178.361 100.755Z" fill="#F97C08"/>
</g>
<mask id="mask7_47_582" style="mask-type:luminance" maskUnits="userSpaceOnUse" x="56" y="81" width="145" height="158">
<path d="M200.929 214.973L82.9339 238.519L56.0039 105.559L173.83 81.18L200.929 214.973Z" fill="white"/>
</mask>
<g mask="url(#mask7_47_582)">
<path d="M85.4097 120.239L55.9387 126.337L49.5757 94.92L79.0467 88.822L85.4097 120.239Z" fill="#F97C08"/>
</g>
<mask id="mask8_47_582" style="mask-type:luminance" maskUnits="userSpaceOnUse" x="56" y="81" width="145" height="158">
<path d="M200.929 214.973L82.9339 238.519L56.0039 105.559L173.83 81.18L200.929 214.973Z" fill="white"/>
</mask>
<g mask="url(#mask8_47_582)">
<path d="M186.329 142.89L168.113 146.66L163.097 121.897L181.314 118.128L186.329 142.89Z" fill="#F97C08"/>
</g>
<mask id="mask9_47_582" style="mask-type:luminance" maskUnits="userSpaceOnUse" x="56" y="81" width="145" height="158">
<path d="M200.929 214.973L82.9339 238.519L56.0039 105.559L173.83 81.18L200.929 214.973Z" fill="white"/>
</mask>
<g mask="url(#mask9_47_582)">
<path d="M201.474 217.662L160.29 226.183L155.655 203.297L196.839 194.776L201.474 217.662Z" fill="#F97C08"/>
</g>
<path fill-rule="evenodd" clip-rule="evenodd" d="M174.349 267.483L131.213 276.408C126.833 277.314 122.556 274.46 121.66 270.034L121.542 269.452C120.645 265.025 123.469 260.703 127.848 259.796L170.984 250.871C175.364 249.965 179.641 252.819 180.537 257.245L180.655 257.827C181.552 262.254 178.729 266.577 174.349 267.483Z" fill="#F97C08"/>
<path d="M147.349 262.946L146.831 263.207C146.779 263.122 146.711 263.043 146.628 262.97C146.546 262.895 146.442 262.84 146.318 262.805C146.193 262.77 146.042 262.77 145.865 262.804C145.622 262.851 145.43 262.946 145.289 263.09C145.15 263.231 145.096 263.387 145.129 263.558C145.158 263.71 145.235 263.819 145.362 263.885C145.489 263.952 145.676 263.992 145.921 264.005L146.538 264.036C146.909 264.053 147.199 264.134 147.406 264.278C147.614 264.42 147.744 264.63 147.796 264.908C147.84 265.135 147.813 265.352 147.716 265.556C147.62 265.761 147.466 265.937 147.253 266.086C147.04 266.234 146.779 266.338 146.471 266.398C146.066 266.476 145.714 266.453 145.415 266.329C145.117 266.204 144.9 265.98 144.765 265.656L145.317 265.399C145.413 265.602 145.547 265.742 145.721 265.819C145.896 265.896 146.109 265.91 146.359 265.862C146.643 265.807 146.857 265.703 147.002 265.55C147.147 265.395 147.204 265.232 147.172 265.061C147.145 264.923 147.075 264.817 146.961 264.742C146.847 264.666 146.685 264.624 146.476 264.616L145.785 264.589C145.405 264.573 145.113 264.491 144.908 264.343C144.704 264.193 144.577 263.981 144.525 263.707C144.482 263.483 144.507 263.272 144.601 263.075C144.695 262.878 144.843 262.709 145.043 262.569C145.245 262.428 145.486 262.33 145.765 262.276C146.158 262.2 146.483 262.227 146.739 262.356C146.998 262.484 147.201 262.681 147.349 262.946ZM149.898 261.53L149.996 262.047L147.939 262.445L147.841 261.928L149.898 261.53ZM148.26 260.86L148.87 260.742L149.588 264.529C149.62 264.701 149.67 264.826 149.736 264.902C149.804 264.977 149.88 265.021 149.965 265.035C150.051 265.047 150.139 265.044 150.229 265.027C150.296 265.014 150.35 265 150.392 264.985C150.434 264.968 150.467 264.954 150.492 264.944L150.72 265.468C150.681 265.492 150.626 265.518 150.555 265.548C150.484 265.58 150.392 265.607 150.278 265.629C150.106 265.662 149.93 265.658 149.751 265.616C149.573 265.573 149.415 265.487 149.278 265.356C149.143 265.225 149.053 265.044 149.009 264.813L148.26 260.86ZM152.755 265.192C152.503 265.241 152.266 265.238 152.043 265.183C151.82 265.126 151.63 265.018 151.475 264.861C151.32 264.701 151.218 264.492 151.169 264.233C151.126 264.006 151.136 263.813 151.198 263.654C151.261 263.493 151.359 263.358 151.494 263.248C151.629 263.138 151.783 263.046 151.956 262.971C152.131 262.894 152.308 262.826 152.488 262.766C152.723 262.688 152.915 262.627 153.062 262.583C153.21 262.536 153.315 262.486 153.376 262.433C153.439 262.38 153.462 262.304 153.443 262.206L153.439 262.185C153.391 261.93 153.283 261.745 153.117 261.63C152.952 261.516 152.729 261.486 152.449 261.54C152.157 261.596 151.941 261.704 151.8 261.864C151.659 262.024 151.568 262.182 151.528 262.34L150.91 262.245C150.968 261.984 151.07 261.769 151.217 261.601C151.365 261.432 151.537 261.3 151.732 261.207C151.928 261.112 152.126 261.045 152.326 261.006C152.453 260.981 152.603 260.968 152.774 260.967C152.947 260.964 153.12 260.994 153.292 261.058C153.467 261.12 153.624 261.236 153.763 261.404C153.902 261.572 154.001 261.813 154.061 262.129L154.557 264.747L153.947 264.865L153.845 264.327L153.814 264.333C153.789 264.427 153.737 264.533 153.66 264.65C153.582 264.767 153.469 264.875 153.322 264.975C153.175 265.075 152.986 265.148 152.755 265.192ZM152.744 264.626C152.985 264.579 153.18 264.492 153.327 264.365C153.476 264.238 153.579 264.091 153.635 263.925C153.693 263.758 153.706 263.592 153.674 263.427L153.568 262.868C153.548 262.904 153.497 262.943 153.414 262.986C153.332 263.027 153.237 263.068 153.126 263.109C153.018 263.148 152.911 263.185 152.807 263.219C152.704 263.252 152.621 263.278 152.557 263.3C152.402 263.351 152.261 263.413 152.131 263.487C152.004 263.558 151.906 263.647 151.839 263.755C151.774 263.861 151.755 263.991 151.785 264.146C151.825 264.359 151.934 264.504 152.111 264.582C152.29 264.658 152.501 264.673 152.744 264.626ZM155.67 264.531L154.917 260.558L155.507 260.444L155.62 261.044L155.662 261.036C155.697 260.825 155.798 260.64 155.964 260.481C156.13 260.322 156.332 260.22 156.57 260.173C156.615 260.165 156.671 260.155 156.739 260.144C156.806 260.132 156.858 260.125 156.893 260.122L157.01 260.743C156.989 260.741 156.94 260.743 156.864 260.747C156.789 260.749 156.711 260.758 156.63 260.773C156.437 260.811 156.273 260.885 156.136 260.995C156.002 261.103 155.904 261.237 155.842 261.395C155.783 261.552 155.77 261.719 155.804 261.899L156.28 264.413L155.67 264.531ZM159.601 259.651L159.699 260.168L157.642 260.567L157.544 260.049L159.601 259.651ZM157.963 258.981L158.573 258.863L159.291 262.65C159.323 262.823 159.373 262.947 159.439 263.024C159.507 263.098 159.583 263.143 159.668 263.157C159.754 263.168 159.842 263.166 159.932 263.148C159.999 263.135 160.053 263.121 160.095 263.106C160.137 263.089 160.17 263.076 160.195 263.065L160.423 263.59C160.384 263.613 160.329 263.64 160.258 263.67C160.187 263.701 160.095 263.728 159.981 263.75C159.809 263.784 159.633 263.779 159.454 263.737C159.276 263.695 159.118 263.608 158.981 263.477C158.845 263.346 158.756 263.165 158.712 262.934L157.963 258.981Z" fill="white"/>
<path fill-rule="evenodd" clip-rule="evenodd" d="M84.0406 88.208L65.4906 92.058L61.6816 73.309L80.2316 69.46L84.0406 88.208Z" fill="#F97C08"/>
<path d="M86.7905 71.621L137.096 61.18" stroke="#F97C08" stroke-miterlimit="10" stroke-linecap="round"/>
<path d="M88.0083 77.615L128.55 69.2" stroke="#F97C08" stroke-miterlimit="10" stroke-linecap="round"/>
<path d="M89.2266 83.609L110.243 79.247" stroke="#F97C08" stroke-miterlimit="10" stroke-linecap="round"/>
<path d="M102.354 244.496L186.221 228.169" stroke="#F97C08" stroke-miterlimit="10" stroke-linecap="round"/>
<path d="M111.217 248.889L175.776 236.321" stroke="#F97C08" stroke-miterlimit="10" stroke-linecap="round"/>
<path d="M130.406 252.483L165.604 245.63" stroke="#F97C08" stroke-miterlimit="10" stroke-linecap="round"/>
<path d="M189.725 116.76C191.334 116.76 191.336 114.26 189.725 114.26C188.116 114.26 188.113 116.76 189.725 116.76Z" fill="white"/>
<path d="M189.725 123.126C190.529 123.126 190.531 121.876 189.725 121.876C188.92 121.876 188.919 123.126 189.725 123.126Z" fill="white"/>
<path d="M367.658 74.972C369.267 74.972 369.269 72.472 367.658 72.472C366.05 72.472 366.047 74.972 367.658 74.972Z" fill="white"/>
<path d="M371.988 79.8C372.792 79.8 372.794 78.55 371.988 78.55C371.183 78.55 371.182 79.8 371.988 79.8Z" fill="white"/>
<path d="M41.1488 177.436C42.7578 177.436 42.7598 174.936 41.1488 174.936C39.5398 174.936 39.5368 177.436 41.1488 177.436Z" fill="white"/>
<path d="M47.2677 181.201C48.8767 181.201 48.8787 178.701 47.2677 178.701C45.6597 178.701 45.6567 181.201 47.2677 181.201Z" fill="white"/>
<path d="M41.1486 183.802C41.9526 183.802 41.9546 182.552 41.1486 182.552C40.3436 182.552 40.3426 183.802 41.1486 183.802Z" fill="white"/>
<path d="M187.596 38.637C189.205 38.637 189.207 36.137 187.596 36.137C185.987 36.137 185.985 38.637 187.596 38.637Z" fill="white"/>
<path d="M183.709 44.719C185.318 44.719 185.32 42.219 183.709 42.219C182.1 42.219 182.098 44.719 183.709 44.719Z" fill="white"/>
<path d="M180.681 37.825C181.485 37.825 181.487 36.575 180.681 36.575C179.877 36.575 179.875 37.825 180.681 37.825Z" fill="white"/>
<path d="M293.498 61.86C295.107 61.86 295.109 59.36 293.498 59.36C291.889 59.36 291.887 61.86 293.498 61.86Z" fill="white"/>
<path d="M297.267 68.018C298.876 68.018 298.878 65.518 297.267 65.518C295.658 65.518 295.655 68.018 297.267 68.018Z" fill="white"/>
<path d="M290.365 67.469C291.169 67.469 291.171 66.219 290.365 66.219C289.561 66.219 289.559 67.469 290.365 67.469Z" fill="white"/>
<path d="M419.365 191.692C420.974 191.692 420.976 189.192 419.365 189.192C417.756 189.192 417.753 191.692 419.365 191.692Z" fill="white"/>
<path d="M412.356 190.191C413.965 190.191 413.967 187.691 412.356 187.691C410.748 187.691 410.745 190.191 412.356 190.191Z" fill="white"/>
<path d="M417.071 184.471C417.875 184.471 417.877 183.221 417.071 183.221C416.267 183.221 416.265 184.471 417.071 184.471Z" fill="white"/>
<path d="M331.893 274.9C333.502 274.9 333.504 272.4 331.893 272.4C330.284 272.4 330.282 274.9 331.893 274.9Z" fill="white"/>
<path d="M336.607 269.179C337.411 269.179 337.413 267.929 336.607 267.929C335.803 267.929 335.802 269.179 336.607 269.179Z" fill="white"/>
<path d="M115.564 301.539C117.173 301.539 117.175 299.039 115.564 299.039C113.955 299.039 113.952 301.539 115.564 301.539Z" fill="white"/>
<path d="M108.931 302.9C109.735 302.9 109.737 301.65 108.931 301.65C108.127 301.65 108.125 302.9 108.931 302.9Z" fill="white"/>
<path d="M260.919 76.55L239.722 35.358C233.546 18.192 246.124 0.0419922 264.197 0.0419922C282.269 0.0419922 294.847 18.192 288.672 35.358L267.474 76.55C266.094 79.231 262.298 79.231 260.919 76.55Z" fill="#F97C08"/>
<path d="M264.196 40.475C272.189 40.475 278.669 33.9258 278.669 25.847C278.669 17.7682 272.189 11.219 264.196 11.219C256.202 11.219 249.723 17.7682 249.723 25.847C249.723 33.9258 256.202 40.475 264.196 40.475Z" fill="#F97C08"/>
<path d="M264.196 86.897C272.189 86.897 278.669 86.101 278.669 85.119C278.669 84.137 272.189 83.341 264.196 83.341C256.202 83.341 249.723 84.137 249.723 85.119C249.723 86.101 256.202 86.897 264.196 86.897Z" fill="#F97C08"/>
<defs>
<linearGradient id="paint0_linear_47_582" x1="387.721" y1="204.319" x2="408.279" y2="204.319" gradientUnits="userSpaceOnUse">
<stop stop-color="#699150"/>
<stop offset="0.53" stop-color="#3C6422"/>
<stop offset="1" stop-color="#1F3C00"/>
</linearGradient>
</defs>
</svg>
